<svg version="1.1" id="Layer_1" xmlns="http://www.w3.org/2000/svg" xmlns:xlink="http://www.w3.org/1999/xlink" x="0px" y="0px"
	 width="100%" viewBox="0 0 360 368" enable-background="new 0 0 360 368" xml:space="preserve">
<path fill="#FFFFFE" opacity="1.000000" stroke="none" 
	d="
M1.000002,273.000000 
	C1.000000,182.383545 1.000000,91.767097 1.000000,1.075323 
	C120.883278,1.075323 240.766617,1.075323 361.000000,1.075323 
	C361.000000,53.353706 361.000000,105.708199 360.722534,158.352844 
	C359.343384,158.052475 358.241699,157.461975 357.002747,156.673477 
	C356.640411,156.221588 356.358734,156.082077 355.640869,155.876495 
	C347.521210,155.150253 339.786560,154.249084 332.040009,154.131531 
	C315.085632,153.874329 298.125122,153.986877 281.167389,154.034973 
	C279.434967,154.039886 277.704163,154.632095 275.524994,154.941879 
	C272.120422,154.860245 269.163452,154.788513 266.039978,154.357330 
	C258.895416,153.686020 251.920029,153.209915 244.938858,153.099594 
	C233.633041,152.920883 222.323410,152.982330 210.983337,152.622314 
	C211.137527,151.292831 210.976273,149.735596 211.565659,149.361725 
	C215.813065,146.667404 214.202682,143.777679 211.317017,142.015533 
	C206.798676,139.256393 201.786789,137.305511 196.626038,135.010635 
	C195.186066,135.297318 194.104019,135.585632 192.592102,135.879364 
	C190.443130,135.922409 188.724014,135.960052 186.941864,135.628632 
	C178.885895,133.534607 170.892929,131.809631 162.496033,130.063812 
	C157.583679,128.965775 152.674011,128.653976 148.694550,126.567787 
	C145.545242,124.916794 142.357086,121.460251 141.308762,118.136101 
	C139.854477,113.524689 140.116180,108.281029 140.214371,103.319374 
	C140.249863,101.526718 141.497955,99.220627 142.932480,98.075920 
	C157.884308,86.144859 162.489471,69.924294 162.659271,51.326546 
	C163.054321,46.098557 163.539627,41.297668 163.685532,36.486485 
	C164.257477,17.627913 143.332352,4.719039 129.640091,7.709515 
	C109.934959,12.013237 96.182541,22.776762 90.231583,42.324657 
	C86.749969,53.761173 83.769775,65.361855 80.915939,76.975159 
	C77.031502,92.782326 68.631470,104.776581 53.399185,111.486816 
	C50.674793,112.686989 47.813557,114.010414 45.659496,115.980911 
	C41.193100,120.066711 37.159180,124.625282 32.687080,129.196472 
	C32.286930,130.257126 32.147137,131.110748 31.988323,132.221298 
	C31.931875,132.645828 31.894451,132.813431 31.605679,133.229950 
	C31.328213,134.400681 31.302094,135.322510 31.298847,136.550629 
	C31.334404,137.470840 31.347090,138.084778 31.250164,139.014343 
	C31.423079,139.882126 31.705603,140.434280 32.078846,141.166046 
	C32.169567,141.345673 32.282173,141.732071 32.210770,142.136230 
	C32.599648,144.242508 32.502934,146.656723 33.614506,147.526169 
	C39.068886,151.792404 39.329750,158.825806 42.943508,164.421295 
	C42.959408,166.225525 42.978588,167.613373 42.747238,169.262817 
	C42.692810,172.031677 42.888912,174.538956 43.095123,177.425415 
	C43.416912,179.539261 43.728596,181.273911 43.753883,183.197632 
	C40.881428,188.757782 38.252655,194.108780 35.717728,199.503876 
	C29.459549,212.823227 23.281000,226.180099 17.000685,239.488968 
	C11.718152,250.683395 6.337320,261.831421 1.000002,273.000000 
z"/>
<path fill="#FFFEFE" opacity="1.000000" stroke="none" 
	d="
M361.000000,169.000000 
	C361.000000,235.621826 361.000000,302.243652 361.000000,368.932739 
	C241.000000,368.932739 121.000008,368.932739 1.000000,368.932739 
	C1.000000,338.897095 1.000000,308.917206 1.277824,278.674927 
	C2.629512,281.921173 4.816018,284.188507 8.629504,284.332703 
	C16.085644,284.614685 23.549234,284.716156 31.001818,285.062683 
	C32.649757,285.139343 34.264755,285.924286 35.894928,286.383057 
	C35.101227,287.925568 34.548153,289.663971 33.476604,290.980286 
	C22.741304,304.168030 13.159105,318.020630 8.336047,334.588684 
	C5.597672,343.995483 8.275541,347.070251 17.937517,344.700653 
	C20.413240,344.093475 22.890388,340.460571 23.967480,337.676361 
	C30.714218,320.236603 43.414707,307.038086 55.088627,293.101868 
	C55.708542,292.361816 57.101055,292.268951 58.088959,292.331024 
	C57.983547,294.450256 58.186291,296.173676 57.821007,297.766785 
	C54.872868,310.624512 55.133923,323.521790 58.156765,336.228027 
	C60.494347,346.053802 64.356567,356.078400 73.329613,361.189484 
	C86.000313,368.406769 100.087379,368.842926 114.308746,364.972778 
	C120.194565,363.371063 125.533363,359.049377 132.246460,361.003754 
	C135.421387,361.928040 138.671616,362.590851 141.858887,363.476044 
	C160.344193,368.609833 178.509842,368.977295 196.961731,362.323853 
	C215.165833,355.759735 229.267365,344.177063 241.124283,329.532043 
	C248.094940,320.922272 254.179276,311.597565 260.779510,302.681244 
	C261.436676,301.793457 262.911438,301.510895 264.271149,301.152679 
	C275.208862,314.790314 286.781677,327.603973 292.513977,344.322632 
	C293.096222,346.020721 296.244202,347.618164 298.346863,347.831757 
	C301.437622,348.145660 304.659332,347.170593 307.752777,346.754395 
	C306.834198,334.287750 301.791962,321.826813 293.957397,311.684326 
	C293.289337,310.580933 292.642181,309.797913 291.966553,308.685852 
	C290.963440,307.236115 289.988861,306.115448 288.974518,304.651855 
	C287.285278,302.215942 285.635742,300.122986 283.992676,298.013184 
	C283.999084,297.996399 283.966766,298.012573 283.933899,297.692932 
	C283.273315,296.905914 282.645660,296.438538 282.011230,295.978394 
	C282.004517,295.985626 282.030029,295.978424 281.984802,295.622559 
	C280.982727,293.454803 280.025879,291.642883 278.605591,288.953278 
	C285.554077,288.953278 291.495605,288.865356 297.433197,288.979950 
	C302.570618,289.079071 306.131592,287.353638 308.425812,282.320740 
	C313.651306,270.857483 319.459259,259.661316 324.815033,248.255432 
	C328.403290,240.613678 331.621765,232.798294 335.335510,225.061066 
	C336.104706,225.079071 336.544037,225.096588 336.981964,225.488373 
	C339.323273,230.906036 341.666046,235.949417 344.169800,241.325668 
	C348.546814,246.529755 353.108429,242.717163 357.714874,242.543610 
	C357.795654,241.062775 358.230347,239.786087 357.861542,238.814392 
	C354.370636,229.616714 350.796417,220.449097 347.080200,211.340576 
	C346.663361,210.318863 345.219055,209.716385 344.214172,208.605835 
	C344.187378,207.870407 344.197601,207.448639 344.440979,206.757782 
	C350.116119,193.992462 355.558044,181.496231 361.000000,169.000000 
z"/>
<path fill="#F5D6C3" opacity="1.000000" stroke="none" 
	d="
M1.000002,273.333313 
	C6.337320,261.831421 11.718152,250.683395 17.000685,239.488968 
	C23.281000,226.180099 29.459549,212.823227 35.717728,199.503876 
	C38.252655,194.108780 40.881428,188.757782 44.028824,183.456589 
	C45.624237,187.503510 46.412327,191.564728 47.738770,195.441757 
	C51.631023,206.818329 55.618637,218.166061 59.832912,229.426285 
	C61.078888,232.755417 63.200832,235.756683 64.949738,239.376144 
	C64.983849,242.964432 64.633934,246.143036 65.131943,249.182724 
	C65.419472,250.937668 67.075630,252.468369 68.082779,254.539612 
	C68.063713,257.955933 68.077667,260.932648 67.766563,264.092346 
	C66.959839,265.852173 66.478165,267.429108 65.994118,269.253906 
	C65.991737,269.501770 65.987282,269.997498 65.725449,270.207825 
	C64.324928,272.274750 63.186237,274.131409 61.581909,275.987366 
	C41.077515,275.657776 21.038757,275.328888 1.000000,275.000000 
	C1.000000,274.555542 1.000000,274.111115 1.000002,273.333313 
z"/>
<path fill="#F5D8C5" opacity="1.000000" stroke="none" 
	d="
M58.133896,291.874817 
	C57.101055,292.268951 55.708542,292.361816 55.088627,293.101868 
	C43.414707,307.038086 30.714218,320.236603 23.967480,337.676361 
	C22.890388,340.460571 20.413240,344.093475 17.937517,344.700653 
	C8.275541,347.070251 5.597672,343.995483 8.336047,334.588684 
	C13.159105,318.020630 22.741304,304.168030 33.476604,290.980286 
	C34.548153,289.663971 35.101227,287.925568 35.894928,286.383057 
	C34.264755,285.924286 32.649757,285.139343 31.001818,285.062683 
	C23.549234,284.716156 16.085644,284.614685 8.629504,284.332703 
	C4.816018,284.188507 2.629512,281.921173 1.277824,278.206238 
	C1.000000,278.000000 1.000000,277.500000 1.468600,277.241119 
	C21.962587,276.998993 41.987976,277.015747 61.964516,277.414001 
	C60.942825,281.540985 59.969986,285.286438 58.822884,289.118530 
	C58.766674,289.494263 58.884720,289.783356 58.972092,290.337952 
	C58.672237,291.027222 58.403061,291.450989 58.133896,291.874817 
z"/>
<path fill="#F7D8C7" opacity="1.000000" stroke="none" 
	d="
M335.005707,225.060593 
	C331.621765,232.798294 328.403290,240.613678 324.815033,248.255432 
	C319.459259,259.661316 313.651306,270.857483 308.425812,282.320740 
	C306.131592,287.353638 302.570618,289.079071 297.433197,288.979950 
	C291.495605,288.865356 285.554077,288.953278 278.605591,288.953278 
	C280.025879,291.642883 280.982727,293.454803 281.613525,295.623596 
	C279.855774,293.979523 278.424072,291.978546 277.095459,289.726440 
	C277.453979,288.998627 277.709412,288.522003 278.257294,287.741943 
	C281.650665,287.291931 284.750244,287.074249 287.852844,287.014862 
	C292.912231,286.918060 298.277771,287.998535 301.960571,283.365448 
	C302.240967,284.348907 302.496307,284.976410 302.751648,285.603943 
	C303.230591,285.480957 303.709534,285.357971 304.188477,285.234985 
	C303.462677,282.156097 302.736877,279.077209 302.004944,275.998718 
	C301.998779,275.999115 301.998413,276.011658 302.303589,275.858276 
	C304.408813,272.135620 306.208862,268.566406 308.003845,264.998169 
	C307.998779,264.999146 308.000000,265.009460 308.258636,264.852386 
	C308.681793,264.127502 308.846313,263.559723 309.004822,262.995544 
	C308.998779,262.999176 308.996796,263.013245 309.254364,262.853943 
	C309.677795,262.127838 309.843628,261.561066 310.004150,260.996582 
	C309.998779,260.998840 309.998383,261.010559 310.358734,260.949341 
	C311.149353,259.589905 311.579590,258.291718 312.004333,256.996338 
	C311.998779,256.999176 311.998322,257.011719 312.254883,256.851440 
	C312.678253,256.124084 312.845062,255.557037 313.005310,254.994659 
	C312.998779,254.999374 312.995270,255.014969 313.258118,254.843857 
	C313.685791,254.079010 313.850616,253.485291 314.010498,252.684418 
	C314.005524,252.477264 313.990753,252.063126 314.359436,252.009521 
	C315.489197,250.300629 316.250305,248.645325 317.005096,246.994583 
	C316.998779,246.999161 316.995697,247.014328 317.291779,246.881165 
	C318.061920,245.831696 318.535950,244.915359 319.004425,243.999207 
	C318.998871,243.999390 319.000000,244.010117 319.268860,243.807938 
	C319.694824,242.735443 319.851898,241.865143 320.004456,240.996735 
	C319.999939,240.998642 320.002380,241.006973 320.321350,240.850601 
	C321.429596,238.461731 322.218811,236.229218 323.003418,233.998047 
	C322.998779,233.999390 322.997772,234.008560 323.239136,233.909195 
	C323.699432,233.541290 323.918335,233.272736 324.354431,232.832947 
	C324.719147,232.139099 324.866638,231.616501 325.019989,230.820145 
	C325.019806,230.363937 325.013794,230.181503 325.003571,229.999222 
	C324.999329,229.999390 325.001312,230.007614 325.256897,229.848618 
	C325.677582,229.125595 325.842682,228.561569 326.003296,227.998474 
	C325.998779,227.999390 326.000854,228.008224 326.312622,227.859406 
	C329.772186,221.228256 333.047577,214.803482 336.009766,208.237396 
	C337.333862,205.302307 338.029083,202.083511 339.004242,198.996429 
	C338.998779,198.999390 338.998322,199.011520 339.311035,198.861908 
	C341.751740,193.474091 343.879700,188.235870 346.003235,182.998520 
	C345.998779,182.999390 346.001434,183.008194 346.326294,182.848785 
	C347.103607,181.124619 347.556091,179.559845 348.003662,177.997238 
	C347.998779,177.999390 347.999603,178.009964 348.315186,177.858154 
	C349.756470,174.803802 350.882172,171.901230 352.003326,168.999023 
	C351.998779,168.999390 352.001495,169.007950 352.320374,168.851166 
	C354.139526,164.753403 355.639771,160.812424 357.140045,156.871460 
	C358.241699,157.461975 359.343384,158.052475 360.722534,158.821503 
	C361.000000,162.030594 361.000000,165.061188 361.000000,168.545898 
	C355.558044,181.496231 350.116119,193.992462 344.067505,206.791473 
	C340.642456,213.083023 337.824066,219.071808 335.005707,225.060593 
z"/>
<path fill="#EBBEAA" opacity="1.000000" stroke="none" 
	d="
M62.013363,277.032501 
	C41.987976,277.015747 21.962587,276.998993 1.468600,276.991119 
	C1.000000,276.555542 1.000000,276.111115 1.000000,275.333313 
	C21.038757,275.328888 41.077515,275.657776 61.578815,276.248749 
	C62.032024,276.684723 62.022694,276.858612 62.013363,277.032501 
z"/>
<path fill="#D7624A" opacity="1.000000" stroke="none" 
	d="
M32.282173,141.732071 
	C32.282173,141.732071 32.169567,141.345673 32.112984,140.857956 
	C31.824194,139.813065 31.591986,139.255875 31.359776,138.698700 
	C31.347090,138.084778 31.334404,137.470840 31.511152,136.277359 
	C31.752733,134.792221 31.804880,133.886627 31.857025,132.981049 
	C31.894451,132.813431 31.931875,132.645828 32.220947,131.992767 
	C32.630882,130.668045 32.789165,129.828751 32.947449,128.989471 
	C37.159180,124.625282 41.193100,120.066711 45.659496,115.980911 
	C47.813557,114.010414 50.674793,112.686989 53.399185,111.486816 
	C68.631470,104.776581 77.031502,92.782326 80.915939,76.975159 
	C83.769775,65.361855 86.749969,53.761173 90.231583,42.324657 
	C96.182541,22.776762 109.934959,12.013237 129.640091,7.709515 
	C143.332352,4.719039 164.257477,17.627913 163.685532,36.486485 
	C163.539627,41.297668 163.054321,46.098557 162.458221,51.353569 
	C162.191467,51.802967 161.804993,51.930824 161.479980,51.997322 
	C159.424057,54.336357 157.693176,56.608887 155.937103,59.160355 
	C155.934097,59.624680 155.956253,59.810070 155.989136,59.997810 
	C155.999863,60.000160 155.988266,59.980217 155.649994,60.013290 
	C150.221085,67.342346 145.130417,74.638336 140.020630,82.316170 
	C139.015808,85.490021 138.030106,88.282013 136.898254,91.421440 
	C135.839783,96.382591 134.032578,101.029396 134.201614,105.603149 
	C134.552017,115.083794 135.952393,124.525635 136.605438,134.036682 
	C135.880035,134.748596 135.470276,135.407272 135.043549,136.526215 
	C134.983856,141.997864 134.941132,147.009247 134.632492,152.283340 
	C134.305527,153.796921 134.244461,155.047821 134.024963,156.598251 
	C128.847961,165.590729 124.564690,165.881561 119.724358,157.873917 
	C119.586723,157.646210 119.183022,157.579346 118.019829,156.989273 
	C101.905029,174.459869 89.402100,196.535065 64.764481,205.115570 
	C64.534081,205.070770 64.066887,205.117905 63.630714,205.065826 
	C53.942017,204.993881 50.746189,201.441010 52.170628,192.595581 
	C52.511654,190.477890 53.491898,188.447189 53.708679,186.328445 
	C54.373932,179.826660 54.811260,173.301544 55.239380,166.436829 
	C52.965118,163.030701 51.134422,159.634277 48.539349,156.987244 
	C43.341499,151.685318 37.725525,146.793304 32.282173,141.732071 
z"/>
<path fill="#FBDAE2" opacity="1.000000" stroke="none" 
	d="
M64.994873,205.160370 
	C89.402100,196.535065 101.905029,174.459869 118.019829,156.989273 
	C119.183022,157.579346 119.586723,157.646210 119.724358,157.873917 
	C124.564690,165.881561 128.847961,165.590729 134.325073,156.407684 
	C135.878235,153.815826 137.695663,151.786850 137.916138,149.597092 
	C138.367508,145.114319 137.961426,140.545197 138.343109,136.000214 
	C146.031250,134.670547 153.294601,133.402359 160.525299,131.969391 
	C161.406738,131.794693 162.112686,130.734467 162.899979,130.084656 
	C170.892929,131.809631 178.885895,133.534607 186.941650,135.875793 
	C187.004471,136.492020 186.927826,136.980301 186.624283,137.024841 
	C185.869324,137.672852 185.417908,138.276337 184.660736,139.053818 
	C183.883667,140.489090 183.412354,141.750366 182.708344,143.176300 
	C182.307892,143.875168 182.140152,144.409378 181.947144,145.390411 
	C181.963638,148.220352 182.005371,150.603455 181.788284,153.153488 
	C181.366608,153.896255 181.203735,154.472092 181.032364,155.509827 
	C181.054428,160.942047 181.084991,165.912384 181.085999,171.233398 
	C181.383469,172.394394 181.710464,173.204742 182.011871,174.348969 
	C181.959045,175.128555 181.931808,175.574219 181.693573,176.173996 
	C181.662750,176.885971 181.842896,177.443863 182.042999,178.401062 
	C184.419098,187.191788 186.647934,195.621780 189.175293,203.961288 
	C190.915985,209.705017 193.070328,215.323410 194.749146,221.198471 
	C188.451859,232.192337 187.522690,243.934891 187.551544,255.940598 
	C185.109604,256.029877 183.106445,256.021759 181.124603,256.223297 
	C162.517380,258.115570 143.947388,260.523132 125.299934,261.829498 
	C105.810173,263.194794 86.458344,261.972504 68.115791,254.100006 
	C67.075630,252.468369 65.419472,250.937668 65.131943,249.182724 
	C64.633934,246.143036 64.983849,242.964432 64.954201,238.917725 
	C64.675873,227.336960 64.421463,216.682526 64.342728,205.923523 
	C64.736542,205.642349 64.895370,205.422821 64.994873,205.160370 
z"/>
<path fill="#F5D6C2" opacity="1.000000" stroke="none" 
	d="
M188.000244,255.940460 
	C187.522690,243.934891 188.451859,232.192337 195.031662,221.418961 
	C196.029510,222.336823 196.511078,223.212753 196.869949,224.136353 
	C200.049454,232.319366 202.776352,240.713852 206.508469,248.635239 
	C209.464630,254.909622 213.332886,260.952911 220.148636,263.938934 
	C221.604385,264.576691 223.983780,264.796722 225.164413,264.025513 
	C227.746307,262.338928 230.245209,260.191803 232.046524,257.703339 
	C238.739044,248.457703 245.081177,238.959122 251.698151,229.657425 
	C252.756790,228.169296 254.548004,227.202301 256.293030,226.124054 
	C257.392700,226.454300 258.199921,226.654877 259.448242,226.891953 
	C262.250824,226.977127 264.612244,227.025803 267.190094,227.302963 
	C271.709839,227.724686 272.785339,224.084946 274.196045,221.334717 
	C278.273682,213.385361 282.339630,205.398727 285.790344,197.166901 
	C290.191162,186.668533 293.973450,175.911285 298.050690,165.276505 
	C298.881012,163.110687 299.115234,161.327454 295.718140,161.010315 
	C294.267944,160.691162 293.168915,160.375107 291.842560,159.770660 
	C286.401031,157.972107 281.186829,156.461929 275.972626,154.951782 
	C277.704163,154.632095 279.434967,154.039886 281.167389,154.034973 
	C298.125122,153.986877 315.085632,153.874329 332.040009,154.131531 
	C339.786560,154.249084 347.521210,155.150253 355.593445,156.241974 
	C354.617584,160.861267 353.309540,164.934601 352.001465,169.007950 
	C352.001495,169.007950 351.998779,168.999390 351.686951,169.157547 
	C350.249908,172.213791 349.124756,175.111877 347.999603,178.009964 
	C347.999603,178.009964 347.998779,177.999390 347.721497,178.199615 
	C346.963318,179.935959 346.482391,181.472076 346.001434,183.008194 
	C346.001434,183.008194 345.998779,182.999390 345.722595,183.196793 
	C343.297028,188.599976 341.147675,193.805740 338.998322,199.011520 
	C338.998322,199.011520 338.998779,198.999390 338.723999,199.196075 
	C334.299774,208.931244 330.150330,218.469727 326.000854,228.008224 
	C326.000854,228.008224 325.998779,227.999390 325.749420,228.159409 
	C325.333801,228.882156 325.167542,229.444885 325.001312,230.007614 
	C325.001312,230.007614 324.999329,229.999390 324.824615,230.091278 
	C324.771332,230.486755 324.892731,230.790329 325.014130,231.093903 
	C324.866638,231.616501 324.719147,232.139099 324.097534,232.914810 
	C323.414917,233.448151 323.206329,233.728348 322.997772,234.008560 
	C322.997772,234.008560 322.998779,233.999390 322.722168,234.198853 
	C321.631165,236.601212 320.816772,238.804092 320.002380,241.006973 
	C320.002380,241.006973 319.999939,240.998642 319.731689,241.195526 
	C319.308960,242.264984 319.154480,243.137558 319.000000,244.010117 
	C319.000000,244.010117 318.998871,243.999390 318.657227,244.046936 
	C317.875610,245.067764 317.435638,246.041046 316.995697,247.014328 
	C316.995697,247.014328 316.998779,246.999161 316.732727,247.183746 
	C315.641388,248.933273 314.816071,250.498199 313.990784,252.063141 
	C313.990753,252.063126 314.005524,252.477264 313.765289,252.877167 
	C313.348450,253.856369 313.171875,254.435669 312.995300,255.014969 
	C312.995270,255.014969 312.998779,254.999374 312.755096,255.162170 
	C312.340393,255.887222 312.169342,256.449463 311.998322,257.011719 
	C311.998322,257.011719 311.998779,256.999176 311.730469,257.180756 
	C310.974243,258.578400 310.486328,259.794495 309.998383,261.010559 
	C309.998383,261.010559 309.998779,260.998840 309.750854,261.159729 
	C309.334229,261.884857 309.165497,262.449036 308.996796,263.013245 
	C308.996796,263.013245 308.998779,262.999176 308.754150,263.161865 
	C308.339691,263.886200 308.169830,264.447815 308.000000,265.009460 
	C308.000000,265.009460 307.998779,264.999146 307.696411,265.150116 
	C305.595490,268.871277 303.796936,272.441467 301.998413,276.011658 
	C301.998413,276.011658 301.998779,275.999115 301.569489,275.993469 
	C291.608795,276.324921 282.075745,276.624481 272.547577,277.036560 
	C270.983582,277.104187 269.440979,277.666412 267.455109,278.000000 
	C263.692535,277.664490 260.363373,277.328949 256.561981,276.994415 
	C236.057831,276.999390 216.025894,277.003357 195.724976,276.819336 
	C193.958817,274.753174 192.461624,272.874969 190.985870,270.997284 
	C191.007309,270.997772 190.991684,271.037750 190.969604,270.708740 
	C190.322174,269.279602 189.696793,268.179413 188.949707,266.808350 
	C188.548874,266.017365 188.269745,265.497284 188.002930,264.527740 
	C188.010254,261.365692 188.005249,258.653076 188.000244,255.940460 
z"/>
<path fill="#EFAC98" opacity="1.000000" stroke="none" 
	d="
M162.496033,130.063812 
	C162.112686,130.734467 161.406738,131.794693 160.525299,131.969391 
	C153.294601,133.402359 146.031250,134.670547 138.120499,135.814026 
	C137.282486,135.087326 137.101776,134.535370 136.921066,133.983429 
	C135.952393,124.525635 134.552017,115.083794 134.201614,105.603149 
	C134.032578,101.029396 135.839783,96.382591 137.222839,91.324913 
	C140.133789,87.257660 142.574051,83.634361 145.007141,80.005524 
	C145.000000,80.000000 145.012070,80.011871 145.324646,79.895874 
	C146.764984,78.186005 147.892746,76.592125 149.008301,74.997406 
	C148.996078,74.996567 148.999786,75.020782 149.315063,74.879974 
	C150.424942,73.163742 151.219543,71.588326 152.007080,70.006454 
	C152.000000,70.000000 152.016022,70.012711 152.371597,70.025085 
	C157.684708,64.970329 160.420059,58.789093 161.804993,51.930824 
	C161.804993,51.930824 162.191467,51.802967 162.392532,51.775948 
	C162.489471,69.924294 157.884308,86.144859 142.932480,98.075920 
	C141.497955,99.220627 140.249863,101.526718 140.214371,103.319374 
	C140.116180,108.281029 139.854477,113.524689 141.308762,118.136101 
	C142.357086,121.460251 145.545242,124.916794 148.694550,126.567787 
	C152.674011,128.653976 157.583679,128.965775 162.496033,130.063812 
z"/>
<path fill="#EEAA97" opacity="1.000000" stroke="none" 
	d="
M64.167061,206.028107 
	C64.421463,216.682526 64.675873,227.336960 64.925827,238.449799 
	C63.200832,235.756683 61.078888,232.755417 59.832912,229.426285 
	C55.618637,218.166061 51.631023,206.818329 47.738770,195.441757 
	C46.412327,191.564728 45.624237,187.503510 44.315216,183.267502 
	C43.728596,181.273911 43.416912,179.539261 43.444733,177.327621 
	C43.522079,174.234146 43.259926,171.617691 42.997768,169.001221 
	C42.978588,167.613373 42.959408,166.225525 43.221691,164.170532 
	C43.914604,162.041214 44.326054,160.579041 44.737503,159.116882 
	C45.267597,159.009216 45.797695,158.901550 46.327789,158.793884 
	C46.900082,160.307968 47.741478,161.778519 47.994778,163.344223 
	C48.790642,168.263687 50.427582,169.092316 55.337196,166.785507 
	C54.811260,173.301544 54.373932,179.826660 53.708679,186.328445 
	C53.491898,188.447189 52.511654,190.477890 52.170628,192.595581 
	C50.746189,201.441010 53.942017,204.993881 63.635605,205.295380 
	C64.076660,205.576996 64.167061,206.028107 64.167061,206.028107 
z"/>
<path fill="#F5D6C2" opacity="1.000000" stroke="none" 
	d="
M211.015396,152.942368 
	C222.323410,152.982330 233.633041,152.920883 244.938858,153.099594 
	C251.920029,153.209915 258.895416,153.686020 265.565613,154.451874 
	C257.840149,155.940109 250.422516,156.974350 242.797104,157.772156 
	C239.395966,158.996780 236.202606,160.457840 232.647415,161.895615 
	C225.850281,159.934097 219.414978,157.995880 212.639832,156.010269 
	C211.531448,154.977936 210.762924,153.992981 210.250092,152.998596 
	C210.675659,152.973557 210.845520,152.957962 211.015396,152.942368 
z"/>
<path fill="#F8C9C1" opacity="1.000000" stroke="none" 
	d="
M55.239380,166.436829 
	C50.427582,169.092316 48.790642,168.263687 47.994778,163.344223 
	C47.741478,161.778519 46.900082,160.307968 46.327789,158.793884 
	C45.797695,158.901550 45.267597,159.009216 44.737503,159.116882 
	C44.326054,160.579041 43.914604,162.041214 43.224972,163.754135 
	C39.329750,158.825806 39.068886,151.792404 33.614506,147.526169 
	C32.502934,146.656723 32.599648,144.242508 32.210770,142.136230 
	C37.725525,146.793304 43.341499,151.685318 48.539349,156.987244 
	C51.134422,159.634277 52.965118,163.030701 55.239380,166.436829 
z"/>
<path fill="#FCF3F3" opacity="1.000000" stroke="none" 
	d="
M210.983337,152.622314 
	C210.845520,152.957962 210.675659,152.973557 210.036041,152.814346 
	C209.359741,152.122238 209.153198,151.604950 208.925919,150.757050 
	C208.271805,149.949936 207.638428,149.473419 206.980331,148.635803 
	C205.310226,146.849915 203.664841,145.425140 201.979218,143.658905 
	C200.283600,141.556396 198.628204,139.795349 196.981293,137.656189 
	C196.987839,136.522812 196.985901,135.767548 196.983948,135.012268 
	C201.786789,137.305511 206.798676,139.256393 211.317017,142.015533 
	C214.202682,143.777679 215.813065,146.667404 211.565659,149.361725 
	C210.976273,149.735596 211.137527,151.292831 210.983337,152.622314 
z"/>
<path fill="#E4B6A2" opacity="1.000000" stroke="none" 
	d="
M243.004883,158.008591 
	C250.422516,156.974350 257.840149,155.940109 265.732147,154.811325 
	C269.163452,154.788513 272.120422,154.860245 275.524994,154.941864 
	C281.186829,156.461929 286.401031,157.972107 291.398682,159.757385 
	C281.666901,159.025467 272.168518,157.501221 262.630646,157.190674 
	C256.115387,156.978531 249.544952,158.460037 243.001099,158.889420 
	C243.003616,158.399200 243.004257,158.203888 243.004883,158.008591 
z"/>
<path fill="#EAAF9F" opacity="1.000000" stroke="none" 
	d="
M196.972809,138.034302 
	C198.628204,139.795349 200.283600,141.556396 201.598969,143.655930 
	C196.481888,141.656372 191.704865,139.318344 186.927826,136.980301 
	C186.927826,136.980301 187.004471,136.492020 187.004669,136.244858 
	C188.724014,135.960052 190.443130,135.922409 192.755157,136.166626 
	C194.556305,136.977097 195.764557,137.505707 196.972809,138.034302 
z"/>
<path fill="#E8BFAC" opacity="1.000000" stroke="none" 
	d="
M352.320374,168.851166 
	C353.309540,164.934601 354.617584,160.861267 355.973022,156.422455 
	C356.358734,156.082077 356.640411,156.221588 357.002747,156.673477 
	C355.639771,160.812424 354.139526,164.753403 352.320374,168.851166 
z"/>
<path fill="#F8C9C1" opacity="1.000000" stroke="none" 
	d="
M42.747238,169.262817 
	C43.259926,171.617691 43.522079,174.234146 43.434624,176.948425 
	C42.888912,174.538956 42.692810,172.031677 42.747238,169.262817 
z"/>
<path fill="#FBDAE2" opacity="1.000000" stroke="none" 
	d="
M196.981293,137.656189 
	C195.764557,137.505707 194.556305,136.977097 193.184998,136.161224 
	C194.104019,135.585632 195.186066,135.297318 196.626038,135.010635 
	C196.985901,135.767548 196.987839,136.522812 196.981293,137.656189 
z"/>
<path fill="#F8C9C1" opacity="1.000000" stroke="none" 
	d="
M32.687084,129.196472 
	C32.789165,129.828751 32.630882,130.668045 32.239975,131.735855 
	C32.147137,131.110748 32.286930,130.257126 32.687084,129.196472 
z"/>
<path fill="#F8C9C1" opacity="1.000000" stroke="none" 
	d="
M31.605679,133.229950 
	C31.804880,133.886627 31.752733,134.792221 31.488281,135.971069 
	C31.302094,135.322510 31.328213,134.400681 31.605679,133.229950 
z"/>
<path fill="#F8C9C1" opacity="1.000000" stroke="none" 
	d="
M31.250166,139.014343 
	C31.591986,139.255875 31.824194,139.813065 32.022263,140.678345 
	C31.705603,140.434280 31.423079,139.882126 31.250166,139.014343 
z"/>
<path fill="#FBDAE3" opacity="1.000000" stroke="none" 
	d="
M61.964516,277.414001 
	C62.022694,276.858612 62.032024,276.684723 62.044449,276.249451 
	C63.186237,274.131409 64.324928,272.274750 65.957535,270.474518 
	C77.060905,275.562164 88.267174,278.192322 100.433319,278.900513 
	C125.573814,279.356171 150.222931,279.600555 174.505264,274.047302 
	C179.945618,272.803101 185.493378,272.028503 190.991684,271.037750 
	C190.991684,271.037750 191.007309,270.997772 190.989563,271.375549 
	C196.757156,284.265472 202.542480,296.777557 208.327805,309.289673 
	C208.817719,308.192719 208.904572,307.204529 208.622574,306.336182 
	C206.746017,300.557953 204.790604,294.805389 202.896149,289.034729 
	C202.931458,289.024963 202.999390,288.997559 203.416565,288.995422 
	C205.224731,288.983765 206.615753,288.974243 208.338287,288.970154 
	C209.111877,288.972473 209.553940,288.969360 210.464890,288.977295 
	C220.957016,288.984283 230.980240,288.980286 241.453094,288.982239 
	C244.600708,288.984558 247.298737,288.980927 250.373688,288.985291 
	C251.505020,288.993011 252.259415,288.992767 253.302979,289.124146 
	C254.384521,289.519012 255.176865,289.782227 255.981964,290.407379 
	C258.665375,294.162018 261.336029,297.554718 264.006714,300.947418 
	C262.911438,301.510895 261.436676,301.793457 260.779510,302.681244 
	C254.179276,311.597565 248.094940,320.922272 241.124283,329.532043 
	C229.267365,344.177063 215.165833,355.759735 196.961731,362.323853 
	C178.509842,368.977295 160.344193,368.609833 141.858887,363.476044 
	C138.671616,362.590851 135.421387,361.928040 132.246460,361.003754 
	C125.533363,359.049377 120.194565,363.371063 114.308746,364.972778 
	C100.087379,368.842926 86.000313,368.406769 73.329613,361.189484 
	C64.356567,356.078400 60.494347,346.053802 58.156765,336.228027 
	C55.133923,323.521790 54.872868,310.624512 57.821007,297.766785 
	C58.186291,296.173676 57.983547,294.450256 58.088951,292.330994 
	C58.403061,291.450989 58.672237,291.027222 58.965069,290.077393 
	C58.991528,289.378204 58.994335,289.205048 58.997143,289.031921 
	C59.969986,285.286438 60.942825,281.540985 61.964516,277.414001 
z"/>
<path fill="#F5D8C5" opacity="1.000000" stroke="none" 
	d="
M264.271149,301.152679 
	C261.336029,297.554718 258.665375,294.162018 256.453674,290.390961 
	C263.605896,290.000916 270.299103,289.989258 276.992340,289.977600 
	C278.424072,291.978546 279.855774,293.979523 281.658752,295.979431 
	C282.030029,295.978424 282.004517,295.985626 282.044006,296.300842 
	C282.711273,297.081573 283.339020,297.547089 283.966766,298.012573 
	C283.966766,298.012573 283.999084,297.996399 284.002380,298.380432 
	C285.675171,300.841217 287.344727,302.917969 289.014252,304.994751 
	C289.988861,306.115448 290.963440,307.236115 291.973114,309.036987 
	C292.664917,310.479645 293.321655,311.242157 293.978363,312.004669 
	C301.791962,321.826813 306.834198,334.287750 307.752777,346.754395 
	C304.659332,347.170593 301.437622,348.145660 298.346863,347.831757 
	C296.244202,347.618164 293.096222,346.020721 292.513977,344.322632 
	C286.781677,327.603973 275.208862,314.790314 264.271149,301.152679 
z"/>
<path fill="#F7D8C7" opacity="1.000000" stroke="none" 
	d="
M344.251221,208.919495 
	C345.219055,209.716385 346.663361,210.318863 347.080200,211.340576 
	C350.796417,220.449097 354.370636,229.616714 357.861542,238.814392 
	C358.230347,239.786087 357.795654,241.062775 357.714874,242.543610 
	C353.108429,242.717163 348.546814,246.529755 344.179108,241.315674 
	C344.027405,240.972809 344.047150,240.953186 344.447754,240.977570 
	C348.021790,240.818542 352.111633,241.726456 354.062988,240.087814 
	C355.485809,238.892975 354.573486,234.217728 353.835419,231.314392 
	C352.746765,227.032120 351.064880,222.867844 349.282806,218.808197 
	C348.364960,216.717316 346.684387,214.961258 346.076050,214.092712 
	C343.639587,216.047379 341.802704,217.521042 339.977539,218.616150 
	C341.409912,215.131577 342.830566,212.025543 344.251221,208.919495 
z"/>
<path fill="#F7D8C7" opacity="1.000000" stroke="none" 
	d="
M344.018127,240.982788 
	C341.666046,235.949417 339.323273,230.906036 337.005310,225.154785 
	C337.356506,223.634003 337.682953,222.821091 338.288666,222.265335 
	C339.432922,225.450226 340.293762,228.379150 341.163879,231.305313 
	C342.120544,234.522598 343.085724,237.737335 344.047150,240.953186 
	C344.047150,240.953186 344.027405,240.972809 344.018127,240.982788 
z"/>
<path fill="#EBC0AD" opacity="1.000000" stroke="none" 
	d="
M338.009369,222.008163 
	C337.682953,222.821091 337.356506,223.634003 337.006744,224.780518 
	C336.544037,225.096588 336.104706,225.079071 335.335510,225.061066 
	C337.824066,219.071808 340.642456,213.083023 343.834320,207.060547 
	C344.197601,207.448639 344.187378,207.870407 344.214172,208.605835 
	C342.830566,212.025543 341.409912,215.131577 339.727844,218.786560 
	C338.980774,220.226379 338.495056,221.117264 338.009369,222.008163 
z"/>
<path fill="#F7D8C7" opacity="1.000000" stroke="none" 
	d="
M288.974518,304.651855 
	C287.344727,302.917969 285.675171,300.841217 283.995941,298.397217 
	C285.635742,300.122986 287.285278,302.215942 288.974518,304.651855 
z"/>
<path fill="#F7D8C7" opacity="1.000000" stroke="none" 
	d="
M293.957397,311.684326 
	C293.321655,311.242157 292.664917,310.479645 292.001587,309.366028 
	C292.642181,309.797913 293.289337,310.580933 293.957397,311.684326 
z"/>
<path fill="#F7D8C7" opacity="1.000000" stroke="none" 
	d="
M283.933899,297.692932 
	C283.339020,297.547089 282.711273,297.081573 282.050751,296.293579 
	C282.645660,296.438538 283.273315,296.905914 283.933899,297.692932 
z"/>
<path fill="#ECAD9A" opacity="1.000000" stroke="none" 
	d="
M187.551559,255.940598 
	C188.005249,258.653076 188.010254,261.365692 187.552673,264.534729 
	C182.724487,265.340973 178.358887,265.690826 173.601593,266.023010 
	C157.310226,266.644409 141.415390,267.595367 125.509644,267.842407 
	C106.284401,268.141052 86.943130,269.371185 68.091614,263.909393 
	C68.077667,260.932648 68.063713,257.955933 68.082779,254.539612 
	C86.458344,261.972504 105.810173,263.194794 125.299934,261.829498 
	C143.947388,260.523132 162.517380,258.115570 181.124603,256.223297 
	C183.106445,256.021759 185.109604,256.029877 187.551559,255.940598 
z"/>
<path fill="#FDD7DB" opacity="1.000000" stroke="none" 
	d="
M67.766556,264.092346 
	C86.943130,269.371185 106.284401,268.141052 125.509644,267.842407 
	C141.415390,267.595367 157.310226,266.644409 173.594330,266.395569 
	C172.018509,267.655792 170.058258,268.525787 168.020981,269.429993 
	C168.233963,270.190918 168.601120,271.502655 168.529099,272.856262 
	C166.601288,272.960388 165.079346,272.843048 163.629013,273.111908 
	C141.583328,277.198517 119.328300,277.480255 96.729332,276.602783 
	C86.290756,273.896698 76.143623,271.451355 65.996498,269.006012 
	C66.478165,267.429108 66.959839,265.852173 67.766556,264.092346 
z"/>
<path fill="#E8B9B4" opacity="1.000000" stroke="none" 
	d="
M65.994118,269.253906 
	C76.143623,271.451355 86.290756,273.896698 96.879608,276.880524 
	C98.201286,277.899353 99.081253,278.379669 99.961227,278.859985 
	C88.267174,278.192322 77.060905,275.562164 66.219368,270.264221 
	C65.987282,269.997498 65.991737,269.501770 65.994118,269.253906 
z"/>
<path fill="#FFFEFE" opacity="1.000000" stroke="none" 
	d="
M58.822884,289.118530 
	C58.994335,289.205048 58.991528,289.378204 58.995743,289.811890 
	C58.884720,289.783356 58.766674,289.494263 58.822884,289.118530 
z"/>
<path fill="#F5D6C2" opacity="1.000000" stroke="none" 
	d="
M209.996002,288.966248 
	C209.553940,288.969360 209.111877,288.972473 208.326370,288.597290 
	C207.172653,287.505646 206.362381,286.792328 205.552109,286.079010 
	C204.701202,287.051849 203.850296,288.024689 202.999390,288.997559 
	C202.999390,288.997559 202.931458,289.024963 202.567291,288.959167 
	C200.466095,285.930206 198.729065,282.967041 197.285034,279.704376 
	C199.378311,279.266907 201.178436,279.012238 202.978973,279.009186 
	C219.384338,278.981567 235.790222,279.053864 252.194412,278.913544 
	C253.813019,278.899689 255.421173,277.662659 257.034180,276.993408 
	C260.363373,277.328949 263.692535,277.664490 267.771942,278.285645 
	C277.393951,278.649994 286.326599,279.371429 295.112244,278.539886 
	C299.594910,278.115631 301.316193,278.944946 301.935547,283.009491 
	C298.277771,287.998535 292.912231,286.918060 287.852844,287.014862 
	C284.750244,287.074249 281.650665,287.291931 277.792908,287.728149 
	C270.022552,288.005859 263.009033,287.993927 255.932617,287.630249 
	C253.014160,284.740509 251.296997,286.138214 249.996750,288.977295 
	C247.298737,288.980927 244.600708,288.984558 241.396759,288.592407 
	C239.424774,287.464752 238.012573,286.263275 236.482727,286.087830 
	C231.619141,285.530182 226.651779,284.745789 221.839737,285.219452 
	C217.807953,285.616302 213.937744,287.654694 209.996002,288.966248 
z"/>
<path fill="#E8BCAA" opacity="1.000000" stroke="none" 
	d="
M301.960571,283.365448 
	C301.316193,278.944946 299.594910,278.115631 295.112244,278.539886 
	C286.326599,279.371429 277.393951,278.649994 268.205322,278.285645 
	C269.440979,277.666412 270.983582,277.104187 272.547577,277.036560 
	C282.075745,276.624481 291.608795,276.324921 301.575653,275.993103 
	C302.736877,279.077209 303.462677,282.156097 304.188477,285.234985 
	C303.709534,285.357971 303.230591,285.480957 302.751648,285.603943 
	C302.496307,284.976410 302.240967,284.348907 301.960571,283.365448 
z"/>
<path fill="#E8BFAC" opacity="1.000000" stroke="none" 
	d="
M326.312622,227.859406 
	C330.150330,218.469727 334.299774,208.931244 338.729492,199.193115 
	C338.029083,202.083511 337.333862,205.302307 336.009766,208.237396 
	C333.047577,214.803482 329.772186,221.228256 326.312622,227.859406 
z"/>
<path fill="#E8C2B0" opacity="1.000000" stroke="none" 
	d="
M255.995499,287.981964 
	C263.009033,287.993927 270.022552,288.005859 277.500488,288.031555 
	C277.709412,288.522003 277.453979,288.998627 277.095459,289.726440 
	C270.299103,289.989258 263.605896,290.000916 256.440948,290.029022 
	C255.176865,289.782227 254.384521,289.519012 253.506729,288.863281 
	C254.279358,288.307861 255.137436,288.144897 255.995499,287.981964 
z"/>
<path fill="#E8BFAC" opacity="1.000000" stroke="none" 
	d="
M339.311035,198.861908 
	C341.147675,193.805740 343.297028,188.599976 345.727051,183.195923 
	C343.879700,188.235870 341.751740,193.474091 339.311035,198.861908 
z"/>
<path fill="#E8BCAA" opacity="1.000000" stroke="none" 
	d="
M302.303589,275.858276 
	C303.796936,272.441467 305.595490,268.871277 307.701447,265.149109 
	C306.208862,268.566406 304.408813,272.135620 302.303589,275.858276 
z"/>
<path fill="#E8BFAC" opacity="1.000000" stroke="none" 
	d="
M348.315186,177.858154 
	C349.124756,175.111877 350.249908,172.213791 351.691467,169.157196 
	C350.882172,171.901230 349.756470,174.803802 348.315186,177.858154 
z"/>
<path fill="#E8BFAC" opacity="1.000000" stroke="none" 
	d="
M320.321350,240.850601 
	C320.816772,238.804092 321.631165,236.601212 322.726807,234.197525 
	C322.218811,236.229218 321.429596,238.461731 320.321350,240.850601 
z"/>
<path fill="#E8BCAA" opacity="1.000000" stroke="none" 
	d="
M314.359436,252.009537 
	C314.816071,250.498199 315.641388,248.933273 316.739075,247.179169 
	C316.250305,248.645325 315.489197,250.300629 314.359436,252.009537 
z"/>
<path fill="#E8BFAC" opacity="1.000000" stroke="none" 
	d="
M346.326294,182.848785 
	C346.482391,181.472076 346.963318,179.935959 347.726410,178.197449 
	C347.556091,179.559845 347.103607,181.124619 346.326294,182.848785 
z"/>
<path fill="#E8BCAA" opacity="1.000000" stroke="none" 
	d="
M310.358734,260.949341 
	C310.486328,259.794495 310.974243,258.578400 311.736023,257.177917 
	C311.579590,258.291718 311.149353,259.589905 310.358734,260.949341 
z"/>
<path fill="#E8BCAA" opacity="1.000000" stroke="none" 
	d="
M317.291779,246.881165 
	C317.435638,246.041046 317.875610,245.067764 318.662781,244.046753 
	C318.535950,244.915359 318.061920,245.831696 317.291779,246.881165 
z"/>
<path fill="#E8BCAA" opacity="1.000000" stroke="none" 
	d="
M319.268860,243.807938 
	C319.154480,243.137558 319.308960,242.264984 319.736206,241.193634 
	C319.851898,241.865143 319.694824,242.735443 319.268860,243.807938 
z"/>
<path fill="#E8BCAA" opacity="1.000000" stroke="none" 
	d="
M308.258606,264.852386 
	C308.169830,264.447815 308.339691,263.886200 308.760193,263.158264 
	C308.846313,263.559723 308.681793,264.127502 308.258606,264.852386 
z"/>
<path fill="#E8BCAA" opacity="1.000000" stroke="none" 
	d="
M309.254364,262.853943 
	C309.165497,262.449036 309.334229,261.884857 309.756226,261.157471 
	C309.843628,261.561066 309.677795,262.127838 309.254364,262.853943 
z"/>
<path fill="#E8BCAA" opacity="1.000000" stroke="none" 
	d="
M312.254883,256.851440 
	C312.169342,256.449463 312.340393,255.887222 312.761658,255.157471 
	C312.845062,255.557037 312.678253,256.124084 312.254883,256.851440 
z"/>
<path fill="#E8BCAA" opacity="1.000000" stroke="none" 
	d="
M313.258118,254.843857 
	C313.171875,254.435669 313.348450,253.856369 313.770264,253.084305 
	C313.850616,253.485291 313.685791,254.079010 313.258118,254.843857 
z"/>
<path fill="#E8BFAC" opacity="1.000000" stroke="none" 
	d="
M325.256897,229.848618 
	C325.167542,229.444885 325.333801,228.882156 325.753906,228.158493 
	C325.842682,228.561569 325.677582,229.125595 325.256897,229.848618 
z"/>
<path fill="#E8BFAC" opacity="1.000000" stroke="none" 
	d="
M323.239136,233.909195 
	C323.206329,233.728348 323.414917,233.448151 323.880371,233.086060 
	C323.918335,233.272736 323.699432,233.541290 323.239136,233.909195 
z"/>
<path fill="#E8BFAC" opacity="1.000000" stroke="none" 
	d="
M325.019989,230.820145 
	C324.892731,230.790329 324.771332,230.486755 324.828857,230.091125 
	C325.013794,230.181503 325.019806,230.363937 325.019989,230.820145 
z"/>
<path fill="#F4A38A" opacity="1.000000" stroke="none" 
	d="
M140.039764,81.934319 
	C145.130417,74.638336 150.221085,67.342346 155.682312,60.387733 
	C154.707260,63.823639 153.361649,66.918175 152.016022,70.012711 
	C152.016022,70.012711 152.000000,70.000000 151.681061,70.126389 
	C150.574677,71.842110 149.787231,73.431450 148.999786,75.020782 
	C148.999786,75.020782 148.996078,74.996567 148.647995,74.995758 
	C147.203964,76.667252 146.108017,78.339561 145.012070,80.011871 
	C145.012070,80.011871 145.000000,80.000000 144.659576,79.990425 
	C142.892685,80.632004 141.466232,81.283157 140.039764,81.934319 
z"/>
<path fill="#D0725C" opacity="1.000000" stroke="none" 
	d="
M152.371613,70.025085 
	C153.361649,66.918175 154.707260,63.823639 156.020569,60.354660 
	C155.988266,59.980217 155.999863,60.000160 156.201004,59.932198 
	C156.255539,59.536629 156.108917,59.209026 155.962296,58.881420 
	C157.693176,56.608887 159.424057,54.336357 161.479980,51.997322 
	C160.420059,58.789093 157.684708,64.970329 152.371613,70.025085 
z"/>
<path fill="#C77566" opacity="1.000000" stroke="none" 
	d="
M136.605438,134.036682 
	C137.101776,134.535370 137.282486,135.087326 137.685806,135.825455 
	C137.961426,140.545197 138.367508,145.114319 137.916138,149.597092 
	C137.695663,151.786850 135.878235,153.815826 134.483505,156.108139 
	C134.244461,155.047821 134.305527,153.796921 134.932220,152.032761 
	C137.338699,146.312088 137.824295,141.143051 135.060532,136.065948 
	C135.470276,135.407272 135.880035,134.748596 136.605438,134.036682 
z"/>
<path fill="#D0725C" opacity="1.000000" stroke="none" 
	d="
M140.020630,82.316170 
	C141.466232,81.283157 142.892685,80.632004 144.666718,79.995956 
	C142.574051,83.634361 140.133789,87.257660 137.368958,90.977486 
	C138.030106,88.282013 139.015808,85.490021 140.020630,82.316170 
z"/>
<path fill="#F5A89D" opacity="1.000000" stroke="none" 
	d="
M135.043549,136.526215 
	C137.824295,141.143051 137.338699,146.312088 135.198120,151.770065 
	C134.941132,147.009247 134.983856,141.997864 135.043549,136.526215 
z"/>
<path fill="#F4A38A" opacity="1.000000" stroke="none" 
	d="
M155.937103,59.160355 
	C156.108917,59.209026 156.255539,59.536629 156.190277,59.929844 
	C155.956253,59.810070 155.934097,59.624680 155.937103,59.160355 
z"/>
<path fill="#F5D6C3" opacity="1.000000" stroke="none" 
	d="
M64.342728,205.923523 
	C64.167061,206.028107 64.076660,205.576996 64.071777,205.347443 
	C64.066887,205.117905 64.534081,205.070770 64.764481,205.115570 
	C64.895370,205.422821 64.736542,205.642349 64.342728,205.923523 
z"/>
<path fill="#EDAB96" opacity="1.000000" stroke="none" 
	d="
M208.946655,151.087662 
	C209.153198,151.604950 209.359741,152.122238 209.780334,152.823792 
	C210.762924,153.992981 211.531448,154.977936 212.646698,156.326569 
	C212.992615,157.112823 212.991821,157.535400 212.977020,158.364639 
	C215.809708,169.849854 218.660736,180.927322 221.501648,192.007370 
	C223.616165,200.254318 225.717621,208.504623 228.095367,217.812195 
	C234.454498,210.262711 240.308365,203.520584 245.834518,196.519745 
	C246.626892,195.515945 246.238098,193.122681 245.709396,191.612839 
	C243.499115,185.300507 242.780594,179.116730 246.511963,172.997406 
	C248.756851,175.183121 250.372238,177.735504 252.627151,179.443649 
	C256.632721,182.477966 261.031158,184.992538 265.254700,187.740768 
	C267.154236,188.976791 269.321075,191.203735 270.957916,188.096008 
	C271.435425,187.189346 269.660828,184.324478 268.238464,183.323532 
	C262.253693,179.111862 256.011475,175.265961 250.148209,171.068146 
	C250.997513,169.834412 251.319077,168.480499 252.172745,167.867096 
	C254.633759,166.098648 257.218903,163.677719 259.936646,163.419052 
	C261.429871,163.276962 263.283264,166.979141 264.985260,168.938492 
	C265.574554,169.616898 266.130127,170.758102 266.814911,170.851242 
	C272.143372,171.576019 274.327728,176.169739 276.593506,179.776443 
	C278.256256,182.423233 277.570221,186.545578 277.718323,190.130402 
	C277.243591,190.471359 277.085510,190.751083 277.012756,191.376511 
	C276.689545,192.119751 276.385071,192.576126 275.730103,193.065720 
	C274.606812,194.444534 273.833954,195.790115 273.017212,197.432022 
	C272.391876,198.188248 271.810455,198.648148 270.868958,199.108337 
	C269.015137,201.095367 267.521362,203.082077 265.867065,205.357468 
	C264.480011,207.101151 263.253510,208.556152 261.673370,210.061218 
	C260.897278,211.110413 260.474854,212.109543 260.017395,213.431381 
	C259.342010,214.841599 258.701599,215.929138 257.817047,217.133820 
	C257.406982,217.563232 257.241089,217.875458 257.110779,218.453888 
	C257.431335,219.147583 257.716278,219.575058 258.063843,220.361984 
	C260.436066,221.659210 262.705933,222.717346 265.067688,223.497055 
	C266.992554,224.132523 268.498566,224.721527 266.973663,227.074463 
	C264.612244,227.025803 262.250824,226.977127 259.393646,226.584534 
	C257.932098,226.158539 256.966339,226.076462 256.000549,225.994385 
	C254.548004,227.202301 252.756790,228.169296 251.698151,229.657425 
	C245.081177,238.959122 238.739044,248.457703 232.046524,257.703339 
	C230.245209,260.191803 227.746307,262.338928 225.164413,264.025513 
	C223.983780,264.796722 221.604385,264.576691 220.148636,263.938934 
	C213.332886,260.952911 209.464630,254.909622 206.508469,248.635239 
	C202.776352,240.713852 200.049454,232.319366 196.869949,224.136353 
	C196.511078,223.212753 196.029510,222.336823 195.322327,221.218307 
	C193.070328,215.323410 190.915985,209.705017 189.175293,203.961288 
	C186.647934,195.621780 184.419098,187.191788 182.257294,178.244385 
	C182.269257,177.132217 182.086914,176.576050 181.904572,176.019897 
	C181.931808,175.574219 181.959045,175.128555 182.364563,174.311508 
	C186.274246,171.520920 188.193512,166.067734 194.381256,167.904907 
	C195.431961,166.992966 196.749252,166.083511 196.691910,165.271057 
	C196.298874,159.700195 199.423141,158.846405 204.043961,158.725250 
	C205.392212,158.689896 206.841675,156.209595 207.922729,154.629639 
	C208.581818,153.666428 208.626175,152.282578 208.946655,151.087662 
z"/>
<path fill="#EBAC99" opacity="1.000000" stroke="none" 
	d="
M182.941040,143.011627 
	C183.412354,141.750366 183.883667,140.489090 184.976913,139.222778 
	C192.008484,142.495483 198.418106,145.773239 204.880707,149.484375 
	C204.933685,151.826538 204.933685,153.735352 204.933685,155.412964 
	C200.506210,156.768021 196.975067,156.992828 194.014038,153.468674 
	C190.290970,149.760834 186.616013,146.386230 182.941040,143.011627 
z"/>
<path fill="#EBAC9A" opacity="1.000000" stroke="none" 
	d="
M182.047089,152.986572 
	C182.005371,150.603455 181.963638,148.220352 182.254318,145.538925 
	C186.374283,148.522842 190.161850,151.805069 194.120880,155.445801 
	C194.177231,159.169632 194.062149,162.534973 193.553772,165.908936 
	C189.039780,165.804626 186.822235,163.873825 185.892014,159.669128 
	C185.362396,157.275238 183.376953,155.203415 182.047089,152.986572 
z"/>
<path fill="#FDCFC8" opacity="1.000000" stroke="none" 
	d="
M181.788284,153.153488 
	C183.376953,155.203415 185.362396,157.275238 185.892014,159.669128 
	C186.822235,163.873825 189.039780,165.804626 193.572021,166.252014 
	C193.992966,167.041748 194.002365,167.497009 194.011765,167.952286 
	C188.193512,166.067734 186.274246,171.520920 182.390167,173.977600 
	C181.710464,173.204742 181.383469,172.394394 181.442810,171.270416 
	C182.605515,170.491852 183.647263,170.209549 184.113892,169.531479 
	C186.593231,165.928696 185.147018,159.393570 181.040863,155.047943 
	C181.203735,154.472092 181.366608,153.896255 181.788284,153.153488 
z"/>
<path fill="#FBCDC7" opacity="1.000000" stroke="none" 
	d="
M204.827744,149.050995 
	C198.418106,145.773239 192.008484,142.495483 185.282654,139.048767 
	C185.417908,138.276337 185.869324,137.672852 186.624283,137.024841 
	C191.704865,139.318344 196.481888,141.656372 201.639191,143.997375 
	C203.664841,145.425140 205.310226,146.849915 206.618286,148.638245 
	C205.796570,149.018204 205.312149,149.034607 204.827744,149.050995 
z"/>
<path fill="#EBB0A2" opacity="1.000000" stroke="none" 
	d="
M181.032364,155.509827 
	C185.147018,159.393570 186.593231,165.928696 184.113892,169.531479 
	C183.647263,170.209549 182.605515,170.491852 181.472351,170.919754 
	C181.084991,165.912384 181.054428,160.942047 181.032364,155.509827 
z"/>
<path fill="#FBCDC7" opacity="1.000000" stroke="none" 
	d="
M193.949417,155.087296 
	C190.161850,151.805069 186.374283,148.522842 182.279572,145.092102 
	C182.140152,144.409378 182.307892,143.875168 182.708344,143.176300 
	C186.616013,146.386230 190.290970,149.760834 193.985291,153.791092 
	C193.986221,154.660248 193.967819,154.873779 193.949417,155.087296 
z"/>
<path fill="#FDCFC8" opacity="1.000000" stroke="none" 
	d="
M181.693588,176.173996 
	C182.086914,176.576050 182.269257,177.132217 182.237335,177.845062 
	C181.842896,177.443863 181.662750,176.885971 181.693588,176.173996 
z"/>
<path fill="#F8E7D6" opacity="1.000000" stroke="none" 
	d="
M258.001221,220.002533 
	C257.716278,219.575058 257.431335,219.147583 257.330414,218.308792 
	C257.696686,217.603882 257.878967,217.310272 258.061218,217.016663 
	C258.701599,215.929138 259.342010,214.841599 260.292908,213.263046 
	C261.077942,211.851730 261.552490,210.931442 262.027008,210.011169 
	C263.253510,208.556152 264.480011,207.101151 266.206848,205.294693 
	C268.214478,202.998184 269.721741,201.053116 271.229034,199.108032 
	C271.810455,198.648148 272.391876,198.188248 273.340637,197.336975 
	C274.498810,195.641235 275.289703,194.336868 276.080566,193.032501 
	C276.385071,192.576126 276.689545,192.119751 277.225250,191.253784 
	C277.723022,190.627884 277.881165,190.349945 277.930969,190.010330 
	C277.570221,186.545578 278.256256,182.423233 276.593506,179.776443 
	C274.327728,176.169739 272.143372,171.576019 266.814911,170.851242 
	C266.130127,170.758102 265.574554,169.616898 264.985260,168.938492 
	C263.283264,166.979141 261.429871,163.276962 259.936646,163.419052 
	C257.218903,163.677719 254.633759,166.098648 252.172745,167.867096 
	C251.319077,168.480499 250.997513,169.834412 249.778198,170.973358 
	C248.109955,171.032700 247.096436,170.968781 246.010223,170.744339 
	C245.803818,170.564392 245.670105,170.544983 245.536377,170.525574 
	C245.640915,170.731125 245.745453,170.936691 245.825089,171.457886 
	C245.923660,172.176926 246.047119,172.580338 246.170578,172.983749 
	C242.780594,179.116730 243.499115,185.300507 245.709396,191.612839 
	C246.238098,193.122681 246.626892,195.515945 245.834518,196.519745 
	C240.308365,203.520584 234.454498,210.262711 228.095367,217.812195 
	C225.717621,208.504623 223.616165,200.254318 221.501648,192.007370 
	C218.660736,180.927322 215.809708,169.849854 213.359558,158.426697 
	C218.288864,159.612778 222.783279,161.275757 227.373932,162.606842 
	C229.129715,163.115952 231.105621,162.865860 233.354126,162.932129 
	C236.817764,161.663132 239.908478,160.423737 242.999191,159.184326 
	C249.544952,158.460037 256.115387,156.978531 262.630646,157.190674 
	C272.168518,157.501221 281.666901,159.025467 291.625977,160.045761 
	C293.168915,160.375107 294.267944,160.691162 295.698059,161.391876 
	C286.912628,182.163132 277.796143,202.549744 268.735443,222.811584 
	C264.698395,221.755127 261.349823,220.878830 258.001221,220.002533 
M239.288834,167.944199 
	C241.702103,167.412537 244.115387,166.880859 246.528656,166.349182 
	C246.430450,165.904617 246.332245,165.460037 246.234039,165.015472 
	C241.337784,165.811035 236.441544,166.606613 231.545288,167.402176 
	C231.611481,167.834167 231.677673,168.266159 231.743866,168.698151 
	C233.972229,168.460052 236.200592,168.221939 239.288834,167.944199 
z"/>
<path fill="#EAB09C" opacity="1.000000" stroke="none" 
	d="
M258.063843,220.361984 
	C261.349823,220.878830 264.698395,221.755127 268.735443,222.811584 
	C277.796143,202.549744 286.912628,182.163132 296.049194,161.394958 
	C299.115234,161.327454 298.881012,163.110687 298.050690,165.276505 
	C293.973450,175.911285 290.191162,186.668533 285.790344,197.166901 
	C282.339630,205.398727 278.273682,213.385361 274.196045,221.334717 
	C272.785339,224.084946 271.709839,227.724686 267.190094,227.302948 
	C268.498566,224.721527 266.992554,224.132523 265.067688,223.497055 
	C262.705933,222.717346 260.436066,221.659210 258.063843,220.361984 
z"/>
<path fill="#E9B4A9" opacity="1.000000" stroke="none" 
	d="
M100.433319,278.900513 
	C99.081253,278.379669 98.201286,277.899353 97.171051,277.141296 
	C119.328300,277.480255 141.583328,277.198517 163.629013,273.111908 
	C165.079346,272.843048 166.601288,272.960388 168.903076,272.755920 
	C174.244049,271.720093 178.813614,270.991089 183.280945,269.858856 
	C185.315247,269.343231 187.147522,268.030457 189.071426,267.079254 
	C189.696793,268.179413 190.322174,269.279602 190.969604,270.708740 
	C185.493378,272.028503 179.945618,272.803101 174.505264,274.047302 
	C150.222931,279.600555 125.573814,279.356171 100.433319,278.900513 
z"/>
<path fill="#F1BFB0" opacity="1.000000" stroke="none" 
	d="
M256.561981,276.994415 
	C255.421173,277.662659 253.813019,278.899689 252.194412,278.913544 
	C235.790222,279.053864 219.384338,278.981567 202.978973,279.009186 
	C201.178436,279.012238 199.378311,279.266907 197.024307,279.497925 
	C196.311722,278.729736 196.152832,277.868530 195.993958,277.007294 
	C216.025894,277.003357 236.057831,276.999390 256.561981,276.994415 
z"/>
<path fill="#E9B4A9" opacity="1.000000" stroke="none" 
	d="
M195.724976,276.819336 
	C196.152832,277.868530 196.311722,278.729736 196.731323,279.797424 
	C198.729065,282.967041 200.466095,285.930206 202.531967,288.968933 
	C204.790604,294.805389 206.746017,300.557953 208.622574,306.336182 
	C208.904572,307.204529 208.817719,308.192719 208.327805,309.289673 
	C202.542480,296.777557 196.757156,284.265472 190.968124,271.375061 
	C192.461624,272.874969 193.958817,274.753174 195.724976,276.819336 
z"/>
<path fill="#FCD4D2" opacity="1.000000" stroke="none" 
	d="
M188.949707,266.808350 
	C187.147522,268.030457 185.315247,269.343231 183.280945,269.858856 
	C178.813614,270.991089 174.244049,271.720093 169.342255,272.714050 
	C168.601120,271.502655 168.233963,270.190918 168.020981,269.429993 
	C170.058258,268.525787 172.018509,267.655792 173.986038,266.413239 
	C178.358887,265.690826 182.724487,265.340973 187.540344,264.984131 
	C188.269745,265.497284 188.548874,266.017365 188.949707,266.808350 
z"/>
<path fill="#EAB09C" opacity="1.000000" stroke="none" 
	d="
M256.293030,226.124054 
	C256.966339,226.076462 257.932098,226.158539 258.952515,226.548035 
	C258.199921,226.654877 257.392700,226.454300 256.293030,226.124054 
z"/>
<path fill="#D0725C" opacity="1.000000" stroke="none" 
	d="
M145.324646,79.895874 
	C146.108017,78.339561 147.203964,76.667252 148.660217,74.996597 
	C147.892746,76.592125 146.764984,78.186005 145.324646,79.895874 
z"/>
<path fill="#D0725C" opacity="1.000000" stroke="none" 
	d="
M149.315063,74.879974 
	C149.787231,73.431450 150.574677,71.842110 151.688141,70.132843 
	C151.219543,71.588326 150.424942,73.163742 149.315063,74.879974 
z"/>
<path fill="#E9B4A3" opacity="1.000000" stroke="none" 
	d="
M232.981232,162.961731 
	C231.105621,162.865860 229.129715,163.115952 227.373932,162.606842 
	C222.783279,161.275757 218.288864,159.612778 213.373566,158.020050 
	C212.991821,157.535400 212.992615,157.112823 212.986542,156.373932 
	C219.414978,157.995880 225.850281,159.934097 232.640518,162.156799 
	C232.990707,162.614761 232.985977,162.788254 232.981232,162.961731 
z"/>
<path fill="#EEC4B1" opacity="1.000000" stroke="none" 
	d="
M233.354126,162.932129 
	C232.985977,162.788254 232.990707,162.614761 233.002350,162.180084 
	C236.202606,160.457840 239.395966,158.996780 242.797104,157.772156 
	C243.004257,158.203888 243.003616,158.399200 243.001099,158.889420 
	C239.908478,160.423737 236.817764,161.663132 233.354126,162.932129 
z"/>
<path fill="#FDD5D4" opacity="1.000000" stroke="none" 
	d="
M194.120880,155.445801 
	C193.967819,154.873779 193.986221,154.660248 194.033401,154.124313 
	C196.975067,156.992828 200.506210,156.768021 204.933685,155.412964 
	C204.933685,153.735352 204.933685,151.826538 204.880707,149.484375 
	C205.312149,149.034607 205.796570,149.018204 206.643005,148.999359 
	C207.638428,149.473419 208.271805,149.949936 208.925903,150.757050 
	C208.626175,152.282578 208.581818,153.666428 207.922729,154.629639 
	C206.841675,156.209595 205.392212,158.689896 204.043961,158.725250 
	C199.423141,158.846405 196.298874,159.700195 196.691910,165.271057 
	C196.749252,166.083511 195.431961,166.992966 194.381256,167.904907 
	C194.002365,167.497009 193.992966,167.041748 193.965317,166.243378 
	C194.062149,162.534973 194.177231,159.169632 194.120880,155.445801 
z"/>
<path fill="#F7D8C7" opacity="1.000000" stroke="none" 
	d="
M210.464890,288.977295 
	C213.937744,287.654694 217.807953,285.616302 221.839737,285.219452 
	C226.651779,284.745789 231.619141,285.530182 236.482727,286.087830 
	C238.012573,286.263275 239.424774,287.464752 240.947144,288.586456 
	C230.980240,288.980286 220.957016,288.984283 210.464890,288.977295 
z"/>
<path fill="#F7D8C7" opacity="1.000000" stroke="none" 
	d="
M203.416565,288.995422 
	C203.850296,288.024689 204.701202,287.051849 205.552109,286.079010 
	C206.362381,286.792328 207.172653,287.505646 207.994843,288.591858 
	C206.615753,288.974243 205.224731,288.983765 203.416565,288.995422 
z"/>
<path fill="#F7D8C7" opacity="1.000000" stroke="none" 
	d="
M255.932617,287.630249 
	C255.137436,288.144897 254.279358,288.307861 253.217560,288.731628 
	C252.259415,288.992767 251.505020,288.993011 250.373688,288.985291 
	C251.296997,286.138214 253.014160,284.740509 255.932617,287.630249 
z"/>
<path fill="#F5D6C2" opacity="1.000000" stroke="none" 
	d="
M338.288666,222.265335 
	C338.495056,221.117264 338.980774,220.226379 339.716125,219.165085 
	C341.802704,217.521042 343.639587,216.047379 346.076050,214.092712 
	C346.684387,214.961258 348.364960,216.717316 349.282806,218.808197 
	C351.064880,222.867844 352.746765,227.032120 353.835419,231.314392 
	C354.573486,234.217728 355.485809,238.892975 354.062988,240.087814 
	C352.111633,241.726456 348.021790,240.818542 344.447754,240.977570 
	C343.085724,237.737335 342.120544,234.522598 341.163879,231.305313 
	C340.293762,228.379150 339.432922,225.450226 338.288666,222.265335 
z"/>
<path fill="#D16A55" opacity="1.000000" stroke="none" 
	d="
M246.082916,170.904846 
	C247.096436,170.968781 248.109955,171.032700 249.493484,171.191406 
	C256.011475,175.265961 262.253693,179.111862 268.238464,183.323532 
	C269.660828,184.324478 271.435425,187.189346 270.957916,188.096008 
	C269.321075,191.203735 267.154236,188.976791 265.254700,187.740768 
	C261.031158,184.992538 256.632721,182.477966 252.627151,179.443649 
	C250.372238,177.735504 248.756851,175.183121 246.511963,172.997406 
	C246.047119,172.580338 245.923660,172.176926 245.884521,171.399704 
	C245.968826,171.025894 246.082916,170.904846 246.082916,170.904846 
z"/>
<path fill="#EAB09C" opacity="1.000000" stroke="none" 
	d="
M270.868958,199.108337 
	C269.721741,201.053116 268.214478,202.998184 266.367371,205.006012 
	C267.521362,203.082077 269.015137,201.095367 270.868958,199.108337 
z"/>
<path fill="#EAB09C" opacity="1.000000" stroke="none" 
	d="
M275.730103,193.065720 
	C275.289703,194.336868 274.498810,195.641235 273.384521,197.040649 
	C273.833954,195.790115 274.606812,194.444534 275.730103,193.065720 
z"/>
<path fill="#EAB09C" opacity="1.000000" stroke="none" 
	d="
M261.673370,210.061218 
	C261.552490,210.931442 261.077942,211.851730 260.327881,212.940353 
	C260.474854,212.109543 260.897278,211.110413 261.673370,210.061218 
z"/>
<path fill="#EAB09C" opacity="1.000000" stroke="none" 
	d="
M257.817047,217.133820 
	C257.878967,217.310272 257.696686,217.603882 257.294800,218.042587 
	C257.241089,217.875458 257.406982,217.563232 257.817047,217.133820 
z"/>
<path fill="#EAB09C" opacity="1.000000" stroke="none" 
	d="
M277.718292,190.130402 
	C277.881165,190.349945 277.723022,190.627884 277.243958,190.966888 
	C277.085510,190.751083 277.243591,190.471359 277.718292,190.130402 
z"/>
<path fill="#EAD3C5" opacity="1.000000" stroke="none" 
	d="
M238.858887,167.964020 
	C236.200592,168.221939 233.972229,168.460052 231.743866,168.698151 
	C231.677673,168.266159 231.611481,167.834167 231.545288,167.402176 
	C236.441544,166.606613 241.337784,165.811035 246.234039,165.015472 
	C246.332245,165.460037 246.430450,165.904617 246.528656,166.349182 
	C244.115387,166.880859 241.702103,167.412537 238.858887,167.964020 
z"/>
<path fill="#D16A55" opacity="1.000000" stroke="none" 
	d="
M245.909393,171.084076 
	C245.745453,170.936691 245.640915,170.731125 245.536377,170.525574 
	C245.670105,170.544983 245.803818,170.564392 246.010223,170.744324 
	C246.082916,170.904846 245.968826,171.025894 245.909393,171.084076 
z"/>
</svg>
