<svg version="1.1" id="Layer_1" xmlns="http://www.w3.org/2000/svg" xmlns:xlink="http://www.w3.org/1999/xlink" x="0px" y="0px"
	 width="100%" viewBox="0 0 352 272" enable-background="new 0 0 352 272" xml:space="preserve">
<path fill="#000000" opacity="1.000000" stroke="none" 
	d="
M353.000000,14.545885 
	C341.076782,24.036358 329.109314,33.015064 317.243134,42.125652 
	C305.843903,50.877716 293.359070,57.832420 280.752899,64.612015 
	C277.227631,66.507904 274.125580,69.014343 270.989197,71.502930 
	C266.789948,74.834923 264.133759,74.276848 262.017303,69.380257 
	C259.728790,64.085625 258.039032,58.532196 255.978027,52.784657 
	C248.891937,55.278080 242.079987,57.675034 235.312439,60.056366 
	C233.223114,57.488159 234.598648,55.286720 235.333984,53.224766 
	C237.900772,46.027340 240.695847,38.934372 242.623657,31.494083 
	C243.866852,26.695999 242.882935,23.982117 238.568680,21.345976 
	C231.205673,16.846937 224.301926,11.596267 217.205811,6.660520 
	C216.377350,6.084274 215.582962,5.481132 215.543427,4.213949 
	C216.434006,2.077549 219.064377,2.786424 220.742889,1.218493 
	C233.354233,1.000000 245.708450,1.000000 258.899139,1.169953 
	C260.881409,1.500877 262.022461,1.745420 263.173706,1.810487 
	C286.346039,3.120171 309.513702,4.533875 332.696503,5.624649 
	C339.443329,5.942093 346.274750,6.500623 353.000000,5.000000 
	C353.000000,8.030593 353.000000,11.061187 353.000000,14.545885 
M292.520691,54.988869 
	C310.745972,44.569992 326.802765,31.202032 343.027985,17.867226 
	C313.878296,25.821201 285.723663,36.483017 256.504150,44.879269 
	C260.169464,53.806782 262.010529,62.461586 266.926086,70.561005 
	C274.896912,64.384514 283.428284,59.934448 292.520691,54.988869 
M317.662170,22.080109 
	C328.160858,19.016815 338.464264,15.426132 349.270355,11.143074 
	C344.161255,9.584629 340.122131,11.305610 335.983246,11.389131 
	C324.337769,11.624131 312.824341,13.442922 301.265198,14.673859 
	C284.174011,16.493904 267.659271,21.238565 250.935394,24.916491 
	C249.621384,25.205467 248.061066,25.344551 247.635178,26.797335 
	C245.418060,34.360161 243.327164,41.959984 241.150620,49.695198 
	C265.528564,36.858589 291.982971,31.701702 317.662170,22.080109 
M299.785248,11.928311 
	C307.566711,11.064115 315.348175,10.199917 323.129639,9.335720 
	C310.494141,7.476260 297.918976,6.770290 285.345459,6.036195 
	C266.610626,4.942376 247.920044,2.874165 229.108734,3.483243 
	C226.640213,3.563170 224.345306,4.198321 222.125961,5.652600 
	C226.645279,9.175951 230.940567,12.291653 234.971664,15.718152 
	C242.299988,21.947342 250.208344,23.595505 259.526245,20.590515 
	C272.341614,16.457602 285.566711,13.919875 299.785248,11.928311 
M247.096146,50.552532 
	C245.848038,51.614307 244.599915,52.676083 242.382416,54.562511 
	C245.478119,53.551235 247.281006,53.127617 248.936249,52.377968 
	C250.828644,51.520912 253.360977,51.532799 254.243317,49.141243 
	C254.542404,48.330624 253.920654,47.331245 253.079697,47.191620 
	C250.582108,46.776913 249.324905,48.927280 247.096146,50.552532 
z"/>
<path fill="#000000" opacity="1.000000" stroke="none" 
	d="
M141.416656,273.000000 
	C138.942123,258.688385 145.647430,248.305923 156.039505,239.619186 
	C158.118393,237.881454 160.697968,237.112427 163.293457,236.409729 
	C169.886200,234.624817 176.052734,238.993057 183.403687,236.256531 
	C183.287781,227.734360 183.659668,217.793549 176.727966,209.509567 
	C173.718002,205.912384 169.502609,204.959991 164.915894,205.643082 
	C161.490112,206.153275 158.062485,206.850998 154.702911,205.924866 
	C154.076767,203.839294 155.221451,203.054108 156.602783,202.913956 
	C161.064224,202.461319 165.565247,201.753891 170.013535,201.958755 
	C177.889313,202.321518 182.770493,206.976898 185.410217,214.203842 
	C188.199219,221.839386 188.607788,229.854279 188.913330,237.832077 
	C189.352921,249.310303 189.281281,260.810364 190.884506,272.615387 
	C188.629440,273.000000 186.258896,273.000000 183.320557,272.605713 
	C181.078354,264.775543 181.214966,257.009613 178.788818,249.680420 
	C177.772354,257.623779 175.966995,265.328064 174.000000,273.000000 
	C172.611115,273.000000 171.222214,273.000000 169.469788,272.628326 
	C171.785202,263.855713 173.587265,255.338669 173.846237,246.446030 
	C173.989685,241.520432 171.423996,239.920563 167.413177,239.424088 
	C163.722595,238.967255 160.468536,240.401398 157.920471,242.941895 
	C149.626740,251.210968 143.768890,260.522614 146.000000,273.000000 
	C144.611115,273.000000 143.222214,273.000000 141.416656,273.000000 
z"/>
<path fill="#000000" opacity="1.000000" stroke="none" 
	d="
M1.000000,138.466125 
	C3.217556,135.514252 4.819890,132.489548 7.791636,130.243347 
	C7.998328,130.003265 7.974919,130.026550 7.974919,130.026550 
	C17.349707,127.973091 26.473396,127.810959 34.762802,133.672760 
	C36.114834,134.628830 37.472031,135.613571 38.663063,136.755829 
	C51.249401,148.826782 47.509842,164.869186 30.838596,169.994781 
	C26.325901,171.382217 21.728247,171.660126 19.367718,177.197998 
	C18.257860,179.801743 14.206936,181.065811 10.535140,181.657089 
	C8.987103,176.673950 4.973420,172.302826 9.091667,166.858490 
	C10.006302,165.649323 9.133838,164.328720 8.007501,163.398193 
	C4.832678,160.775299 3.020634,157.229599 1.188224,153.286011 
	C1.000000,148.310745 1.000000,143.621490 1.000000,138.466125 
M31.357056,166.989243 
	C45.806152,160.729294 47.524216,146.862442 35.023937,137.304749 
	C31.388689,134.525238 27.263266,132.940536 22.789583,131.962906 
	C14.121948,130.068756 7.096219,132.674393 4.486718,139.030563 
	C1.364310,146.636063 4.891593,158.438980 11.440125,162.185944 
	C12.553466,162.822998 13.725415,163.867294 15.087739,162.831711 
	C16.404751,161.830582 16.830883,160.317459 16.397738,158.794083 
	C15.716392,156.397781 14.652549,154.107651 14.012144,151.702927 
	C13.129968,148.390366 13.655128,145.271729 16.746901,143.322556 
	C20.141224,141.182648 25.944313,142.620529 29.010054,146.096634 
	C31.599531,149.032745 30.061413,151.792648 28.329596,154.247314 
	C25.607140,158.106110 22.631142,161.794067 18.889582,164.564713 
	C22.186831,169.524887 26.337511,168.762924 31.357056,166.989243 
M18.210464,153.603622 
	C18.778034,155.305679 18.937094,157.186798 20.508484,158.777908 
	C22.770325,156.559433 24.972401,154.440094 26.443426,151.333466 
	C24.664970,151.337402 23.341291,151.669632 21.864727,150.887619 
	C20.132330,149.970123 18.152891,150.072235 18.210464,153.603622 
z"/>
<path fill="#000000" opacity="1.000000" stroke="none" 
	d="
M213.444168,273.000000 
	C208.796432,270.714996 203.892197,269.607300 200.672592,265.669250 
	C199.852676,264.666382 198.501495,263.672546 199.643646,262.251038 
	C200.853500,260.745270 202.512268,260.636627 204.092850,261.773773 
	C205.170624,262.549133 206.129715,263.488007 207.156006,264.336670 
	C211.209351,267.688354 215.851501,269.152924 221.093887,268.613495 
	C229.816391,267.715912 235.047455,259.170715 231.681656,251.077286 
	C228.969711,244.556091 223.993271,239.903305 218.424057,235.788727 
	C214.676453,233.019943 210.821304,230.349701 207.365372,227.244614 
	C202.690277,223.044113 198.382660,218.227081 200.546478,211.266357 
	C202.795547,204.031342 209.152481,202.014832 215.790085,200.971130 
	C222.262772,199.953339 230.981155,203.816727 234.707458,209.268036 
	C232.879257,211.970642 230.776627,211.418503 228.506516,209.805405 
	C224.469559,206.936813 220.042328,205.199402 215.019440,205.204132 
	C207.460983,205.211258 204.115479,210.058563 206.751160,217.231155 
	C208.076263,220.837189 210.775177,223.296753 213.795776,225.455734 
	C218.811356,229.040649 223.939621,232.490082 228.391571,236.785416 
	C230.423691,238.746033 232.436005,240.789627 234.102127,243.056610 
	C242.313034,254.228729 239.122498,265.609039 226.343597,271.023468 
	C224.813202,271.671936 223.202591,272.131042 221.314575,272.838959 
	C218.629440,273.000000 216.258896,273.000000 213.444168,273.000000 
z"/>
<path fill="#000000" opacity="1.000000" stroke="none" 
	d="
M43.264420,197.990723 
	C51.704952,195.553619 57.052563,200.199097 61.807270,205.471069 
	C65.931549,210.044022 69.076065,215.392242 71.798981,220.957962 
	C72.570854,222.535690 72.883461,224.475006 75.021912,225.748215 
	C77.194160,218.393250 77.830917,210.968246 78.641243,203.619293 
	C80.770515,184.308716 82.756927,164.980118 83.832191,145.572388 
	C83.886787,144.586929 84.175537,143.608124 84.413734,142.640610 
	C84.795891,141.088348 85.464737,139.623169 87.385895,140.018280 
	C89.299950,140.411926 89.309662,142.146805 89.193810,143.640671 
	C88.847000,148.112656 88.304260,152.570038 87.988609,157.043747 
	C86.079933,184.095245 82.838638,211.002151 79.311913,237.879349 
	C79.026474,240.054642 79.335228,242.175507 79.976860,244.285172 
	C82.139923,251.397339 82.306198,258.721313 82.036125,266.062042 
	C81.942680,268.602051 81.501877,271.510498 78.435959,271.873535 
	C75.413498,272.231476 74.370850,269.542938 73.486450,267.127502 
	C71.973190,262.994476 73.269608,258.560333 72.385628,254.129883 
	C66.022835,254.865356 60.033615,256.173645 53.836655,255.502808 
	C35.992970,253.571182 28.152609,244.923782 28.965460,227.237320 
	C29.294558,220.076599 30.427711,212.996796 34.045635,206.571823 
	C36.148827,202.836838 38.890903,199.827621 43.264420,197.990723 
M67.963531,224.523193 
	C64.318924,216.808899 60.293026,209.341309 53.222149,204.137222 
	C47.080162,199.616760 43.667454,200.227951 39.731895,206.588379 
	C34.322891,215.330078 32.853760,224.962921 34.685455,234.899887 
	C36.680916,245.725266 43.980602,251.573135 54.915310,251.948166 
	C57.738140,252.044968 60.568993,252.031601 63.392853,251.951843 
	C72.118088,251.705368 75.630661,246.858047 73.048416,238.324371 
	C71.703499,233.879715 69.897644,229.574539 67.963531,224.523193 
z"/>
<path fill="#000000" opacity="1.000000" stroke="none" 
	d="
M100.011322,252.874435 
	C104.964577,261.880371 113.085815,264.668854 122.202614,265.724915 
	C126.032272,266.168518 130.087509,265.196777 133.665665,267.010864 
	C133.518295,268.793701 132.594070,269.164062 131.564209,269.228027 
	C122.637138,269.782471 113.847061,269.033234 105.755623,264.967194 
	C96.525475,260.328918 92.635048,252.082520 91.810417,242.218597 
	C91.266640,235.714005 92.456169,229.362213 93.497154,222.915543 
	C95.222656,212.229904 101.872650,205.804047 110.594749,201.228348 
	C118.415215,197.125641 126.373161,200.262009 130.336700,208.133133 
	C133.321121,214.059875 133.705566,220.244492 131.618210,226.537247 
	C127.180733,239.914841 112.947311,243.607468 102.538773,234.072479 
	C100.967567,232.633163 99.597733,230.974030 97.828957,229.091034 
	C95.346115,237.465942 96.486908,245.093994 100.011322,252.874435 
M99.903824,221.953629 
	C104.225563,231.309998 112.445969,237.206741 118.598694,235.364014 
	C125.268021,233.366577 129.307068,224.148254 127.587189,214.778259 
	C127.409309,213.809158 127.111870,212.847305 126.751160,211.928711 
	C122.880333,202.071335 114.126526,200.257401 106.877220,207.941544 
	C103.330231,211.701263 100.544182,216.002762 99.903824,221.953629 
z"/>
<path fill="#000000" opacity="1.000000" stroke="none" 
	d="
M212.091354,97.706223 
	C211.599167,99.284874 210.911057,100.478264 211.414200,102.219612 
	C214.956192,100.474854 218.737595,97.801033 221.856033,102.518692 
	C224.604324,106.676407 223.026978,110.604691 220.395706,114.057571 
	C216.862366,118.694229 212.655197,117.368759 208.009674,114.132591 
	C202.578735,129.063004 196.922775,143.335434 200.353882,159.013535 
	C197.899673,159.741241 197.248199,158.794800 197.037949,157.547913 
	C196.098404,151.976044 195.054031,146.476624 196.587036,140.744644 
	C199.252640,130.777710 201.241119,120.611214 205.900787,111.287804 
	C206.935181,109.218086 206.387817,107.020393 206.779358,104.919876 
	C209.506622,90.288742 217.355438,78.514191 227.491562,68.037338 
	C228.096909,67.411621 228.882706,67.154785 230.694702,68.082932 
	C223.341522,77.194290 215.647171,86.030807 212.091354,97.706223 
M214.700577,113.628700 
	C218.947906,113.269257 219.474045,110.127304 219.680328,106.841942 
	C219.777206,105.299194 218.997131,104.347031 217.316071,104.284462 
	C214.318726,104.172905 212.241470,105.359352 211.093201,108.238983 
	C209.882019,111.276329 211.680725,112.503647 214.700577,113.628700 
z"/>
<path fill="#000000" opacity="1.000000" stroke="none" 
	d="
M11.991760,191.529053 
	C15.197977,189.529739 16.871634,190.677383 16.570410,193.820831 
	C15.177785,208.353592 17.879625,222.654251 18.760511,237.055527 
	C19.237486,244.853424 19.735609,252.650177 20.170313,260.450439 
	C20.274792,262.325195 20.159081,264.484772 17.784117,264.710815 
	C15.151607,264.961365 15.146077,262.540894 15.024506,260.832428 
	C13.574902,240.460541 12.177280,220.084778 10.853043,199.704376 
	C10.682219,197.075348 10.593770,194.364960 11.991760,191.529053 
z"/>
<path fill="#000000" opacity="1.000000" stroke="none" 
	d="
M8.010704,129.992615 
	C3.342952,128.992310 2.899550,125.436966 2.785462,121.672966 
	C5.866948,123.336823 7.232879,126.109024 7.981046,129.654495 
	C7.974919,130.026550 7.998328,130.003265 8.010704,129.992615 
z"/>
<path fill="#000000" opacity="1.000000" stroke="none" 
	d="
M26.467134,126.562180 
	C23.558889,125.032814 23.819033,122.669807 27.321550,119.056046 
	C29.112772,121.772675 27.183832,124.012749 26.467134,126.562180 
z"/>
</svg>
