<svg version="1.1" id="Layer_1" xmlns="http://www.w3.org/2000/svg" xmlns:xlink="http://www.w3.org/1999/xlink" x="0px" y="0px"
	 width="100%" viewBox="0 0 270 301" enable-background="new 0 0 270 301" xml:space="preserve">
<path fill="#FFFFFF" opacity="1.000000" stroke="none" 
	d="
M1.000000,217.000000 
	C1.000000,145.106537 1.000000,73.213081 1.000000,1.000000 
	C27.353367,1.000000 53.708023,1.000000 80.532364,1.414581 
	C82.672562,14.860358 80.398331,26.697741 70.241623,35.869400 
	C74.720093,40.888489 73.306564,46.395340 67.383438,48.844959 
	C67.152565,51.206245 67.050980,53.571075 66.669464,55.889847 
	C65.664764,61.996239 64.522346,68.080017 63.535255,74.189034 
	C63.504471,74.379585 64.579109,74.748741 65.126205,75.365784 
	C64.799583,76.486343 64.485146,77.275749 63.788635,78.075203 
	C61.328362,79.285919 57.766777,80.185104 57.449982,81.743774 
	C56.497894,86.428215 54.201466,90.252396 52.372292,94.458008 
	C49.504307,101.052025 49.399353,108.829018 47.925377,116.064491 
	C47.642456,117.453285 46.756073,119.231430 45.616096,119.850761 
	C37.816353,124.088295 35.720963,128.017242 36.853493,136.486984 
	C37.059841,138.030182 36.378082,139.704544 36.043297,141.305191 
	C35.236019,145.164841 34.298489,149.001343 33.656349,152.887314 
	C33.553188,153.511597 34.701687,154.342712 35.247536,155.436432 
	C34.868786,156.883728 34.514080,157.972794 33.748367,159.046234 
	C29.703318,159.936539 26.069279,160.842453 21.733242,161.923386 
	C22.438910,163.744156 22.967354,165.571213 23.825508,167.227432 
	C25.738173,170.918854 24.724331,174.296722 21.041742,176.131363 
	C20.022997,176.638901 18.400192,177.186447 18.237791,177.963074 
	C16.886328,184.425888 12.835902,190.378296 14.518956,197.463455 
	C14.740935,198.397919 13.852613,200.501419 13.274950,200.580719 
	C7.376839,201.390472 8.265503,206.179077 8.132339,209.783051 
	C7.948317,214.763535 6.173144,217.345352 1.000000,217.000000 
M51.719643,82.922096 
	C50.874039,83.051346 50.028435,83.180603 49.182831,83.309860 
	C49.491364,84.107048 49.799896,84.904243 50.108429,85.701431 
	C50.708786,85.012299 51.309147,84.323158 51.719643,82.922096 
z"/>
<path fill="#FFFFFF" opacity="1.000000" stroke="none" 
	d="
M271.000000,82.000000 
	C271.000000,155.225189 271.000000,228.450378 271.000000,302.000000 
	C245.646698,302.000000 220.292007,302.000000 194.469177,301.607086 
	C195.221848,295.412384 197.007004,290.079620 203.471909,287.927765 
	C204.750443,287.502167 205.723953,286.160187 206.838120,285.240814 
	C205.558792,284.770660 204.220566,284.414856 203.018066,283.795532 
	C201.982437,283.262146 201.101501,282.428436 200.152161,281.727478 
	C200.949081,280.858032 201.923981,279.128540 202.515656,279.250977 
	C209.052307,280.603760 208.273712,275.069397 207.726593,272.468201 
	C206.531906,266.788300 208.976135,262.173828 210.426834,257.244873 
	C211.183868,254.672729 211.984070,251.579681 213.842850,249.956161 
	C222.731720,242.192261 223.928894,238.790070 220.269180,228.063126 
	C226.743362,224.242172 227.477448,222.080475 224.409302,215.841080 
	C223.896194,214.797607 223.359039,213.765991 222.823853,212.398911 
	C223.168045,211.044113 223.521378,210.019302 224.256027,208.992920 
	C225.672882,208.564880 227.147186,208.437027 227.673370,207.663910 
	C231.326004,202.297226 234.845779,196.835556 238.224915,191.292664 
	C238.683563,190.540329 237.936569,189.142746 238.067642,188.083511 
	C238.410110,185.316406 238.873169,182.560471 239.394608,179.820328 
	C239.942596,176.940781 240.725632,174.103287 241.206223,171.214188 
	C241.975067,166.592331 241.569702,161.454239 243.516876,157.433228 
	C245.778000,152.763947 250.165970,149.156937 253.349930,144.879776 
	C254.159409,143.792389 254.527405,141.650162 254.019836,140.447952 
	C252.631683,137.160110 250.668793,134.114929 248.935333,130.729034 
	C248.937149,130.484406 249.006134,130.000031 249.400543,129.999451 
	C251.807892,128.936813 255.140625,128.262665 255.587967,126.740524 
	C256.968140,122.044319 257.430634,117.039429 257.831787,112.120369 
	C257.939667,110.797714 256.559814,109.353722 255.895218,107.647881 
	C256.264191,106.553543 256.600830,105.776764 257.295166,104.966415 
	C261.353058,100.844200 267.192535,98.227783 265.183685,90.687271 
	C263.848206,85.674263 266.592102,82.496170 271.000000,82.000000 
z"/>
<path fill="#FEFEFE" opacity="1.000000" stroke="none" 
	d="
M177.000000,302.000000 
	C118.445122,302.000000 59.890240,302.000000 1.000000,302.000000 
	C1.000000,284.313843 1.000000,266.625580 1.424426,248.468658 
	C3.936020,247.599503 6.023189,247.199020 8.450261,246.814484 
	C9.859882,247.168259 10.929600,247.506104 12.030306,248.216583 
	C15.338215,253.895767 17.372908,254.397690 21.460823,250.878571 
	C27.554176,252.649521 33.288982,254.294724 38.981537,256.075012 
	C57.482380,261.860992 75.959343,267.723358 94.461815,273.504120 
	C108.710457,277.955780 122.981522,282.335754 137.246628,286.734619 
	C150.498871,290.821167 163.756424,294.890503 177.007675,299.346710 
	C177.002472,300.483978 177.001236,301.242004 177.000000,302.000000 
z"/>
<path fill="#FDFEFE" opacity="1.000000" stroke="none" 
	d="
M94.000000,1.000001 
	C152.887100,1.000000 211.774185,1.000000 271.000000,1.000000 
	C271.000000,18.019396 271.000000,35.041039 270.638397,52.521355 
	C267.446381,51.812172 264.695343,50.372105 261.772888,49.519844 
	C239.828003,43.120125 217.870132,36.762638 195.874573,30.539509 
	C178.289597,25.564255 160.645905,20.796555 142.766113,15.685333 
	C134.671066,13.249494 126.805801,11.173739 119.014130,8.851106 
	C110.640076,6.354871 102.335114,3.626872 94.000000,1.000001 
z"/>
<path fill="#BABFC4" opacity="1.000000" stroke="none" 
	d="
M143.028275,15.936736 
	C160.645905,20.796555 178.289597,25.564255 195.874573,30.539509 
	C217.870132,36.762638 239.828003,43.120125 261.772888,49.519844 
	C264.695343,50.372105 267.446381,51.812172 270.638397,52.990013 
	C271.000000,54.066669 271.000000,55.133339 270.804626,56.681686 
	C270.531769,57.280315 270.370483,57.482040 270.389709,57.501049 
	C270.575806,57.684902 270.792236,57.838074 271.000000,58.000000 
	C271.000000,58.750000 271.000000,59.500000 270.617310,60.610458 
	C265.802216,75.647270 261.369873,90.323631 256.937500,104.999985 
	C256.600830,105.776764 256.264191,106.553543 255.650833,107.921371 
	C253.251465,115.674957 251.128799,122.837494 249.006134,130.000031 
	C249.006134,130.000031 248.937149,130.484406 248.764496,131.055847 
	C245.558945,141.065170 242.576920,150.519775 239.480576,159.936798 
	C235.403809,172.335693 231.185349,184.688126 227.139664,197.097000 
	C225.866348,201.002533 224.952896,205.025360 223.874725,208.994507 
	C223.521378,210.019302 223.168045,211.044113 222.542740,212.631927 
	C217.853928,225.300903 213.427841,237.403534 209.022949,249.513870 
	C204.792938,261.143402 200.584152,272.780640 196.367538,284.415039 
	C194.243332,290.276062 192.122406,296.138306 190.000000,302.000000 
	C189.555557,302.000000 189.111099,302.000000 188.110382,301.686035 
	C184.039948,300.570526 180.525787,299.768982 177.011627,298.967438 
	C163.756424,294.890503 150.498871,290.821167 137.246628,286.734619 
	C122.981522,282.335754 108.710457,277.955780 94.461815,273.504120 
	C75.959343,267.723358 57.482380,261.860992 38.981537,256.075012 
	C33.288982,254.294724 27.554176,252.649521 21.206871,250.624878 
	C17.716454,249.486206 14.857883,248.665085 11.999315,247.843964 
	C10.929600,247.506104 9.859882,247.168259 8.188287,246.574524 
	C1.494311,244.081223 0.590845,241.732605 3.183671,235.795273 
	C5.899929,229.575302 8.417118,223.268387 11.172873,216.721863 
	C11.600573,215.656937 11.876710,214.869629 12.391682,213.842926 
	C13.174897,212.104111 13.719277,210.604675 14.501162,208.843338 
	C16.500608,204.054733 18.262552,199.528015 20.199318,194.687469 
	C22.566071,188.915527 24.758001,183.457413 27.117945,177.688629 
	C27.877136,175.590347 28.468313,173.802750 29.323139,171.781067 
	C30.763763,168.363953 31.940739,165.180878 33.250687,161.713837 
	C33.642227,160.640518 33.900795,159.851196 34.159370,159.061874 
	C34.514080,157.972794 34.868786,156.883728 35.490070,155.197098 
	C37.489017,150.729340 39.221386,146.859116 41.369217,143.003754 
	C42.336853,143.065628 42.889023,143.112671 43.363808,143.550598 
	C43.035206,145.239471 42.977833,146.613388 42.503670,147.824066 
	C35.538738,165.607605 28.599977,183.402222 21.482216,201.124802 
	C16.775011,212.845291 11.762844,224.443008 6.953618,236.123032 
	C5.801124,238.922058 4.410942,241.627762 9.125505,243.071396 
	C30.044287,249.476807 50.866215,256.197632 71.760262,262.684906 
	C107.250206,273.704041 142.772736,284.618225 178.271011,295.610565 
	C187.487259,298.464478 187.449448,298.515228 190.810730,289.307526 
	C191.545807,287.293915 192.577881,285.388245 193.303696,283.371857 
	C199.717499,265.553314 206.232468,247.769440 212.442871,229.879990 
	C219.412048,209.804810 226.232635,189.675446 232.859024,169.484711 
	C237.883896,154.173798 242.634186,138.769135 247.271027,123.335411 
	C253.667480,102.044830 259.706390,80.646034 266.218994,59.391804 
	C267.629181,54.789597 265.811676,53.479443 262.029755,52.493065 
	C253.044952,50.149727 244.086548,47.701206 235.145050,45.196743 
	C217.580353,40.276958 200.019318,35.342937 182.485565,30.314337 
	C168.632492,26.341341 154.822525,22.218027 141.133392,17.888617 
	C141.858353,17.056087 142.443314,16.496414 143.028275,15.936736 
z"/>
<path fill="#BABFC4" opacity="1.000000" stroke="none" 
	d="
M43.441193,143.159714 
	C42.889023,143.112671 42.336853,143.065628 41.432079,142.627167 
	C44.301399,133.074203 47.465096,123.891685 50.759525,114.756310 
	C55.176975,102.506836 59.695553,90.293831 64.170708,78.065163 
	C64.485146,77.275749 64.799583,76.486343 65.374825,75.110207 
	C72.689629,53.459068 79.625404,32.353619 86.908195,11.368605 
	C88.197006,7.654966 90.932541,4.443411 93.000000,1.000000 
	C93.000000,1.000000 93.500000,1.000000 93.750000,1.000001 
	C102.335114,3.626872 110.640076,6.354871 119.014130,8.851106 
	C126.805801,11.173739 134.671066,13.249494 142.766113,15.685337 
	C142.443314,16.496414 141.858353,17.056087 140.728149,17.858604 
	C125.814644,14.094842 111.405525,10.225686 97.108833,5.978081 
	C93.828018,5.003338 92.143875,5.245195 91.097855,8.632277 
	C88.844597,15.928476 86.554863,23.218334 84.051918,30.431631 
	C73.721924,60.201920 63.385738,89.970619 52.870201,119.675598 
	C50.057671,127.620621 46.601742,135.337891 43.441193,143.159714 
z"/>
<path fill="#FDFEFE" opacity="1.000000" stroke="none" 
	d="
M190.399994,302.000000 
	C192.122406,296.138306 194.243332,290.276062 196.367538,284.415039 
	C200.584152,272.780640 204.792938,261.143402 209.022949,249.513870 
	C213.427841,237.403534 217.853928,225.300903 222.551880,212.961914 
	C223.359039,213.765991 223.896194,214.797607 224.409302,215.841080 
	C227.477448,222.080475 226.743362,224.242172 220.269180,228.063126 
	C223.928894,238.790070 222.731720,242.192261 213.842850,249.956161 
	C211.984070,251.579681 211.183868,254.672729 210.426834,257.244873 
	C208.976135,262.173828 206.531906,266.788300 207.726593,272.468201 
	C208.273712,275.069397 209.052307,280.603760 202.515656,279.250977 
	C201.923981,279.128540 200.949081,280.858032 200.152161,281.727478 
	C201.101501,282.428436 201.982437,283.262146 203.018066,283.795532 
	C204.220566,284.414856 205.558792,284.770660 206.838120,285.240814 
	C205.723953,286.160187 204.750443,287.502167 203.471909,287.927765 
	C197.007004,290.079620 195.221848,295.412384 194.000519,301.607086 
	C192.933334,302.000000 191.866653,302.000000 190.399994,302.000000 
z"/>
<path fill="#FDFEFE" opacity="1.000000" stroke="none" 
	d="
M92.539368,1.000000 
	C90.932541,4.443411 88.197006,7.654966 86.908195,11.368605 
	C79.625404,32.353619 72.689629,53.459068 65.387009,74.779060 
	C64.579109,74.748741 63.504471,74.379585 63.535255,74.189034 
	C64.522346,68.080017 65.664764,61.996239 66.669464,55.889847 
	C67.050980,53.571075 67.152565,51.206245 67.383438,48.844959 
	C73.306564,46.395340 74.720093,40.888489 70.241623,35.869400 
	C80.398331,26.697741 82.672562,14.860358 81.001022,1.414581 
	C84.692909,1.000000 88.385818,1.000000 92.539368,1.000000 
z"/>
<path fill="#FEFEFE" opacity="1.000000" stroke="none" 
	d="
M12.152846,214.082321 
	C11.876710,214.869629 11.600573,215.656937 10.820787,216.756439 
	C5.249110,219.533249 4.331963,224.470062 2.976137,229.200714 
	C2.590722,230.545486 1.673401,231.737778 1.000001,233.000000 
	C1.000000,227.977905 1.000000,222.955811 1.000000,217.466858 
	C6.173144,217.345352 7.948317,214.763535 8.132339,209.783051 
	C8.265503,206.179077 7.376839,201.390472 13.274950,200.580719 
	C13.852613,200.501419 14.740935,198.397919 14.518956,197.463455 
	C12.835902,190.378296 16.886328,184.425888 18.237791,177.963074 
	C18.400192,177.186447 20.022997,176.638901 21.041742,176.131363 
	C24.724331,174.296722 25.738173,170.918854 23.825508,167.227432 
	C22.967354,165.571213 22.438910,163.744156 21.733242,161.923386 
	C26.069279,160.842453 29.703318,159.936539 33.748360,159.046234 
	C33.900795,159.851196 33.642227,160.640518 32.883301,161.748367 
	C30.798239,164.619980 29.124235,167.125916 27.724659,169.776749 
	C27.513584,170.176514 28.582607,171.252136 29.059494,172.015137 
	C28.468313,173.802750 27.877136,175.590347 26.695175,177.688782 
	C23.688824,178.264481 20.665897,177.004700 19.969767,181.085724 
	C19.457308,184.089981 18.455826,187.022507 17.526014,189.940399 
	C16.703020,192.523071 16.711954,194.535126 20.024494,195.001312 
	C18.262552,199.528015 16.500608,204.054733 14.092258,208.816254 
	C9.536357,209.834213 10.704030,211.922134 12.152846,214.082321 
z"/>
<path fill="#FDFEFE" opacity="1.000000" stroke="none" 
	d="
M257.295166,104.966415 
	C261.369873,90.323631 265.802216,75.647270 270.617310,60.985458 
	C271.000000,67.687645 271.000000,74.375290 271.000000,81.531464 
	C266.592102,82.496170 263.848206,85.674263 265.183685,90.687271 
	C267.192535,98.227783 261.353058,100.844200 257.295166,104.966415 
z"/>
<path fill="#FDFEFE" opacity="1.000000" stroke="none" 
	d="
M1.000001,233.466125 
	C1.673401,231.737778 2.590722,230.545486 2.976137,229.200714 
	C4.331963,224.470062 5.249110,219.533249 10.669226,217.034058 
	C8.417118,223.268387 5.899929,229.575302 3.183671,235.795273 
	C0.590845,241.732605 1.494311,244.081223 7.848383,246.558594 
	C6.023189,247.199020 3.936020,247.599503 1.424426,248.000000 
	C1.000000,243.310745 1.000000,238.621490 1.000001,233.466125 
z"/>
<path fill="#FDFEFE" opacity="1.000000" stroke="none" 
	d="
M177.007675,299.346710 
	C180.525787,299.768982 184.039948,300.570526 187.777039,301.686035 
	C184.638718,302.000000 181.277420,302.000000 177.458069,302.000000 
	C177.001236,301.242004 177.002472,300.483978 177.007675,299.346710 
z"/>
<path fill="#FDFEFE" opacity="1.000000" stroke="none" 
	d="
M271.000000,57.750000 
	C270.792236,57.838074 270.575806,57.684902 270.389709,57.501049 
	C270.370483,57.482040 270.531769,57.280315 270.804626,57.081684 
	C271.000000,57.000000 271.000000,57.500000 271.000000,57.750000 
z"/>
<path fill="#FDFEFE" opacity="1.000000" stroke="none" 
	d="
M63.788635,78.075203 
	C59.695553,90.293831 55.176975,102.506836 50.759525,114.756310 
	C47.465096,123.891685 44.301399,133.074203 41.016617,142.612320 
	C39.221386,146.859116 37.489017,150.729340 35.514114,154.838882 
	C34.701687,154.342712 33.553188,153.511597 33.656349,152.887314 
	C34.298489,149.001343 35.236019,145.164841 36.043297,141.305191 
	C36.378082,139.704544 37.059841,138.030182 36.853493,136.486984 
	C35.720963,128.017242 37.816353,124.088295 45.616096,119.850761 
	C46.756073,119.231430 47.642456,117.453285 47.925377,116.064491 
	C49.399353,108.829018 49.504307,101.052025 52.372292,94.458008 
	C54.201466,90.252396 56.497894,86.428215 57.449982,81.743774 
	C57.766777,80.185104 61.328362,79.285919 63.788635,78.075203 
z"/>
<path fill="#FDFEFE" opacity="1.000000" stroke="none" 
	d="
M51.814575,83.278061 
	C51.309147,84.323158 50.708786,85.012299 50.108429,85.701431 
	C49.799896,84.904243 49.491364,84.107048 49.182831,83.309860 
	C50.028435,83.180603 50.874039,83.051346 51.814575,83.278061 
z"/>
<path fill="#FDFEFE" opacity="1.000000" stroke="none" 
	d="
M224.256042,208.992920 
	C224.952896,205.025360 225.866348,201.002533 227.139664,197.097000 
	C231.185349,184.688126 235.403809,172.335693 239.480576,159.936798 
	C242.576920,150.519775 245.558945,141.065170 248.762665,131.300476 
	C250.668793,134.114929 252.631683,137.160110 254.019836,140.447952 
	C254.527405,141.650162 254.159409,143.792389 253.349930,144.879776 
	C250.165970,149.156937 245.778000,152.763947 243.516876,157.433228 
	C241.569702,161.454239 241.975067,166.592331 241.206223,171.214188 
	C240.725632,174.103287 239.942596,176.940781 239.394608,179.820328 
	C238.873169,182.560471 238.410110,185.316406 238.067642,188.083511 
	C237.936569,189.142746 238.683563,190.540329 238.224915,191.292664 
	C234.845779,196.835556 231.326004,202.297226 227.673370,207.663910 
	C227.147186,208.437027 225.672882,208.564880 224.256042,208.992920 
z"/>
<path fill="#FDFEFE" opacity="1.000000" stroke="none" 
	d="
M249.400543,129.999451 
	C251.128799,122.837494 253.251465,115.674957 255.618515,108.238922 
	C256.559814,109.353722 257.939667,110.797714 257.831787,112.120369 
	C257.430634,117.039429 256.968140,122.044319 255.587967,126.740524 
	C255.140625,128.262665 251.807892,128.936813 249.400543,129.999451 
z"/>
<path fill="#FDFEFE" opacity="1.000000" stroke="none" 
	d="
M12.030304,248.216583 
	C14.857883,248.665085 17.716454,249.486206 20.828976,250.561005 
	C17.372908,254.397690 15.338215,253.895767 12.030304,248.216583 
z"/>
<path fill="#FAFAFB" opacity="1.000000" stroke="none" 
	d="
M43.363808,143.550598 
	C46.601742,135.337891 50.057671,127.620621 52.870201,119.675598 
	C63.385738,89.970619 73.721924,60.201920 84.051918,30.431631 
	C86.554863,23.218334 88.844597,15.928476 91.097855,8.632277 
	C92.143875,5.245195 93.828018,5.003338 97.108833,5.978081 
	C111.405525,10.225686 125.814644,14.094842 140.588181,18.131458 
	C154.822525,22.218027 168.632492,26.341341 182.485565,30.314337 
	C200.019318,35.342937 217.580353,40.276958 235.145050,45.196743 
	C244.086548,47.701206 253.044952,50.149727 262.029755,52.493065 
	C265.811676,53.479443 267.629181,54.789597 266.218994,59.391804 
	C259.706390,80.646034 253.667480,102.044830 247.271027,123.335411 
	C242.634186,138.769135 237.883896,154.173798 232.859024,169.484711 
	C226.232635,189.675446 219.412048,209.804810 212.442871,229.879990 
	C206.232468,247.769440 199.717499,265.553314 193.303696,283.371857 
	C192.577881,285.388245 191.545807,287.293915 190.810730,289.307526 
	C187.449448,298.515228 187.487259,298.464478 178.271011,295.610565 
	C142.772736,284.618225 107.250206,273.704041 71.760262,262.684906 
	C50.866215,256.197632 30.044287,249.476807 9.125505,243.071396 
	C4.410942,241.627762 5.801124,238.922058 6.953618,236.123032 
	C11.762844,224.443008 16.775011,212.845291 21.482216,201.124802 
	C28.599977,183.402222 35.538738,165.607605 42.503670,147.824066 
	C42.977833,146.613388 43.035206,145.239471 43.363808,143.550598 
M114.741005,31.622818 
	C112.387497,30.837795 110.075310,29.676764 107.664642,29.411867 
	C106.267715,29.258368 103.749435,30.210114 103.388603,31.242277 
	C101.428391,36.849533 99.871483,42.609562 98.462090,48.386852 
	C98.205254,49.439690 99.273994,50.815910 99.730812,52.042847 
	C100.928780,51.246616 102.354538,50.649311 103.267334,49.604050 
	C104.420555,48.283474 105.155800,46.597893 106.071335,45.069759 
	C107.582588,47.670410 107.696915,49.961712 108.322441,52.103737 
	C108.605247,53.072197 109.904587,53.743809 110.742744,54.550095 
	C111.566856,53.681786 112.947304,52.902134 113.102669,51.927250 
	C113.458199,49.696358 113.215080,47.370060 113.215080,45.006165 
	C118.974831,41.034389 119.613106,37.289486 114.741005,31.622818 
M193.435913,73.839058 
	C193.913315,72.788239 194.390717,71.737411 194.868118,70.686592 
	C195.315948,70.748665 195.763779,70.810745 196.211609,70.872818 
	C196.440750,72.384521 196.389557,74.015892 196.970688,75.377342 
	C197.681839,77.043373 198.922821,78.483238 199.934708,80.020897 
	C200.764420,78.324486 201.807068,76.694229 202.360718,74.912056 
	C202.860275,73.303955 202.227005,71.072479 203.121796,69.902489 
	C209.112823,62.068924 206.845352,56.541847 196.907715,54.767536 
	C194.203430,54.284695 192.752579,54.905651 192.059494,57.461582 
	C190.670715,62.583080 189.136414,67.673347 188.007660,72.851814 
	C187.693527,74.293053 188.591110,75.998413 188.932800,77.582603 
	C190.327957,76.569954 191.723129,75.557297 193.435913,73.839058 
M229.697723,83.055840 
	C230.875534,82.060966 232.053345,81.066093 233.231155,80.071213 
	C233.546783,81.496124 234.034210,82.910423 234.123093,84.349342 
	C234.192795,85.478195 233.499374,86.673241 233.644821,87.772766 
	C233.777878,88.778748 234.485855,90.410660 235.110016,90.493782 
	C236.187256,90.637245 238.160538,90.068115 238.428314,89.321266 
	C240.547577,83.410759 242.474915,77.420738 244.118301,71.362137 
	C244.357071,70.481873 242.956955,68.415329 241.983505,68.159431 
	C241.035934,67.910316 239.362076,69.034752 238.561737,70.010857 
	C237.783066,70.960518 237.941101,72.639267 237.243347,73.707565 
	C236.758636,74.449699 235.391205,75.208481 234.659500,75.020477 
	C233.997833,74.850479 233.367203,73.438301 233.268600,72.515572 
	C233.171204,71.603966 234.144958,70.534508 233.959106,69.685219 
	C233.622086,68.145241 232.773056,66.717308 232.137756,65.242607 
	C230.852264,66.161545 228.940598,66.805817 228.395096,68.049362 
	C226.531540,72.297676 224.836914,76.679543 223.724152,81.170593 
	C223.228622,83.170509 224.274277,85.552277 224.620422,87.760719 
	C226.251755,86.449875 227.883087,85.139023 229.697723,83.055840 
M124.087181,49.988903 
	C126.523476,49.988903 128.959763,49.988903 131.646835,49.988903 
	C133.605423,44.834991 127.339401,45.801228 126.038246,42.942364 
	C127.295639,38.590878 130.323608,41.722759 132.517578,41.423641 
	C133.554520,41.282272 134.559097,40.903557 135.578339,40.632370 
	C135.089371,39.531864 134.904663,38.022541 134.062897,37.396049 
	C127.787796,32.725769 122.862274,34.171715 120.074783,41.364758 
	C119.474808,42.912968 119.006966,44.513557 118.506264,46.098862 
	C115.213264,56.525143 115.401886,56.870560 125.816872,59.647896 
	C125.977455,59.690720 126.164124,59.831776 126.287804,59.786911 
	C127.663429,59.287880 129.029022,58.761192 130.397324,58.241970 
	C129.528641,57.218414 128.679260,56.177666 127.786743,55.175339 
	C126.453926,53.678566 125.090706,52.208855 124.087181,49.988903 
M149.613647,55.836517 
	C147.884277,52.831375 146.154892,49.826233 144.425507,46.821087 
	C146.470078,46.455837 147.745300,47.181927 149.114899,47.595383 
	C150.216339,47.927887 151.432007,47.882023 152.597000,48.004047 
	C152.679688,46.754749 153.289719,44.763405 152.754776,44.383251 
	C150.300385,42.639050 147.632980,40.553215 144.827789,40.173706 
	C143.013641,39.928268 139.667572,42.039413 139.104599,43.774719 
	C138.395721,45.959820 139.720047,48.866776 140.390457,51.403252 
	C140.624496,52.288807 141.765472,52.919949 142.054260,53.809471 
	C142.414368,54.918701 142.321747,56.174915 142.424606,57.367657 
	C141.230881,57.172283 140.041153,56.946194 138.842392,56.789333 
	C137.352158,56.594330 135.854416,56.456551 134.359924,56.294060 
	C134.880707,58.147026 134.809311,60.682178 136.023590,61.736214 
	C141.616714,66.591248 147.781601,64.121140 149.613647,55.836517 
M151.876419,64.234726 
	C154.828262,68.807579 161.479416,70.641602 166.136810,67.529526 
	C164.228149,66.677361 162.450378,66.290924 161.265610,65.237541 
	C160.131897,64.229546 159.614532,62.528351 158.826263,61.131832 
	C160.107330,60.591187 161.348389,59.894444 162.680527,59.553070 
	C164.058456,59.199955 165.524780,59.191837 166.952438,59.032806 
	C166.035995,57.682377 165.186157,56.279877 164.183182,54.997116 
	C163.297501,53.864399 162.241028,52.865223 161.259979,51.807072 
	C162.723343,51.527992 164.177399,51.139896 165.653839,51.013916 
	C166.440903,50.946758 167.316559,51.590038 168.061676,51.445599 
	C168.896790,51.283710 169.884323,50.757519 170.320129,50.078358 
	C170.626419,49.601028 170.358276,48.425945 169.940308,47.865421 
	C166.757767,43.597546 158.208069,44.327969 156.268311,49.232090 
	C154.453644,53.819866 153.302460,58.670086 151.876419,64.234726 
M173.795273,68.659073 
	C177.813721,66.150146 179.640137,67.986450 180.765472,71.925827 
	C181.096710,73.085388 182.423538,73.960548 183.294083,74.966042 
	C183.929352,73.806702 184.931564,72.704803 185.123917,71.476120 
	C185.531799,68.870750 185.751770,66.187752 185.621948,63.557648 
	C185.424500,59.557617 184.864563,55.575474 184.336441,50.385330 
	C181.650772,52.145866 179.894775,52.819881 178.835251,54.079666 
	C175.459320,58.093697 172.215652,62.237267 169.219284,66.538651 
	C168.516876,67.546982 168.989807,69.374031 168.921997,70.824417 
	C170.402130,70.318794 171.882278,69.813164 173.795273,68.659073 
M207.542770,79.435059 
	C210.109375,81.304924 212.500931,83.564461 215.335541,84.837685 
	C216.356140,85.296104 218.441956,83.383072 220.041641,82.552261 
	C218.992905,81.539627 218.115738,80.074409 216.863113,79.599518 
	C213.158661,78.195076 211.948959,75.554047 213.225327,72.166229 
	C214.421265,68.991844 216.269897,66.241600 220.739319,67.914467 
	C221.971710,68.375740 223.814453,67.206329 225.377136,66.785133 
	C224.438965,65.254028 223.858139,63.046562 222.492294,62.324936 
	C219.073624,60.518723 215.403748,60.689724 212.315903,63.411125 
	C207.684738,67.492699 206.447815,72.772720 207.542770,79.435059 
M116.459015,242.306519 
	C117.430588,241.669968 118.402161,241.033417 119.373734,240.396881 
	C118.646202,239.611740 118.062263,238.462265 117.164711,238.108536 
	C114.261604,236.964386 111.288727,235.899216 108.247375,235.251160 
	C106.998543,234.985046 105.506340,235.861099 104.124840,236.217606 
	C105.090164,237.079681 105.921280,238.242615 107.047127,238.744827 
	C109.895683,240.015472 112.876633,240.989273 116.459015,242.306519 
M111.255959,223.214981 
	C107.757729,222.197464 104.284760,221.072708 100.743362,220.238434 
	C99.866905,220.031952 98.768417,220.767960 97.772003,221.070724 
	C98.406456,222.034012 98.828400,223.490738 99.713539,223.871918 
	C102.896790,225.242813 106.164139,226.614639 109.538971,227.284546 
	C112.425789,227.857590 114.116348,226.601700 111.255959,223.214981 
M156.412674,124.251793 
	C155.194138,124.725830 153.975586,125.199875 152.757050,125.673912 
	C153.591080,126.538643 154.271423,127.792770 155.288345,128.194183 
	C158.191208,129.340042 161.191391,130.323898 164.237885,130.976608 
	C165.336243,131.211929 166.675186,130.324295 167.904343,129.949112 
	C167.131485,129.044464 166.532455,127.725685 165.552521,127.314392 
	C162.830551,126.171898 159.950195,125.406799 156.412674,124.251793 
M160.798904,116.024925 
	C160.723618,115.114029 160.901047,113.533157 160.534363,113.394836 
	C156.414154,111.840752 152.225845,110.456268 148.004776,109.197472 
	C147.582565,109.071564 146.241425,110.283188 146.324448,110.511757 
	C146.667160,111.455498 147.225922,112.771828 148.008423,113.029030 
	C152.025772,114.349510 156.136978,115.384407 160.798904,116.024925 
M94.173767,105.266083 
	C84.598854,102.091843 84.598854,102.091843 82.685875,105.399643 
	C87.891251,107.180328 92.673576,110.093025 98.300575,109.148781 
	C98.474197,108.662056 98.647812,108.175331 98.821434,107.688606 
	C97.501526,106.980247 96.181618,106.271881 94.173767,105.266083 
M67.902824,235.387924 
	C65.294762,236.580399 65.539513,238.060242 67.833443,239.103973 
	C70.690582,240.403931 73.683418,241.478119 76.716072,242.275421 
	C77.619408,242.512939 78.853416,241.492691 79.935913,241.048737 
	C79.316437,240.206726 78.871078,238.931473 78.046402,238.600037 
	C74.979820,237.367599 71.788521,236.445480 67.902824,235.387924 
M124.106613,218.390808 
	C126.863235,216.920334 126.468803,215.361908 123.914825,214.390640 
	C121.161453,213.343521 118.256737,212.616562 115.357353,212.074646 
	C114.381332,211.892212 113.219421,212.704346 112.142471,213.061935 
	C112.882729,214.002640 113.439354,215.433395 114.397560,215.792496 
	C117.308838,216.883408 120.375328,217.560135 124.106613,218.390808 
M195.959488,99.687515 
	C194.250076,99.071709 192.579834,98.231888 190.816650,97.923515 
	C189.746643,97.736389 188.532913,98.370956 187.383759,98.636368 
	C188.126144,99.697044 188.642090,101.173210 189.660156,101.728035 
	C191.523697,102.743607 193.640488,103.479584 195.735153,103.823067 
	C197.211838,104.065208 198.826431,103.466293 200.379456,103.242882 
	C199.156540,102.109474 197.933609,100.976067 195.959488,99.687515 
M37.656475,229.071899 
	C41.296322,230.662430 44.897301,232.357666 48.615170,233.738068 
	C49.218666,233.962143 50.340290,232.790726 51.222424,232.264328 
	C50.559696,231.435608 50.059357,230.182312 49.204689,229.855408 
	C46.301727,228.745087 43.303234,227.831024 40.272610,227.145248 
	C39.505516,226.971649 38.483479,227.924652 37.656475,229.071899 
M110.377365,249.389969 
	C110.109268,249.957611 109.841179,250.525269 109.573082,251.092896 
	C113.717163,252.634811 117.852760,254.201248 122.030174,255.646851 
	C122.240623,255.719681 123.182526,254.704010 123.131088,254.273102 
	C123.049728,253.591614 122.545006,252.575974 121.994125,252.397629 
	C118.388412,251.230164 114.722107,250.249832 110.377365,249.389969 
M147.610168,138.802612 
	C149.843369,138.690231 152.076553,138.577835 154.309753,138.465439 
	C152.363510,137.269226 150.418839,136.070419 148.467529,134.882523 
	C148.332214,134.800156 148.147751,134.766861 147.985535,134.765060 
	C145.562836,134.738174 143.139999,134.720459 140.717209,134.700577 
	C142.768936,135.990738 144.820679,137.280899 147.610168,138.802612 
M141.762161,159.648788 
	C139.080765,158.876007 136.428543,157.953705 133.700211,157.421570 
	C132.882355,157.262085 131.852173,158.191299 130.919266,158.621750 
	C131.385925,159.387024 131.683609,160.581696 132.348450,160.843292 
	C135.241882,161.981796 138.201920,163.025360 141.226364,163.714691 
	C142.232010,163.943909 143.502548,163.010895 144.651978,162.609222 
	C143.934448,161.690765 143.216919,160.772293 141.762161,159.648788 
M121.334091,83.220749 
	C123.518799,83.971222 125.664597,84.909676 127.908493,85.374260 
	C128.738373,85.546074 129.798996,84.603416 130.754379,84.169029 
	C130.431580,83.487282 130.266068,82.377457 129.760941,82.191841 
	C125.881516,80.766312 121.936127,79.520287 118.011215,78.218529 
	C117.695259,78.830292 117.379295,79.442055 117.063339,80.053818 
	C118.262238,81.012039 119.461128,81.970261 121.334091,83.220749 
M148.715714,90.868637 
	C150.134247,91.349266 151.533218,92.139374 152.976364,92.230583 
	C154.701111,92.339600 156.463638,91.850792 158.209808,91.620926 
	C156.830475,90.466141 155.584564,89.062729 154.032471,88.229851 
	C152.616135,87.469818 150.885361,87.112686 149.260681,86.982124 
	C147.973450,86.878693 146.637024,87.387146 145.322449,87.623894 
	C146.218353,88.617790 147.114243,89.611694 148.715714,90.868637 
M147.092346,264.096039 
	C148.330460,263.763245 149.568588,263.430420 150.806702,263.097595 
	C150.071152,262.168915 149.522644,260.818542 148.563812,260.393280 
	C146.022003,259.265778 143.336945,258.398834 140.633408,257.736359 
	C139.822601,257.537659 138.763351,258.352875 137.817932,258.703583 
	C138.350525,259.580811 138.679291,260.882294 139.454422,261.254700 
	C141.668198,262.318207 144.063446,263.004028 147.092346,264.096039 
M64.979233,221.994492 
	C62.310123,223.339294 63.015564,224.873444 65.095955,225.777679 
	C67.663376,226.893600 70.417831,227.651733 73.160210,228.248627 
	C73.987473,228.428696 75.043526,227.557678 75.994774,227.168137 
	C75.425713,226.293716 75.044662,224.943619 74.253578,224.630936 
	C71.497147,223.541458 68.598778,222.811096 64.979233,221.994492 
M156.206772,190.205368 
	C159.605881,191.453522 162.914001,194.008362 166.829788,190.708481 
	C163.769363,188.727661 160.525009,187.517105 157.200806,186.594269 
	C156.977844,186.532364 156.150650,188.646927 156.206772,190.205368 
M94.318840,92.126213 
	C93.198723,91.804298 92.073219,91.209534 90.959900,91.231529 
	C89.652000,91.257362 88.354668,91.818779 87.052750,92.147919 
	C88.071304,93.200584 88.923683,94.559975 90.152000,95.225456 
	C91.571350,95.994438 93.304512,96.391556 94.933395,96.509865 
	C96.666885,96.635757 98.437798,96.246330 100.192375,96.081902 
	C98.805725,94.955956 97.428337,93.818214 96.023827,92.715012 
	C95.773460,92.518333 95.410637,92.464828 94.318840,92.126213 
M77.943283,130.785995 
	C80.626602,131.617279 83.276993,132.605743 86.014320,133.179367 
	C86.786423,133.341171 87.813141,132.287964 88.723076,131.792007 
	C88.193268,130.934570 87.848915,129.597412 87.099617,129.307755 
	C84.645050,128.358841 82.081192,127.527855 79.486900,127.153297 
	C77.081940,126.806076 75.248787,127.539040 77.943283,130.785995 
M150.112228,173.668930 
	C148.850632,174.066589 147.589035,174.464249 146.327438,174.861923 
	C146.691284,175.703857 146.850784,177.056473 147.454803,177.298157 
	C149.899872,178.276535 152.449310,179.084091 155.032410,179.574219 
	C155.835403,179.726562 156.866516,178.676712 157.793182,178.177231 
	C157.208420,177.290771 156.819595,176.012604 155.997192,175.601227 
	C154.395920,174.800247 152.551666,174.485031 150.112228,173.668930 
M93.481277,171.567490 
	C94.392876,171.159470 95.304474,170.751434 96.216072,170.343399 
	C95.752991,169.556580 95.474480,168.366333 94.793884,168.054932 
	C92.266403,166.898529 89.648979,165.873550 86.970009,165.154114 
	C86.189644,164.944550 85.091728,165.917480 84.139366,166.348389 
	C84.707703,167.207520 85.084976,168.475754 85.880936,168.847504 
	C88.088921,169.878693 90.471222,170.536667 93.481277,171.567490 
M151.768158,153.817627 
	C154.079041,154.214172 156.389938,154.610733 158.700821,155.007294 
	C158.838013,154.417648 158.975220,153.827988 159.112411,153.238342 
	C156.517303,149.718277 152.180984,150.006104 148.425568,149.110397 
	C147.998505,149.008545 146.945175,149.976334 146.826584,150.575638 
	C146.708450,151.172638 147.226700,152.218018 147.778152,152.553314 
	C148.725082,153.129105 149.914764,153.305618 151.768158,153.817627 
M173.424973,180.212784 
	C172.245834,180.783142 171.066681,181.353500 169.887543,181.923843 
	C173.028442,184.351578 175.870300,185.620621 178.839676,186.409653 
	C179.739853,186.648865 180.992722,185.560791 182.084030,185.080643 
	C181.484924,184.212341 181.073929,182.943848 180.248962,182.556076 
	C178.319672,181.649246 176.191757,181.165039 173.424973,180.212784 
M109.412216,164.417709 
	C110.535332,163.895630 111.658440,163.373566 112.781548,162.851501 
	C112.732437,162.414490 112.683319,161.977478 112.634209,161.540466 
	C109.396935,160.489258 106.183998,159.347580 102.901558,158.464203 
	C102.255714,158.290390 100.781471,159.004028 100.684021,159.502731 
	C100.542068,160.229263 101.098671,161.614120 101.713615,161.873337 
	C103.974213,162.826248 106.381737,163.430573 109.412216,164.417709 
M73.487785,142.985580 
	C76.136604,142.840500 78.815895,146.468323 81.437241,142.921387 
	C79.033127,141.568756 76.719879,139.988220 74.180138,138.975800 
	C73.165894,138.571472 71.651878,139.420853 70.365364,139.699539 
	C71.167244,140.731079 71.969116,141.762634 73.487785,142.985580 
M131.049454,104.162209 
	C127.252464,102.543411 123.637161,100.004372 118.948174,101.355850 
	C120.843002,105.410133 128.014191,108.101578 130.992691,106.195717 
	C131.283737,106.009491 131.232635,105.288528 131.049454,104.162209 
M203.283539,154.014801 
	C206.507294,155.454697 209.705032,156.963425 213.001923,158.209915 
	C213.279694,158.314926 214.913284,156.450821 214.733932,155.861801 
	C214.040207,153.583649 205.625565,151.830154 203.283539,154.014801 
M59.567799,195.071762 
	C56.215878,194.001343 52.863956,192.930923 49.512032,191.860504 
	C49.173393,192.768005 48.834751,193.675522 48.496109,194.583023 
	C52.044834,196.076981 55.593563,197.570938 59.142288,199.064911 
	C59.510639,197.858612 59.878986,196.652298 59.567799,195.071762 
M82.034340,152.655029 
	C81.259018,152.395493 80.470772,151.891342 79.711296,151.931503 
	C78.449715,151.998199 77.206627,152.414551 75.955750,152.683640 
	C76.848007,153.646164 77.569260,154.970932 78.670494,155.490799 
	C80.572968,156.388901 82.681786,156.966782 84.764839,157.310074 
	C85.642464,157.454727 86.674591,156.661911 87.636482,156.295242 
	C87.129410,155.407990 86.821915,154.229202 86.063080,153.709686 
	C85.180328,153.105347 83.902267,153.078430 82.034340,152.655029 
M107.722687,197.860062 
	C110.094589,201.794952 117.144028,203.457779 121.091728,199.498245 
	C116.097916,198.643341 112.017967,197.944885 107.722687,197.860062 
M157.081665,227.711853 
	C159.203079,228.595474 161.265182,229.715363 163.469513,230.268509 
	C164.670273,230.569824 166.112350,229.909485 167.445572,229.682877 
	C166.645660,228.676331 166.038589,227.332993 165.002136,226.739578 
	C163.308533,225.769882 161.369827,224.954010 159.463791,224.756775 
	C158.633881,224.670868 157.628769,226.277878 157.081665,227.711853 
M114.034660,177.422028 
	C115.482750,177.750671 116.969566,178.421616 118.362625,178.263992 
	C119.062302,178.184814 120.265640,176.415024 120.078117,175.726654 
	C119.361961,173.097778 110.984314,172.198441 108.463547,174.868866 
	C110.186806,175.708160 111.737183,176.463272 114.034660,177.422028 
M188.417557,125.075150 
	C192.160431,126.211761 195.903305,127.348366 200.420380,128.720078 
	C198.823410,123.518906 191.066650,120.987656 188.278214,123.426025 
	C188.087448,123.592850 188.147751,124.046768 188.417557,125.075150 
M144.490799,250.136566 
	C145.352814,249.455475 146.214844,248.774384 147.076874,248.093292 
	C144.462540,246.877090 141.918716,245.451187 139.202591,244.537643 
	C137.941025,244.113342 136.344482,244.684998 134.899780,244.805161 
	C134.842789,245.432098 134.785782,246.059052 134.728790,246.686005 
	C137.707077,247.813644 140.685364,248.941299 144.490799,250.136566 
M176.667130,143.742950 
	C175.262054,143.299561 173.878815,142.623871 172.444748,142.489197 
	C171.374725,142.388702 170.239044,142.987289 169.132614,143.274551 
	C169.767807,144.198929 170.204727,145.472488 171.081955,145.970596 
	C172.621643,146.844864 174.395187,147.415787 176.140427,147.780380 
	C177.252640,148.012726 178.490341,147.644409 179.671768,147.545425 
	C178.911118,146.362366 178.150452,145.179321 176.667130,143.742950 
M109.122032,123.005531 
	C105.873611,121.950989 102.739899,119.487831 97.634941,122.809334 
	C102.049789,124.335831 105.317169,125.481689 108.633026,126.463890 
	C108.684479,126.479126 109.333466,124.477074 109.122032,123.005531 
M186.547516,223.932907 
	C187.704559,223.507721 188.861618,223.082520 190.018661,222.657333 
	C190.034302,222.062897 190.049942,221.468460 190.065598,220.874023 
	C186.717407,219.870163 183.386398,218.799011 180.002426,217.935318 
	C179.497452,217.806427 178.201035,218.672241 178.214844,219.042740 
	C178.246307,219.888138 178.655106,221.181213 179.280334,221.458405 
	C181.368744,222.384232 183.619812,222.943192 186.547516,223.932907 
M135.529999,130.981232 
	C132.031860,130.509781 128.731522,126.280121 123.592308,130.876266 
	C127.690079,132.287415 130.653229,133.467697 133.722626,134.206696 
	C134.231262,134.329178 135.204010,132.524033 135.529999,130.981232 
M93.559113,208.932266 
	C95.587486,209.134033 97.514030,208.914871 96.360786,206.212891 
	C95.543221,204.297424 88.154747,203.173401 84.642303,204.977631 
	C87.844696,206.494354 90.307320,207.660706 93.559113,208.932266 
M179.416580,196.592834 
	C181.859787,197.453323 184.259003,198.509399 186.768799,199.073792 
	C187.713654,199.286255 188.914749,198.359207 189.999039,197.951645 
	C189.377289,197.182281 188.908585,196.084595 188.103226,195.709152 
	C186.187988,194.816406 184.144897,193.916763 182.089294,193.731354 
	C181.138901,193.645615 180.038498,195.222961 179.416580,196.592834 
M131.342056,217.206192 
	C131.981949,218.396973 132.354370,220.267792 133.314148,220.645279 
	C135.754837,221.605255 138.458298,221.897202 141.056580,222.456528 
	C140.813538,221.304428 140.877197,219.371521 140.274597,219.134811 
	C137.605042,218.086197 134.744156,217.524658 131.342056,217.206192 
M101.422691,147.020523 
	C100.345421,147.499802 99.268150,147.979080 98.190887,148.458374 
	C99.009003,149.277496 99.729286,150.640182 100.664528,150.808517 
	C102.986649,151.226456 105.406876,151.099365 107.787697,151.191193 
	C105.928383,149.841278 104.069069,148.491364 101.422691,147.020523 
M77.596123,191.199203 
	C80.202888,191.443573 83.041779,195.083603 85.913651,190.150436 
	C83.083069,189.064026 80.622574,187.499725 78.058182,187.305206 
	C75.351601,187.099884 74.455299,188.770050 77.596123,191.199203 
M85.550468,144.597015 
	C88.165573,145.850647 90.768524,147.133530 93.442894,148.244537 
	C93.543541,148.286331 94.891449,146.505920 94.705933,145.839859 
	C94.095901,143.649643 88.093277,142.504791 85.550468,144.597015 
M169.053391,92.656250 
	C168.259781,92.425438 167.466049,92.007484 166.672592,92.007980 
	C165.502731,92.008713 164.333069,92.307465 163.163315,92.479279 
	C163.875641,93.583565 164.352905,95.271965 165.348404,95.672562 
	C167.531860,96.551216 169.977768,96.777641 172.316513,97.270386 
	C172.611633,96.734825 172.906769,96.199265 173.201904,95.663696 
	C172.072281,94.698753 170.942673,93.733810 169.053391,92.656250 
M112.078217,140.301071 
	C114.089882,140.945831 116.068878,141.791824 118.130875,142.126541 
	C118.855881,142.244232 119.784370,141.108368 120.619957,140.544876 
	C118.508781,139.317017 116.479065,137.869949 114.223129,137.031708 
	C113.724968,136.846603 112.425827,138.817139 112.078217,140.301071 
M95.172577,245.426941 
	C97.692474,246.679916 100.177536,248.015030 102.763695,249.111740 
	C103.241402,249.314316 104.288773,248.699722 104.762093,248.179291 
	C105.024994,247.890259 104.849869,246.645172 104.522102,246.463882 
	C101.620804,244.859268 98.892517,242.016693 95.172577,245.426941 
M147.183914,120.228951 
	C146.864777,120.145607 146.540833,119.975746 146.227310,119.993225 
	C144.450348,120.092316 142.675888,120.236244 140.900574,120.364891 
	C142.401230,121.539215 143.894470,122.723267 145.409805,123.878326 
	C145.663834,124.071960 146.037079,124.285416 146.315063,124.240593 
	C147.459045,124.056168 148.587540,123.775627 149.721725,123.530434 
	C149.101791,122.539520 148.481842,121.548599 147.183914,120.228951 
M155.536530,213.678970 
	C156.377625,208.368729 151.152298,210.851990 149.282654,208.957062 
	C148.969482,208.639648 147.437820,209.524521 146.469177,209.853851 
	C146.957184,210.791779 147.245316,212.309860 147.970383,212.559647 
	C150.209274,213.330978 152.614822,213.618546 155.536530,213.678970 
M209.682556,142.395203 
	C211.878571,143.607452 214.032181,144.911926 216.305069,145.956985 
	C216.780472,146.175583 217.981323,145.622406 218.327530,145.087830 
	C218.668976,144.560608 218.420410,142.946701 218.311462,142.935165 
	C215.431610,142.630142 213.041031,138.566879 209.682556,142.395203 
M181.129379,161.700607 
	C183.147308,162.432343 185.122864,163.406647 187.205078,163.770355 
	C187.982468,163.906128 189.008713,162.617081 189.921478,161.977692 
	C187.802109,160.888397 185.758789,159.550003 183.515884,158.865234 
	C182.863663,158.666092 181.640961,160.335510 181.129379,161.700607 
M127.839439,169.755096 
	C129.255859,170.224167 130.646286,170.887939 132.099426,171.082047 
	C132.852005,171.182556 134.204834,170.621307 134.403427,170.051361 
	C134.642792,169.364365 134.152710,167.774094 133.615799,167.580521 
	C131.530960,166.828903 129.302292,166.476257 127.127151,165.975098 
	C127.165367,167.113205 127.203575,168.251297 127.839439,169.755096 
M155.256470,167.156738 
	C157.591690,168.243515 159.878891,169.465424 162.295197,170.324005 
	C162.915375,170.544373 164.044998,169.738159 164.727509,169.154419 
	C164.965347,168.951004 164.755585,167.617142 164.419525,167.444946 
	C161.507385,165.952713 158.691681,163.018265 155.256470,167.156738 
M169.289398,172.191803 
	C172.053940,173.045135 174.718201,175.783890 178.960709,171.691284 
	C175.347641,170.566299 172.593506,169.657211 169.784363,168.974548 
	C169.631531,168.937424 169.018875,170.792343 169.289398,172.191803 
M53.477703,208.951248 
	C54.954060,204.604126 50.651566,205.893951 49.060360,204.757950 
	C48.009628,204.007812 45.989204,204.615952 44.402943,204.615952 
	C44.320038,205.442444 44.237137,206.268936 44.154232,207.095428 
	C47.090149,207.902176 50.026062,208.708939 53.477703,208.951248 
M170.051208,245.438583 
	C172.088623,245.758896 174.124100,246.098328 176.172989,246.304550 
	C176.232666,246.310562 176.741135,244.374863 176.520828,244.248230 
	C174.709900,243.207199 172.781860,242.366989 170.872360,241.503418 
	C170.592880,241.377045 170.184021,241.341309 169.902496,241.445663 
	C167.542664,242.320511 166.972595,243.498230 170.051208,245.438583 
M123.578705,227.905930 
	C121.288383,227.437271 118.998055,226.968613 116.707726,226.499939 
	C116.560654,227.247925 116.108185,228.544083 116.313957,228.658737 
	C118.285049,229.756821 120.351715,230.692017 122.431900,231.577789 
	C122.813972,231.740463 123.754181,231.564407 123.799477,231.384354 
	C124.048607,230.394287 124.099648,229.354370 123.578705,227.905930 
M65.335236,163.310364 
	C66.835655,163.002365 68.336082,162.694351 69.836502,162.386353 
	C68.737183,161.395844 67.785591,159.958603 66.499367,159.533279 
	C65.046745,159.052887 63.293335,159.482040 61.670734,159.515640 
	C62.654102,160.702774 63.637470,161.889908 65.335236,163.310364 
M195.636246,189.002762 
	C196.369110,193.042145 199.741135,192.449570 202.491898,192.736298 
	C202.834351,192.771973 203.331161,191.326828 203.756439,190.567841 
	C201.620529,189.659332 199.500504,188.708817 197.331360,187.888184 
	C197.010818,187.766922 196.457870,188.259979 195.636246,189.002762 
M202.903061,178.749313 
	C202.285873,178.525925 201.643723,178.064285 201.056396,178.125839 
	C199.569016,178.281708 198.106262,178.672470 196.633636,178.969147 
	C197.729675,179.924957 198.750717,180.993958 199.952408,181.790344 
	C200.582687,182.208023 201.535202,182.294464 202.332016,182.264053 
	C203.200439,182.230911 204.057098,181.889267 204.918884,181.682129 
	C204.482590,180.786148 204.046310,179.890167 202.903061,178.749313 
M106.638252,99.012466 
	C108.428482,99.690407 110.180542,100.619102 112.031090,100.900711 
	C112.622612,100.990715 113.475044,99.366226 114.208099,98.526207 
	C112.775909,97.822289 111.377243,96.669662 109.900711,96.559341 
	C108.761490,96.474213 107.524529,97.697098 106.638252,99.012466 
M132.244583,183.231033 
	C134.222443,184.195709 136.152878,185.306839 138.225784,185.978027 
	C138.563416,186.087341 139.530945,184.251358 140.207336,183.314514 
	C137.599106,182.458511 135.259659,179.071045 132.244583,183.231033 
M86.448265,228.904770 
	C85.973587,228.765961 85.488091,228.481766 85.026306,228.516129 
	C83.737495,228.612015 82.458496,228.839859 81.175621,229.015610 
	C81.627441,229.945099 81.909241,231.509323 82.563118,231.684448 
	C84.485847,232.199463 86.556244,232.163147 88.568840,232.342667 
	C88.111450,231.286957 87.654068,230.231262 86.448265,228.904770 
M182.951447,119.293991 
	C180.660385,118.844521 178.369324,118.395042 176.078247,117.945572 
	C175.862808,118.772758 175.647354,119.599945 175.431900,120.427132 
	C177.726334,121.131821 180.008209,121.891991 182.342590,122.420181 
	C182.503494,122.456589 183.056076,120.761940 182.951447,119.293991 
M76.326736,216.058395 
	C77.716164,216.810974 79.044426,217.842270 80.527588,218.167725 
	C81.059799,218.284500 81.965446,216.699402 82.700653,215.891022 
	C81.541939,215.100418 80.456024,213.878296 79.199692,213.666321 
	C78.317207,213.517410 77.202591,214.744293 76.326736,216.058395 
M59.519634,237.212296 
	C60.286510,236.368652 61.053383,235.524994 61.820259,234.681351 
	C60.249329,233.930466 58.719231,233.055145 57.078560,232.516769 
	C56.672039,232.383362 55.907082,233.342300 55.306892,233.799118 
	C56.490543,234.887817 57.674191,235.976517 59.519634,237.212296 
M125.531448,157.523514 
	C125.620041,156.527115 125.980423,154.735275 125.754906,154.658218 
	C123.657509,153.941589 121.459320,153.519913 118.626534,152.857452 
	C119.592453,157.602951 122.057961,157.934647 125.531448,157.523514 
M154.404816,254.141632 
	C156.169388,253.970856 157.933945,253.800095 159.698517,253.629333 
	C159.113220,252.742065 158.677567,251.282913 157.912506,251.082733 
	C156.144272,250.620102 154.216385,250.767548 152.353241,250.667572 
	C152.781647,251.766968 153.210037,252.866364 154.404816,254.141632 
M148.337723,239.157043 
	C150.819641,240.272888 152.970459,240.566833 154.095062,236.319061 
	C151.738953,236.093597 149.766296,235.904831 147.793640,235.716049 
	C147.754745,236.736221 147.715866,237.756378 148.337723,239.157043 
M99.248505,234.833038 
	C100.644402,231.438873 97.894554,231.359283 95.962135,231.100876 
	C95.259125,231.006866 94.370949,232.297440 93.567253,232.956299 
	C94.837975,233.886810 96.075516,234.870255 97.406578,235.704483 
	C97.682663,235.877502 98.305824,235.496765 99.248505,234.833038 
z"/>
<path fill="#FDFEFE" opacity="1.000000" stroke="none" 
	d="
M20.199314,194.687469 
	C16.711954,194.535126 16.703020,192.523071 17.526014,189.940399 
	C18.455826,187.022507 19.457308,184.089981 19.969767,181.085724 
	C20.665897,177.004700 23.688824,178.264481 26.527163,177.999466 
	C24.758001,183.457413 22.566071,188.915527 20.199314,194.687469 
z"/>
<path fill="#FDFEFE" opacity="1.000000" stroke="none" 
	d="
M29.323141,171.781067 
	C28.582607,171.252136 27.513584,170.176514 27.724659,169.776749 
	C29.124235,167.125916 30.798239,164.619980 32.750328,162.032349 
	C31.940739,165.180878 30.763763,168.363953 29.323141,171.781067 
z"/>
<path fill="#FDFEFE" opacity="1.000000" stroke="none" 
	d="
M12.391682,213.842926 
	C10.704030,211.922134 9.536357,209.834213 13.854754,209.078156 
	C13.719277,210.604675 13.174897,212.104111 12.391682,213.842926 
z"/>
<path fill="#5E6267" opacity="1.000000" stroke="none" 
	d="
M115.025986,31.885473 
	C119.613106,37.289486 118.974831,41.034389 113.215080,45.006165 
	C113.215080,47.370060 113.458199,49.696358 113.102669,51.927250 
	C112.947304,52.902134 111.566856,53.681786 110.742744,54.550095 
	C109.904587,53.743809 108.605247,53.072197 108.322441,52.103737 
	C107.696915,49.961712 107.582588,47.670410 106.071335,45.069759 
	C105.155800,46.597893 104.420555,48.283474 103.267334,49.604050 
	C102.354538,50.649311 100.928780,51.246616 99.730812,52.042847 
	C99.273994,50.815910 98.205254,49.439690 98.462090,48.386852 
	C99.871483,42.609562 101.428391,36.849533 103.388603,31.242277 
	C103.749435,30.210114 106.267715,29.258368 107.664642,29.411867 
	C110.075310,29.676764 112.387497,30.837795 115.025986,31.885473 
z"/>
<path fill="#5D6165" opacity="1.000000" stroke="none" 
	d="
M193.277100,74.191849 
	C191.723129,75.557297 190.327957,76.569954 188.932800,77.582603 
	C188.591110,75.998413 187.693527,74.293053 188.007660,72.851814 
	C189.136414,67.673347 190.670715,62.583080 192.059494,57.461582 
	C192.752579,54.905651 194.203430,54.284695 196.907715,54.767536 
	C206.845352,56.541847 209.112823,62.068924 203.121796,69.902489 
	C202.227005,71.072479 202.860275,73.303955 202.360718,74.912056 
	C201.807068,76.694229 200.764420,78.324486 199.934708,80.020889 
	C198.922821,78.483238 197.681839,77.043373 196.970688,75.377342 
	C196.389557,74.015892 196.440750,72.384521 196.211609,70.872818 
	C195.763779,70.810745 195.315948,70.748665 194.868118,70.686592 
	C194.390717,71.737411 193.913315,72.788239 193.277100,74.191849 
z"/>
<path fill="#5B5F64" opacity="1.000000" stroke="none" 
	d="
M229.606064,83.442001 
	C227.883087,85.139023 226.251755,86.449875 224.620422,87.760727 
	C224.274277,85.552277 223.228622,83.170509 223.724152,81.170593 
	C224.836914,76.679543 226.531540,72.297676 228.395096,68.049362 
	C228.940598,66.805817 230.852264,66.161545 232.137756,65.242607 
	C232.773056,66.717308 233.622086,68.145241 233.959106,69.685219 
	C234.144958,70.534508 233.171204,71.603966 233.268600,72.515572 
	C233.367203,73.438301 233.997833,74.850479 234.659500,75.020477 
	C235.391205,75.208481 236.758636,74.449699 237.243347,73.707565 
	C237.941101,72.639267 237.783066,70.960518 238.561737,70.010857 
	C239.362076,69.034752 241.035934,67.910316 241.983505,68.159431 
	C242.956955,68.415329 244.357071,70.481873 244.118301,71.362137 
	C242.474915,77.420738 240.547577,83.410759 238.428314,89.321266 
	C238.160538,90.068115 236.187256,90.637245 235.110016,90.493782 
	C234.485855,90.410660 233.777878,88.778748 233.644821,87.772766 
	C233.499374,86.673241 234.192795,85.478195 234.123093,84.349342 
	C234.034210,82.910423 233.546783,81.496124 233.231155,80.071213 
	C232.053345,81.066093 230.875534,82.060966 229.606064,83.442001 
z"/>
<path fill="#5B5F64" opacity="1.000000" stroke="none" 
	d="
M123.913803,50.358269 
	C125.090706,52.208855 126.453926,53.678566 127.786743,55.175339 
	C128.679260,56.177666 129.528641,57.218414 130.397324,58.241966 
	C129.029022,58.761192 127.663429,59.287880 126.287804,59.786911 
	C126.164124,59.831776 125.977455,59.690720 125.816872,59.647896 
	C115.401886,56.870560 115.213264,56.525143 118.506264,46.098862 
	C119.006966,44.513557 119.474808,42.912968 120.074783,41.364758 
	C122.862274,34.171715 127.787796,32.725769 134.062897,37.396049 
	C134.904663,38.022541 135.089371,39.531864 135.578339,40.632370 
	C134.559097,40.903557 133.554520,41.282272 132.517578,41.423641 
	C130.323608,41.722759 127.295639,38.590878 126.038246,42.942364 
	C127.339401,45.801228 133.605423,44.834991 131.646835,49.988903 
	C128.959763,49.988903 126.523476,49.988903 123.913803,50.358269 
z"/>
<path fill="#5D6065" opacity="1.000000" stroke="none" 
	d="
M149.620987,56.208580 
	C147.781601,64.121140 141.616714,66.591248 136.023590,61.736214 
	C134.809311,60.682178 134.880707,58.147026 134.359924,56.294060 
	C135.854416,56.456551 137.352158,56.594330 138.842392,56.789333 
	C140.041153,56.946194 141.230881,57.172283 142.424591,57.367661 
	C142.321747,56.174915 142.414368,54.918701 142.054260,53.809471 
	C141.765472,52.919949 140.624496,52.288807 140.390457,51.403252 
	C139.720047,48.866776 138.395721,45.959820 139.104599,43.774719 
	C139.667572,42.039413 143.013641,39.928268 144.827789,40.173706 
	C147.632980,40.553215 150.300385,42.639050 152.754776,44.383251 
	C153.289719,44.763405 152.679688,46.754749 152.597000,48.004047 
	C151.432007,47.882023 150.216339,47.927887 149.114899,47.595383 
	C147.745300,47.181927 146.470078,46.455837 144.425507,46.821087 
	C146.154892,49.826233 147.884277,52.831375 149.620987,56.208580 
z"/>
<path fill="#5B5F64" opacity="1.000000" stroke="none" 
	d="
M151.867859,63.819763 
	C153.302460,58.670086 154.453644,53.819866 156.268311,49.232090 
	C158.208069,44.327969 166.757767,43.597546 169.940308,47.865421 
	C170.358276,48.425945 170.626419,49.601028 170.320129,50.078358 
	C169.884323,50.757519 168.896790,51.283710 168.061676,51.445599 
	C167.316559,51.590038 166.440903,50.946758 165.653839,51.013916 
	C164.177399,51.139896 162.723343,51.527992 161.259979,51.807076 
	C162.241028,52.865223 163.297501,53.864399 164.183182,54.997116 
	C165.186157,56.279877 166.035995,57.682377 166.952438,59.032806 
	C165.524780,59.191837 164.058456,59.199955 162.680527,59.553070 
	C161.348389,59.894444 160.107330,60.591187 158.826263,61.131832 
	C159.614532,62.528351 160.131897,64.229546 161.265610,65.237541 
	C162.450378,66.290924 164.228149,66.677361 166.136810,67.529526 
	C161.479416,70.641602 154.828262,68.807579 151.867859,63.819763 
z"/>
<path fill="#5B5F64" opacity="1.000000" stroke="none" 
	d="
M173.578842,68.983307 
	C171.882278,69.813164 170.402130,70.318794 168.921997,70.824417 
	C168.989807,69.374031 168.516876,67.546982 169.219284,66.538651 
	C172.215652,62.237267 175.459320,58.093697 178.835251,54.079666 
	C179.894775,52.819881 181.650772,52.145866 184.336441,50.385330 
	C184.864563,55.575474 185.424500,59.557617 185.621948,63.557648 
	C185.751770,66.187752 185.531799,68.870750 185.123917,71.476120 
	C184.931564,72.704803 183.929352,73.806702 183.294083,74.966042 
	C182.423538,73.960548 181.096710,73.085388 180.765472,71.925827 
	C179.640137,67.986450 177.813721,66.150146 173.578842,68.983307 
z"/>
<path fill="#5F6367" opacity="1.000000" stroke="none" 
	d="
M207.380951,79.062737 
	C206.447815,72.772720 207.684738,67.492699 212.315903,63.411125 
	C215.403748,60.689724 219.073624,60.518723 222.492294,62.324936 
	C223.858139,63.046562 224.438965,65.254028 225.377136,66.785141 
	C223.814453,67.206329 221.971710,68.375740 220.739319,67.914467 
	C216.269897,66.241600 214.421265,68.991844 213.225327,72.166229 
	C211.948959,75.554047 213.158661,78.195076 216.863113,79.599518 
	C218.115738,80.074409 218.992905,81.539627 220.041641,82.552261 
	C218.441956,83.383072 216.356140,85.296104 215.335541,84.837685 
	C212.500931,83.564461 210.109375,81.304924 207.380951,79.062737 
z"/>
<path fill="#6A6C6F" opacity="1.000000" stroke="none" 
	d="
M116.131790,242.194244 
	C112.876633,240.989273 109.895683,240.015472 107.047127,238.744827 
	C105.921280,238.242615 105.090164,237.079681 104.124840,236.217606 
	C105.506340,235.861099 106.998543,234.985046 108.247375,235.251160 
	C111.288727,235.899216 114.261604,236.964386 117.164711,238.108536 
	C118.062263,238.462265 118.646202,239.611740 119.373734,240.396881 
	C118.402161,241.033417 117.430588,241.669968 116.131790,242.194244 
z"/>
<path fill="#686A6E" opacity="1.000000" stroke="none" 
	d="
M111.622467,223.326920 
	C114.116348,226.601700 112.425789,227.857590 109.538971,227.284546 
	C106.164139,226.614639 102.896790,225.242813 99.713539,223.871918 
	C98.828400,223.490738 98.406456,222.034012 97.772003,221.070724 
	C98.768417,220.767960 99.866905,220.031952 100.743362,220.238434 
	C104.284760,221.072708 107.757729,222.197464 111.622467,223.326920 
z"/>
<path fill="#66696C" opacity="1.000000" stroke="none" 
	d="
M156.772537,124.372208 
	C159.950195,125.406799 162.830551,126.171898 165.552521,127.314392 
	C166.532455,127.725685 167.131485,129.044464 167.904343,129.949112 
	C166.675186,130.324295 165.336243,131.211929 164.237885,130.976608 
	C161.191391,130.323898 158.191208,129.340042 155.288345,128.194183 
	C154.271423,127.792770 153.591080,126.538643 152.757050,125.673912 
	C153.975586,125.199875 155.194138,124.725830 156.772537,124.372208 
z"/>
<path fill="#66696C" opacity="1.000000" stroke="none" 
	d="
M160.507156,116.272003 
	C156.136978,115.384407 152.025772,114.349510 148.008423,113.029030 
	C147.225922,112.771828 146.667160,111.455498 146.324448,110.511757 
	C146.241425,110.283188 147.582565,109.071564 148.004776,109.197472 
	C152.225845,110.456268 156.414154,111.840752 160.534363,113.394836 
	C160.901047,113.533157 160.723618,115.114029 160.507156,116.272003 
z"/>
<path fill="#646569" opacity="1.000000" stroke="none" 
	d="
M94.517738,105.414803 
	C96.181618,106.271881 97.501526,106.980247 98.821434,107.688606 
	C98.647812,108.175331 98.474197,108.662056 98.300575,109.148781 
	C92.673576,110.093025 87.891251,107.180328 82.685875,105.399643 
	C84.598854,102.091843 84.598854,102.091843 94.517738,105.414803 
z"/>
<path fill="#686A6E" opacity="1.000000" stroke="none" 
	d="
M68.273438,235.397400 
	C71.788521,236.445480 74.979820,237.367599 78.046402,238.600037 
	C78.871078,238.931473 79.316437,240.206726 79.935913,241.048737 
	C78.853416,241.492691 77.619408,242.512939 76.716072,242.275421 
	C73.683418,241.478119 70.690582,240.403931 67.833443,239.103973 
	C65.539513,238.060242 65.294762,236.580399 68.273438,235.397400 
z"/>
<path fill="#65676B" opacity="1.000000" stroke="none" 
	d="
M123.743988,218.394501 
	C120.375328,217.560135 117.308838,216.883408 114.397560,215.792496 
	C113.439354,215.433395 112.882729,214.002640 112.142471,213.061935 
	C113.219421,212.704346 114.381332,211.892212 115.357353,212.074646 
	C118.256737,212.616562 121.161453,213.343521 123.914825,214.390640 
	C126.468803,215.361908 126.863235,216.920334 123.743988,218.394501 
z"/>
<path fill="#6C6E71" opacity="1.000000" stroke="none" 
	d="
M196.335083,99.765091 
	C197.933609,100.976067 199.156540,102.109474 200.379456,103.242889 
	C198.826431,103.466293 197.211838,104.065208 195.735153,103.823067 
	C193.640488,103.479584 191.523697,102.743607 189.660156,101.728035 
	C188.642090,101.173210 188.126144,99.697044 187.383759,98.636375 
	C188.532913,98.370956 189.746643,97.736389 190.816650,97.923515 
	C192.579834,98.231888 194.250076,99.071709 196.335083,99.765091 
z"/>
<path fill="#686A6E" opacity="1.000000" stroke="none" 
	d="
M37.617535,228.715942 
	C38.483479,227.924652 39.505516,226.971649 40.272610,227.145248 
	C43.303234,227.831024 46.301727,228.745087 49.204689,229.855408 
	C50.059357,230.182312 50.559696,231.435608 51.222424,232.264328 
	C50.340290,232.790726 49.218666,233.962143 48.615170,233.738068 
	C44.897301,232.357666 41.296322,230.662430 37.617535,228.715942 
z"/>
<path fill="#6A6C6F" opacity="1.000000" stroke="none" 
	d="
M110.726479,249.299164 
	C114.722107,250.249832 118.388412,251.230164 121.994125,252.397629 
	C122.545006,252.575974 123.049728,253.591614 123.131088,254.273102 
	C123.182526,254.704010 122.240623,255.719681 122.030174,255.646851 
	C117.852760,254.201248 113.717163,252.634811 109.573082,251.092896 
	C109.841179,250.525269 110.109268,249.957611 110.726479,249.299164 
z"/>
<path fill="#66696C" opacity="1.000000" stroke="none" 
	d="
M147.241302,138.686829 
	C144.820679,137.280899 142.768936,135.990738 140.717209,134.700577 
	C143.139999,134.720459 145.562836,134.738174 147.985535,134.765060 
	C148.147751,134.766861 148.332214,134.800156 148.467529,134.882523 
	C150.418839,136.070419 152.363510,137.269226 154.309753,138.465439 
	C152.076553,138.577835 149.843369,138.690231 147.241302,138.686829 
z"/>
<path fill="#6A6C6F" opacity="1.000000" stroke="none" 
	d="
M142.130768,159.751312 
	C143.216919,160.772293 143.934448,161.690765 144.651978,162.609222 
	C143.502548,163.010895 142.232010,163.943909 141.226364,163.714691 
	C138.201920,163.025360 135.241882,161.981796 132.348450,160.843292 
	C131.683609,160.581696 131.385925,159.387024 130.919266,158.621735 
	C131.852173,158.191299 132.882355,157.262085 133.700211,157.421570 
	C136.428543,157.953705 139.080765,158.876007 142.130768,159.751312 
z"/>
<path fill="#686A6E" opacity="1.000000" stroke="none" 
	d="
M120.997055,83.074615 
	C119.461128,81.970261 118.262238,81.012039 117.063339,80.053818 
	C117.379295,79.442055 117.695259,78.830292 118.011215,78.218529 
	C121.936127,79.520287 125.881516,80.766312 129.760941,82.191841 
	C130.266068,82.377457 130.431580,83.487282 130.754379,84.169029 
	C129.798996,84.603416 128.738373,85.546074 127.908493,85.374260 
	C125.664597,84.909676 123.518799,83.971222 120.997055,83.074615 
z"/>
<path fill="#66696C" opacity="1.000000" stroke="none" 
	d="
M148.362930,90.737114 
	C147.114243,89.611694 146.218353,88.617790 145.322449,87.623894 
	C146.637024,87.387146 147.973450,86.878693 149.260681,86.982124 
	C150.885361,87.112686 152.616135,87.469818 154.032471,88.229851 
	C155.584564,89.062729 156.830475,90.466141 158.209808,91.620926 
	C156.463638,91.850792 154.701111,92.339600 152.976364,92.230583 
	C151.533218,92.139374 150.134247,91.349266 148.362930,90.737114 
z"/>
<path fill="#66696C" opacity="1.000000" stroke="none" 
	d="
M146.739838,263.967224 
	C144.063446,263.004028 141.668198,262.318207 139.454422,261.254700 
	C138.679291,260.882294 138.350525,259.580811 137.817932,258.703583 
	C138.763351,258.352875 139.822601,257.537659 140.633408,257.736359 
	C143.336945,258.398834 146.022003,259.265778 148.563812,260.393280 
	C149.522644,260.818542 150.071152,262.168915 150.806702,263.097595 
	C149.568588,263.430420 148.330460,263.763245 146.739838,263.967224 
z"/>
<path fill="#686A6E" opacity="1.000000" stroke="none" 
	d="
M65.366806,221.969360 
	C68.598778,222.811096 71.497147,223.541458 74.253578,224.630936 
	C75.044662,224.943619 75.425713,226.293716 75.994774,227.168137 
	C75.043526,227.557678 73.987473,228.428696 73.160210,228.248627 
	C70.417831,227.651733 67.663376,226.893600 65.095955,225.777679 
	C63.015564,224.873444 62.310123,223.339294 65.366806,221.969360 
z"/>
<path fill="#6C6E71" opacity="1.000000" stroke="none" 
	d="
M155.905624,189.977280 
	C156.150650,188.646927 156.977844,186.532364 157.200806,186.594269 
	C160.525009,187.517105 163.769363,188.727661 166.829788,190.708481 
	C162.914001,194.008362 159.605881,191.453522 155.905624,189.977280 
z"/>
<path fill="#646569" opacity="1.000000" stroke="none" 
	d="
M94.709290,92.235718 
	C95.410637,92.464828 95.773460,92.518333 96.023827,92.715012 
	C97.428337,93.818214 98.805725,94.955956 100.192375,96.081902 
	C98.437798,96.246330 96.666885,96.635757 94.933395,96.509865 
	C93.304512,96.391556 91.571350,95.994438 90.152000,95.225456 
	C88.923683,94.559975 88.071304,93.200584 87.052750,92.147919 
	C88.354668,91.818779 89.652000,91.257362 90.959900,91.231529 
	C92.073219,91.209534 93.198723,91.804298 94.709290,92.235718 
z"/>
<path fill="#6A6C6F" opacity="1.000000" stroke="none" 
	d="
M77.603378,130.635193 
	C75.248787,127.539040 77.081940,126.806076 79.486900,127.153297 
	C82.081192,127.527855 84.645050,128.358841 87.099617,129.307755 
	C87.848915,129.597412 88.193268,130.934570 88.723083,131.792007 
	C87.813141,132.287964 86.786423,133.341171 86.014320,133.179367 
	C83.276993,132.605743 80.626602,131.617279 77.603378,130.635193 
z"/>
<path fill="#707276" opacity="1.000000" stroke="none" 
	d="
M150.460144,173.818771 
	C152.551666,174.485031 154.395920,174.800247 155.997192,175.601227 
	C156.819595,176.012604 157.208420,177.290771 157.793182,178.177246 
	C156.866516,178.676712 155.835403,179.726562 155.032410,179.574219 
	C152.449310,179.084091 149.899872,178.276535 147.454803,177.298157 
	C146.850784,177.056473 146.691284,175.703857 146.327438,174.861923 
	C147.589035,174.464249 148.850632,174.066589 150.460144,173.818771 
z"/>
<path fill="#6A6C6F" opacity="1.000000" stroke="none" 
	d="
M93.132957,171.454803 
	C90.471222,170.536667 88.088921,169.878693 85.880936,168.847504 
	C85.084976,168.475754 84.707703,167.207520 84.139374,166.348389 
	C85.091728,165.917480 86.189644,164.944550 86.970009,165.154114 
	C89.648979,165.873550 92.266403,166.898529 94.793884,168.054932 
	C95.474480,168.366333 95.752991,169.556580 96.216080,170.343414 
	C95.304474,170.751434 94.392876,171.159470 93.132957,171.454803 
z"/>
<path fill="#66696C" opacity="1.000000" stroke="none" 
	d="
M151.385345,153.733704 
	C149.914764,153.305618 148.725082,153.129105 147.778152,152.553314 
	C147.226700,152.218018 146.708450,151.172638 146.826584,150.575638 
	C146.945175,149.976334 147.998505,149.008545 148.425568,149.110397 
	C152.180984,150.006104 156.517303,149.718277 159.112411,153.238342 
	C158.975220,153.827988 158.838013,154.417648 158.700821,155.007294 
	C156.389938,154.610733 154.079041,154.214172 151.385345,153.733704 
z"/>
<path fill="#66696C" opacity="1.000000" stroke="none" 
	d="
M173.784622,180.361237 
	C176.191757,181.165039 178.319672,181.649246 180.248962,182.556076 
	C181.073929,182.943848 181.484924,184.212341 182.084030,185.080643 
	C180.992722,185.560791 179.739853,186.648865 178.839676,186.409653 
	C175.870300,185.620621 173.028442,184.351578 169.887543,181.923843 
	C171.066681,181.353500 172.245834,180.783142 173.784622,180.361237 
z"/>
<path fill="#686A6E" opacity="1.000000" stroke="none" 
	d="
M109.073097,164.291901 
	C106.381737,163.430573 103.974213,162.826248 101.713615,161.873337 
	C101.098671,161.614120 100.542068,160.229263 100.684021,159.502731 
	C100.781471,159.004028 102.255714,158.290390 102.901558,158.464203 
	C106.183998,159.347580 109.396935,160.489258 112.634209,161.540466 
	C112.683319,161.977478 112.732437,162.414490 112.781548,162.851501 
	C111.658440,163.373566 110.535332,163.895630 109.073097,164.291901 
z"/>
<path fill="#686A6E" opacity="1.000000" stroke="none" 
	d="
M73.129387,142.889877 
	C71.969116,141.762634 71.167244,140.731079 70.365364,139.699524 
	C71.651878,139.420853 73.165894,138.571472 74.180138,138.975800 
	C76.719879,139.988220 79.033127,141.568756 81.437241,142.921387 
	C78.815895,146.468323 76.136604,142.840500 73.129387,142.889877 
z"/>
<path fill="#65676B" opacity="1.000000" stroke="none" 
	d="
M131.194901,104.488991 
	C131.232635,105.288528 131.283737,106.009491 130.992691,106.195717 
	C128.014191,108.101578 120.843002,105.410133 118.948174,101.355850 
	C123.637161,100.004372 127.252464,102.543411 131.194901,104.488991 
z"/>
<path fill="#65676B" opacity="1.000000" stroke="none" 
	d="
M203.225952,153.636902 
	C205.625565,151.830154 214.040207,153.583649 214.733932,155.861801 
	C214.913284,156.450821 213.279694,158.314926 213.001923,158.209915 
	C209.705032,156.963425 206.507294,155.454697 203.225952,153.636902 
z"/>
<path fill="#6A6C6F" opacity="1.000000" stroke="none" 
	d="
M59.907570,195.258881 
	C59.878986,196.652298 59.510639,197.858612 59.142288,199.064911 
	C55.593563,197.570938 52.044834,196.076981 48.496109,194.583023 
	C48.834751,193.675522 49.173393,192.768005 49.512032,191.860504 
	C52.863956,192.930923 56.215878,194.001343 59.907570,195.258881 
z"/>
<path fill="#6A6C6F" opacity="1.000000" stroke="none" 
	d="
M82.415054,152.727966 
	C83.902267,153.078430 85.180328,153.105347 86.063080,153.709686 
	C86.821915,154.229202 87.129410,155.407990 87.636482,156.295242 
	C86.674591,156.661911 85.642464,157.454727 84.764839,157.310074 
	C82.681786,156.966782 80.572968,156.388901 78.670494,155.490799 
	C77.569260,154.970932 76.848007,153.646164 75.955750,152.683640 
	C77.206627,152.414551 78.449715,151.998199 79.711296,151.931503 
	C80.470772,151.891342 81.259018,152.395493 82.415054,152.727966 
z"/>
<path fill="#646569" opacity="1.000000" stroke="none" 
	d="
M107.830353,197.553253 
	C112.017967,197.944885 116.097916,198.643341 121.091728,199.498245 
	C117.144028,203.457779 110.094589,201.794952 107.830353,197.553253 
z"/>
<path fill="#6A6C6F" opacity="1.000000" stroke="none" 
	d="
M156.892456,227.413940 
	C157.628769,226.277878 158.633881,224.670868 159.463791,224.756775 
	C161.369827,224.954010 163.308533,225.769882 165.002136,226.739578 
	C166.038589,227.332993 166.645660,228.676331 167.445587,229.682877 
	C166.112350,229.909485 164.670273,230.569824 163.469513,230.268509 
	C161.265182,229.715363 159.203079,228.595474 156.892456,227.413940 
z"/>
<path fill="#65676B" opacity="1.000000" stroke="none" 
	d="
M113.661118,177.320206 
	C111.737183,176.463272 110.186806,175.708160 108.463547,174.868866 
	C110.984314,172.198441 119.361961,173.097778 120.078117,175.726654 
	C120.265640,176.415024 119.062302,178.184814 118.362625,178.263992 
	C116.969566,178.421616 115.482750,177.750671 113.661118,177.320206 
z"/>
<path fill="#66696C" opacity="1.000000" stroke="none" 
	d="
M188.254425,124.721161 
	C188.147751,124.046768 188.087448,123.592850 188.278214,123.426025 
	C191.066650,120.987656 198.823410,123.518906 200.420380,128.720078 
	C195.903305,127.348366 192.160431,126.211761 188.254425,124.721161 
z"/>
<path fill="#5F6367" opacity="1.000000" stroke="none" 
	d="
M144.077225,250.102753 
	C140.685364,248.941299 137.707077,247.813644 134.728790,246.686005 
	C134.785782,246.059052 134.842789,245.432098 134.899780,244.805161 
	C136.344482,244.684998 137.941025,244.113342 139.202591,244.537643 
	C141.918716,245.451187 144.462540,246.877090 147.076874,248.093292 
	C146.214844,248.774384 145.352814,249.455475 144.077225,250.102753 
z"/>
<path fill="#66696C" opacity="1.000000" stroke="none" 
	d="
M177.028458,143.869614 
	C178.150452,145.179321 178.911118,146.362366 179.671768,147.545425 
	C178.490341,147.644409 177.252640,148.012726 176.140427,147.780380 
	C174.395187,147.415787 172.621643,146.844864 171.081955,145.970596 
	C170.204727,145.472488 169.767807,144.198929 169.132614,143.274551 
	C170.239044,142.987289 171.374725,142.388702 172.444748,142.489197 
	C173.878815,142.623871 175.262054,143.299561 177.028458,143.869614 
z"/>
<path fill="#686A6E" opacity="1.000000" stroke="none" 
	d="
M109.412811,123.210991 
	C109.333466,124.477074 108.684479,126.479126 108.633026,126.463890 
	C105.317169,125.481689 102.049789,124.335831 97.634941,122.809334 
	C102.739899,119.487831 105.873611,121.950989 109.412811,123.210991 
z"/>
<path fill="#66696C" opacity="1.000000" stroke="none" 
	d="
M186.178040,223.787811 
	C183.619812,222.943192 181.368744,222.384232 179.280334,221.458405 
	C178.655106,221.181213 178.246307,219.888138 178.214844,219.042740 
	C178.201035,218.672241 179.497452,217.806427 180.002426,217.935318 
	C183.386398,218.799011 186.717407,219.870163 190.065598,220.874023 
	C190.049942,221.468460 190.034302,222.062897 190.018661,222.657333 
	C188.861618,223.082520 187.704559,223.507721 186.178040,223.787811 
z"/>
<path fill="#65676B" opacity="1.000000" stroke="none" 
	d="
M135.746124,131.295441 
	C135.204010,132.524033 134.231262,134.329178 133.722626,134.206696 
	C130.653229,133.467697 127.690079,132.287415 123.592308,130.876266 
	C128.731522,126.280121 132.031860,130.509781 135.746124,131.295441 
z"/>
<path fill="#6C6E71" opacity="1.000000" stroke="none" 
	d="
M93.164528,208.879669 
	C90.307320,207.660706 87.844696,206.494354 84.642303,204.977631 
	C88.154747,203.173401 95.543221,204.297424 96.360786,206.212891 
	C97.514030,208.914871 95.587486,209.134033 93.164528,208.879669 
z"/>
<path fill="#65676B" opacity="1.000000" stroke="none" 
	d="
M179.211334,196.319565 
	C180.038498,195.222961 181.138901,193.645615 182.089294,193.731354 
	C184.144897,193.916763 186.187988,194.816406 188.103226,195.709152 
	C188.908585,196.084595 189.377289,197.182281 189.999039,197.951645 
	C188.914749,198.359207 187.713654,199.286255 186.768799,199.073792 
	C184.259003,198.509399 181.859787,197.453323 179.211334,196.319565 
z"/>
<path fill="#65676B" opacity="1.000000" stroke="none" 
	d="
M131.647278,216.996536 
	C134.744156,217.524658 137.605042,218.086197 140.274597,219.134811 
	C140.877197,219.371521 140.813538,221.304428 141.056580,222.456528 
	C138.458298,221.897202 135.754837,221.605255 133.314148,220.645279 
	C132.354370,220.267792 131.981949,218.396973 131.647278,216.996536 
z"/>
<path fill="#6C6E71" opacity="1.000000" stroke="none" 
	d="
M101.816223,147.080994 
	C104.069069,148.491364 105.928383,149.841278 107.787697,151.191193 
	C105.406876,151.099365 102.986649,151.226456 100.664528,150.808517 
	C99.729286,150.640182 99.009003,149.277496 98.190887,148.458374 
	C99.268150,147.979080 100.345421,147.499802 101.816223,147.080994 
z"/>
<path fill="#6C6E71" opacity="1.000000" stroke="none" 
	d="
M77.277710,191.034515 
	C74.455299,188.770050 75.351601,187.099884 78.058182,187.305206 
	C80.622574,187.499725 83.083069,189.064026 85.913651,190.150436 
	C83.041779,195.083603 80.202888,191.443573 77.277710,191.034515 
z"/>
<path fill="#686A6E" opacity="1.000000" stroke="none" 
	d="
M85.588242,144.266449 
	C88.093277,142.504791 94.095901,143.649643 94.705933,145.839859 
	C94.891449,146.505920 93.543541,148.286331 93.442894,148.244537 
	C90.768524,147.133530 88.165573,145.850647 85.588242,144.266449 
z"/>
<path fill="#6C6E71" opacity="1.000000" stroke="none" 
	d="
M169.433228,92.712555 
	C170.942673,93.733810 172.072281,94.698753 173.201904,95.663696 
	C172.906769,96.199265 172.611633,96.734825 172.316513,97.270386 
	C169.977768,96.777641 167.531860,96.551216 165.348404,95.672562 
	C164.352905,95.271965 163.875641,93.583565 163.163315,92.479279 
	C164.333069,92.307465 165.502731,92.008713 166.672592,92.007980 
	C167.466049,92.007484 168.259781,92.425438 169.433228,92.712555 
z"/>
<path fill="#686A6E" opacity="1.000000" stroke="none" 
	d="
M111.786865,140.048065 
	C112.425827,138.817139 113.724968,136.846603 114.223129,137.031708 
	C116.479065,137.869949 118.508781,139.317017 120.619957,140.544876 
	C119.784370,141.108368 118.855881,142.244232 118.130875,142.126541 
	C116.068878,141.791824 114.089882,140.945831 111.786865,140.048065 
z"/>
<path fill="#6A6C6F" opacity="1.000000" stroke="none" 
	d="
M95.172974,245.061539 
	C98.892517,242.016693 101.620804,244.859268 104.522102,246.463882 
	C104.849869,246.645172 105.024994,247.890259 104.762093,248.179291 
	C104.288773,248.699722 103.241402,249.314316 102.763695,249.111740 
	C100.177536,248.015030 97.692474,246.679916 95.172974,245.061539 
z"/>
<path fill="#6C6E71" opacity="1.000000" stroke="none" 
	d="
M147.522919,120.393318 
	C148.481842,121.548599 149.101791,122.539520 149.721725,123.530434 
	C148.587540,123.775627 147.459045,124.056168 146.315063,124.240593 
	C146.037079,124.285416 145.663834,124.071960 145.409805,123.878326 
	C143.894470,122.723267 142.401230,121.539215 140.900574,120.364899 
	C142.675888,120.236244 144.450348,120.092316 146.227310,119.993225 
	C146.540833,119.975746 146.864777,120.145607 147.522919,120.393318 
z"/>
<path fill="#65676B" opacity="1.000000" stroke="none" 
	d="
M155.246094,213.886475 
	C152.614822,213.618546 150.209274,213.330978 147.970383,212.559647 
	C147.245316,212.309860 146.957184,210.791779 146.469177,209.853851 
	C147.437820,209.524521 148.969482,208.639648 149.282654,208.957062 
	C151.152298,210.851990 156.377625,208.368729 155.246094,213.886475 
z"/>
<path fill="#686A6E" opacity="1.000000" stroke="none" 
	d="
M209.699341,142.060822 
	C213.041031,138.566879 215.431610,142.630142 218.311462,142.935165 
	C218.420410,142.946701 218.668976,144.560608 218.327530,145.087830 
	C217.981323,145.622406 216.780472,146.175583 216.305069,145.956985 
	C214.032181,144.911926 211.878571,143.607452 209.699341,142.060822 
z"/>
<path fill="#5F6367" opacity="1.000000" stroke="none" 
	d="
M180.904572,161.424500 
	C181.640961,160.335510 182.863663,158.666092 183.515884,158.865234 
	C185.758789,159.550003 187.802109,160.888397 189.921478,161.977692 
	C189.008713,162.617081 187.982468,163.906128 187.205078,163.770355 
	C185.122864,163.406647 183.147308,162.432343 180.904572,161.424500 
z"/>
<path fill="#6A6C6F" opacity="1.000000" stroke="none" 
	d="
M127.540611,169.572250 
	C127.203575,168.251297 127.165367,167.113205 127.127151,165.975098 
	C129.302292,166.476257 131.530960,166.828903 133.615799,167.580521 
	C134.152710,167.774094 134.642792,169.364365 134.403427,170.051361 
	C134.204834,170.621307 132.852005,171.182556 132.099426,171.082047 
	C130.646286,170.887939 129.255859,170.224167 127.540611,169.572250 
z"/>
<path fill="#6C6E71" opacity="1.000000" stroke="none" 
	d="
M155.234344,166.771667 
	C158.691681,163.018265 161.507385,165.952713 164.419525,167.444946 
	C164.755585,167.617142 164.965347,168.951004 164.727509,169.154419 
	C164.044998,169.738159 162.915375,170.544373 162.295197,170.324005 
	C159.878891,169.465424 157.591690,168.243515 155.234344,166.771667 
z"/>
<path fill="#5F6367" opacity="1.000000" stroke="none" 
	d="
M168.954834,171.979156 
	C169.018875,170.792343 169.631531,168.937424 169.784363,168.974548 
	C172.593506,169.657211 175.347641,170.566299 178.960709,171.691284 
	C174.718201,175.783890 172.053940,173.045135 168.954834,171.979156 
z"/>
<path fill="#6A6C6F" opacity="1.000000" stroke="none" 
	d="
M53.219841,209.233475 
	C50.026062,208.708939 47.090149,207.902176 44.154232,207.095428 
	C44.237137,206.268936 44.320038,205.442444 44.402943,204.615952 
	C45.989204,204.615952 48.009628,204.007812 49.060360,204.757950 
	C50.651566,205.893951 54.954060,204.604126 53.219841,209.233475 
z"/>
<path fill="#6A6C6F" opacity="1.000000" stroke="none" 
	d="
M169.704498,245.268066 
	C166.972595,243.498230 167.542664,242.320511 169.902496,241.445663 
	C170.184021,241.341309 170.592880,241.377045 170.872360,241.503418 
	C172.781860,242.366989 174.709900,243.207199 176.520828,244.248230 
	C176.741135,244.374863 176.232666,246.310562 176.172989,246.304550 
	C174.124100,246.098328 172.088623,245.758896 169.704498,245.268066 
z"/>
<path fill="#65676B" opacity="1.000000" stroke="none" 
	d="
M123.898682,228.118744 
	C124.099648,229.354370 124.048607,230.394287 123.799477,231.384354 
	C123.754181,231.564407 122.813972,231.740463 122.431900,231.577789 
	C120.351715,230.692017 118.285049,229.756821 116.313957,228.658737 
	C116.108185,228.544083 116.560654,227.247925 116.707733,226.499939 
	C118.998055,226.968613 121.288383,227.437271 123.898682,228.118744 
z"/>
<path fill="#6C6E71" opacity="1.000000" stroke="none" 
	d="
M64.978043,163.193695 
	C63.637470,161.889908 62.654102,160.702774 61.670734,159.515640 
	C63.293335,159.482040 65.046745,159.052887 66.499367,159.533279 
	C67.785591,159.958603 68.737183,161.395844 69.836502,162.386353 
	C68.336082,162.694351 66.835655,163.002365 64.978043,163.193695 
z"/>
<path fill="#686A6E" opacity="1.000000" stroke="none" 
	d="
M195.824341,188.735779 
	C196.457870,188.259979 197.010818,187.766922 197.331360,187.888184 
	C199.500504,188.708817 201.620529,189.659332 203.756439,190.567841 
	C203.331161,191.326828 202.834351,192.771973 202.491898,192.736298 
	C199.741135,192.449570 196.369110,193.042145 195.824341,188.735779 
z"/>
<path fill="#5F6367" opacity="1.000000" stroke="none" 
	d="
M203.256531,178.871750 
	C204.046310,179.890167 204.482590,180.786148 204.918884,181.682129 
	C204.057098,181.889267 203.200439,182.230911 202.332016,182.264053 
	C201.535202,182.294464 200.582687,182.208023 199.952408,181.790344 
	C198.750717,180.993958 197.729675,179.924957 196.633636,178.969147 
	C198.106262,178.672470 199.569016,178.281708 201.056396,178.125839 
	C201.643723,178.064285 202.285873,178.525925 203.256531,178.871750 
z"/>
<path fill="#707276" opacity="1.000000" stroke="none" 
	d="
M106.484634,98.675446 
	C107.524529,97.697098 108.761490,96.474213 109.900711,96.559341 
	C111.377243,96.669662 112.775909,97.822289 114.208099,98.526207 
	C113.475044,99.366226 112.622612,100.990715 112.031090,100.900711 
	C110.180542,100.619102 108.428482,99.690407 106.484634,98.675446 
z"/>
<path fill="#6A6C6F" opacity="1.000000" stroke="none" 
	d="
M132.222412,182.847687 
	C135.259659,179.071045 137.599106,182.458511 140.207336,183.314514 
	C139.530945,184.251358 138.563416,186.087341 138.225784,185.978027 
	C136.152878,185.306839 134.222443,184.195709 132.222412,182.847687 
z"/>
<path fill="#6C6E71" opacity="1.000000" stroke="none" 
	d="
M86.822479,229.040161 
	C87.654068,230.231262 88.111450,231.286957 88.568832,232.342682 
	C86.556244,232.163147 84.485847,232.199463 82.563118,231.684448 
	C81.909241,231.509323 81.627441,229.945099 81.175629,229.015610 
	C82.458496,228.839859 83.737495,228.612015 85.026306,228.516129 
	C85.488091,228.481766 85.973587,228.765961 86.822479,229.040161 
z"/>
<path fill="#6C6E71" opacity="1.000000" stroke="none" 
	d="
M183.188980,119.583145 
	C183.056076,120.761940 182.503494,122.456589 182.342590,122.420181 
	C180.008209,121.891991 177.726334,121.131821 175.431900,120.427132 
	C175.647354,119.599945 175.862808,118.772758 176.078247,117.945572 
	C178.369324,118.395042 180.660385,118.844521 183.188980,119.583145 
z"/>
<path fill="#76777B" opacity="1.000000" stroke="none" 
	d="
M76.259186,215.707611 
	C77.202591,214.744293 78.317207,213.517410 79.199692,213.666321 
	C80.456024,213.878296 81.541939,215.100418 82.700653,215.891022 
	C81.965446,216.699402 81.059799,218.284500 80.527588,218.167725 
	C79.044426,217.842270 77.716164,216.810974 76.259186,215.707611 
z"/>
<path fill="#707276" opacity="1.000000" stroke="none" 
	d="
M59.188736,237.138763 
	C57.674191,235.976517 56.490543,234.887817 55.306892,233.799118 
	C55.907082,233.342300 56.672039,232.383362 57.078560,232.516769 
	C58.719231,233.055145 60.249329,233.930466 61.820259,234.681351 
	C61.053383,235.524994 60.286510,236.368652 59.188736,237.138763 
z"/>
<path fill="#707276" opacity="1.000000" stroke="none" 
	d="
M125.187889,157.638275 
	C122.057961,157.934647 119.592453,157.602951 118.626534,152.857452 
	C121.459320,153.519913 123.657509,153.941589 125.754906,154.658218 
	C125.980423,154.735275 125.620041,156.527115 125.187889,157.638275 
z"/>
<path fill="#6C6E71" opacity="1.000000" stroke="none" 
	d="
M154.021622,254.053680 
	C153.210037,252.866364 152.781647,251.766968 152.353241,250.667572 
	C154.216385,250.767548 156.144272,250.620102 157.912506,251.082733 
	C158.677567,251.282913 159.113220,252.742065 159.698517,253.629333 
	C157.933945,253.800095 156.169388,253.970856 154.021622,254.053680 
z"/>
<path fill="#76777B" opacity="1.000000" stroke="none" 
	d="
M148.007355,238.966797 
	C147.715866,237.756378 147.754745,236.736221 147.793640,235.716049 
	C149.766296,235.904831 151.738953,236.093597 154.095062,236.319061 
	C152.970459,240.566833 150.819641,240.272888 148.007355,238.966797 
z"/>
<path fill="#76777B" opacity="1.000000" stroke="none" 
	d="
M99.008766,235.102142 
	C98.305824,235.496765 97.682663,235.877502 97.406578,235.704483 
	C96.075516,234.870255 94.837975,233.886810 93.567253,232.956299 
	C94.370949,232.297440 95.259125,231.006866 95.962135,231.100876 
	C97.894554,231.359283 100.644402,231.438873 99.008766,235.102142 
z"/>
</svg>
