<svg version="1.1" id="Layer_1" xmlns="http://www.w3.org/2000/svg" xmlns:xlink="http://www.w3.org/1999/xlink" x="0px" y="0px"
	 width="100%" viewBox="0 0 352 416" enable-background="new 0 0 352 416" xml:space="preserve">
<path fill="#000000" opacity="1.000000" stroke="none" 
	d="
M145.539368,1.000000 
	C161.283905,8.615986 167.888992,22.719193 173.236801,37.677723 
	C178.878693,53.458870 181.849838,69.772873 182.340576,86.527321 
	C182.579575,94.687263 182.765289,94.812965 190.847336,94.798851 
	C209.823639,94.765709 228.796280,93.044006 247.776794,94.666039 
	C249.766266,94.836060 251.788666,94.747810 253.753784,95.051338 
	C259.108978,95.878510 260.613373,97.924919 259.936310,103.234940 
	C257.469727,122.580627 256.881348,142.039703 256.268402,161.503662 
	C256.149658,165.273651 257.409210,167.402466 260.701355,169.453140 
	C272.331726,176.697662 277.788086,188.686050 283.216003,200.515091 
	C288.052399,211.055038 290.784210,222.196228 291.244232,233.809723 
	C291.363373,236.817764 292.561951,237.994415 295.477875,237.925018 
	C301.642944,237.778305 307.791809,238.065704 313.930664,238.718140 
	C322.171478,239.593979 327.807648,243.625320 328.638428,252.517075 
	C331.023041,278.039215 332.900726,303.585693 334.312225,329.172333 
	C335.247467,346.125122 335.999573,363.088196 336.986145,380.037811 
	C337.420319,387.496857 336.642242,394.630859 333.247681,401.406494 
	C330.787628,406.316742 328.565338,411.346069 326.118530,416.661163 
	C257.979095,417.000000 189.958206,417.000000 121.441841,416.531982 
	C120.400047,398.416412 121.141731,380.752655 120.080688,363.101562 
	C119.795906,358.364166 118.443192,356.854431 113.638855,356.921936 
	C90.813896,357.242859 67.983597,357.160889 45.156120,357.339874 
	C38.309082,357.393555 31.511681,356.892426 24.718103,356.221497 
	C16.804632,355.440002 12.310520,351.580292 10.371055,343.869446 
	C9.682969,341.133789 9.067876,338.345306 8.796599,335.544434 
	C5.264294,299.073761 3.091921,262.532074 2.468678,225.882523 
	C2.310928,216.606125 2.445763,207.240845 1.000000,198.000000 
	C1.000000,177.312439 1.000000,156.624878 1.112009,135.090240 
	C2.469214,129.030289 2.682230,123.712296 2.817756,118.388947 
	C2.925784,114.145706 4.480193,110.683754 7.888606,108.002655 
	C9.976310,106.360451 11.891070,104.479439 13.765855,102.588997 
	C19.758383,96.546432 26.722330,93.912003 35.396362,94.964699 
	C46.128685,96.267181 56.947006,96.825302 67.780907,96.831505 
	C75.366318,96.835846 75.446831,96.934731 77.424721,89.448433 
	C80.447975,78.005455 84.330956,66.856918 88.449791,55.771324 
	C97.223976,32.156086 111.472092,13.149621 134.000000,1.000000 
	C137.692902,1.000000 141.385818,1.000000 145.539368,1.000000 
M197.679016,112.414551 
	C194.354156,112.581947 191.030411,112.778618 187.704041,112.906906 
	C185.302292,112.999535 183.747162,114.118553 184.015854,116.579689 
	C184.991348,125.514397 179.352890,131.924973 175.614639,139.054260 
	C174.872192,140.470200 174.023041,142.325287 171.932724,141.708832 
	C170.036240,141.149536 169.912903,139.264664 169.746887,137.590240 
	C169.107132,131.138184 168.220261,124.696312 167.938385,118.228294 
	C167.762604,114.195129 166.047623,113.129578 162.350479,113.281288 
	C151.870483,113.711327 141.382584,113.968552 130.895859,114.210030 
	C115.580299,114.562714 100.263954,114.919052 84.945885,115.095184 
	C81.443207,115.135460 79.532532,116.113907 78.660789,119.806152 
	C77.165688,126.138657 74.203392,131.980392 71.500854,137.881683 
	C70.831833,139.342575 70.200958,141.314423 68.016891,140.660233 
	C65.883781,140.021347 66.228203,138.140533 66.596382,136.470108 
	C67.777451,131.111649 68.846336,125.722626 70.234886,120.417732 
	C71.191177,116.764244 70.355980,115.209206 66.326317,115.155670 
	C53.173115,114.980927 40.023800,114.531487 26.871714,114.246643 
	C20.559532,114.109932 20.451855,114.313690 20.304579,120.576553 
	C19.568651,151.871674 19.319876,183.174286 18.503717,214.470901 
	C17.709423,244.929138 17.892946,275.418457 19.428549,305.869049 
	C19.729448,311.835815 20.479113,317.798309 21.359335,323.712555 
	C22.343897,330.327850 25.386330,333.177490 31.885679,333.619751 
	C38.687973,334.082642 45.467972,334.787689 52.319366,334.734070 
	C72.633858,334.575012 92.952026,335.027130 113.259415,333.986115 
	C119.865852,333.647461 120.267067,333.569885 120.495049,326.880920 
	C121.237885,305.085480 123.129166,283.364899 124.490280,261.610504 
	C125.057892,252.538498 131.954239,248.815552 137.058136,243.444214 
	C137.789902,242.674118 139.573456,242.651337 140.856079,242.695343 
	C155.522995,243.198425 170.147247,242.026230 184.791885,241.733337 
	C188.702774,241.655106 190.303925,240.253540 191.168564,236.475693 
	C193.134964,227.883774 195.406158,219.343933 198.704758,211.134399 
	C206.284866,192.268936 218.275360,177.202713 236.570877,167.714081 
	C239.220993,166.339645 239.854309,164.438248 240.073914,161.735840 
	C241.168579,148.265305 240.225876,134.753204 241.019028,121.284576 
	C241.518478,112.803635 241.291794,112.406540 232.622955,112.375244 
	C221.296036,112.334358 209.968750,112.394081 197.679016,112.414551 
M175.623795,260.297028 
	C165.327301,260.951935 155.035538,261.703278 144.731628,262.206573 
	C141.366333,262.370941 140.507202,264.202271 140.356262,267.015137 
	C139.678589,279.644287 138.983780,292.272491 138.297836,304.901215 
	C137.359024,322.185547 135.982330,339.460724 135.616394,356.757233 
	C135.289169,372.223114 133.788910,387.670624 134.788040,403.177704 
	C135.113754,408.232880 137.518173,409.924835 142.094650,409.752625 
	C152.071274,409.377136 162.057175,409.174225 172.023819,408.621704 
	C206.758133,406.696259 241.464920,404.378967 276.259064,403.467194 
	C290.052704,403.105713 303.883698,403.300690 317.679657,402.125092 
	C322.909210,401.679504 324.157410,399.626831 323.686859,394.942230 
	C322.606201,384.183533 321.733063,373.403595 320.820557,362.628479 
	C318.068542,330.132050 314.328125,297.737946 310.799957,265.321655 
	C310.463898,262.233856 309.163605,259.858063 306.131592,258.856934 
	C302.304596,257.593323 298.333740,257.202026 294.302307,257.351807 
	C292.538177,257.417389 291.145813,258.155701 291.407593,259.975281 
	C292.592285,268.209869 287.481323,274.165558 284.037964,280.694580 
	C283.055786,282.556976 282.519989,285.841644 279.387604,284.874359 
	C276.631989,284.023376 277.257782,281.026764 277.125488,278.793152 
	C276.830078,273.806122 276.705719,268.808929 276.510803,263.815948 
	C276.324860,259.053345 274.478485,256.928162 269.102386,257.154999 
	C245.810501,258.137634 222.500900,258.730408 199.193344,259.277740 
	C195.678207,259.360260 194.114838,260.745789 193.333115,263.974762 
	C192.277252,268.336029 190.924469,272.626434 189.658112,276.935211 
	C189.154999,278.647034 188.907959,281.106140 186.544312,280.744171 
	C183.764847,280.318481 184.651291,277.749512 184.669357,275.828186 
	C184.716995,270.761169 186.674606,265.795746 185.792160,260.659485 
	C182.536072,259.793243 179.536179,260.403717 175.623795,260.297028 
M148.493515,95.817818 
	C152.491776,95.769951 156.490936,95.649223 160.488022,95.698090 
	C163.489456,95.734795 164.647491,94.856598 163.955170,91.526764 
	C161.005783,77.341286 157.688629,63.268547 152.886581,49.573421 
	C150.063614,41.522469 146.779648,33.711445 141.628677,26.829861 
	C133.828156,16.408525 123.429070,10.908744 113.322098,27.683161 
	C100.904083,48.293224 92.818832,70.569626 85.908020,93.402885 
	C85.619614,94.355789 85.273216,95.338737 86.727928,96.690582 
	C106.625259,96.921898 127.062691,96.601601 148.493515,95.817818 
M224.522049,239.836304 
	C228.180771,239.788376 231.856476,239.498566 235.493896,239.753998 
	C240.000229,240.070435 241.253891,238.105240 241.080017,233.871384 
	C240.472931,219.088882 240.875854,204.282150 239.953262,189.497910 
	C239.451416,181.455582 234.668228,178.525894 227.169281,182.157913 
	C224.865417,183.273788 223.188705,185.090607 221.609177,187.057724 
	C214.013474,196.517242 208.851562,207.267227 204.893036,218.636490 
	C202.457840,225.630493 199.833160,232.591705 198.749649,240.247223 
	C207.369614,241.525864 215.442825,239.709534 224.522049,239.836304 
M260.885803,208.547165 
	C259.557800,205.708298 258.309845,202.817520 256.255798,200.375488 
	C256.255798,211.843430 256.228821,222.953506 256.281769,234.063202 
	C256.290833,235.967529 255.917313,238.508575 258.850159,238.573105 
	C262.893799,238.662048 267.017426,239.367020 271.395630,237.948700 
	C269.241028,227.731079 265.257507,218.466019 260.885803,208.547165 
z"/>
</svg>
