<svg version="1.1" id="Layer_1" xmlns="http://www.w3.org/2000/svg" xmlns:xlink="http://www.w3.org/1999/xlink" x="0px" y="0px"
	 width="100%" viewBox="0 0 360 499" enable-background="new 0 0 360 499" xml:space="preserve">
<path fill="#FFFEFE" opacity="1.000000" stroke="none" 
	d="
M361.000000,299.000000 
	C361.000000,365.963531 361.000000,432.927032 361.000000,499.945282 
	C241.101837,499.945282 121.203651,499.945282 1.000000,499.945282 
	C1.000000,419.312683 1.000000,338.625000 1.405061,257.441772 
	C2.684400,261.791046 3.591617,266.630188 4.427516,271.481628 
	C9.166534,298.986267 24.184526,321.029175 42.111320,341.336304 
	C64.629646,366.844604 91.774055,387.131104 118.621979,407.697205 
	C144.945450,427.861633 165.705872,451.735687 172.781631,485.410339 
	C174.820007,495.111359 184.251480,500.025940 193.617584,497.598419 
	C202.154678,495.385773 207.735245,486.401398 205.533752,477.342133 
	C203.534531,469.115204 201.289413,460.875031 198.256073,452.985443 
	C187.133957,424.057526 166.505676,402.531158 142.978226,383.393280 
	C124.379494,368.264526 105.462433,353.515625 87.151024,338.048401 
	C69.448204,323.095245 55.061298,305.222015 43.648521,284.997803 
	C36.725372,272.729553 32.925266,259.713531 32.758438,245.510162 
	C32.543961,227.250229 37.534756,210.476501 45.108200,194.052765 
	C53.190914,176.524612 66.606064,165.541672 84.465027,159.627304 
	C99.327217,154.705414 112.996368,157.638474 124.191597,168.518280 
	C129.225357,173.410217 133.698776,179.391556 136.776901,185.685333 
	C145.454727,203.428726 151.645401,221.967987 151.934265,242.112320 
	C152.078293,252.155838 159.719955,260.053314 168.429337,260.263428 
	C177.135757,260.473480 184.712189,252.860733 185.752838,242.821686 
	C185.872742,241.665009 185.894897,240.489075 185.852554,239.326065 
	C184.719971,208.214050 175.311981,179.650635 157.381287,154.392090 
	C142.148132,132.933487 120.161926,122.823128 94.006477,123.485580 
	C60.724110,124.328552 24.850870,150.193619 14.026486,181.677994 
	C8.871397,196.672363 6.473599,212.614777 2.829216,228.128311 
	C2.213171,230.750732 1.609425,233.376038 0.999999,236.000000 
	C1.000000,157.768158 1.000000,79.536308 1.000000,1.000000 
	C35.020290,1.000000 69.041489,1.000000 103.373032,1.343064 
	C87.543320,5.246696 73.159698,12.044408 62.037041,24.650213 
	C49.254066,39.137726 42.060490,55.364792 47.768250,75.019508 
	C55.812244,102.719055 80.667786,118.438896 111.603661,114.924568 
	C143.696060,111.278854 172.314468,83.849915 160.801239,43.965477 
	C154.135071,20.872316 140.358124,4.997383 115.079140,1.845821 
	C114.690323,1.797346 114.358444,1.292089 114.000000,1.000002 
	C196.264679,1.000000 278.529358,1.000000 361.000000,1.000000 
	C361.000000,93.354126 361.000000,185.708405 360.649872,278.353821 
	C354.779907,244.359741 324.474915,221.250031 290.963043,225.278809 
	C257.654175,229.283142 231.126633,244.797272 211.401596,271.668945 
	C206.255875,278.679016 202.284729,286.702576 198.737793,294.688660 
	C195.724457,301.473297 195.260849,308.944916 197.962982,316.174316 
	C201.544342,325.755951 212.202057,328.129730 219.232620,320.707062 
	C221.928406,317.860931 223.986191,314.288818 225.833817,310.783478 
	C231.801056,299.462311 239.734894,289.707184 248.662811,280.625305 
	C259.439178,269.663086 272.526642,263.241302 287.436462,260.342590 
	C295.838867,258.709015 304.276184,257.641724 312.198395,262.449860 
	C324.696014,270.034882 329.361694,282.823547 325.503387,298.455902 
	C321.425323,314.978607 310.847046,327.068878 298.433258,337.682159 
	C286.918610,347.526764 274.954315,356.858063 262.993622,366.165619 
	C242.703217,381.955139 227.384079,401.098572 221.403381,426.657379 
	C220.577606,430.186279 219.875977,433.886383 220.021545,437.470490 
	C220.313293,444.654358 225.515747,450.653198 232.110504,452.300751 
	C239.415405,454.125732 246.583099,451.702454 250.269958,445.174896 
	C252.509079,441.210541 253.889969,436.604614 254.864899,432.115051 
	C257.053864,422.034485 261.422089,413.294250 269.080109,406.317047 
	C273.509888,402.281097 277.907471,398.194885 282.535461,394.394257 
	C296.050781,383.295135 310.023376,372.726471 323.172211,361.213745 
	C341.755219,344.943054 355.587006,325.499176 359.964478,300.471191 
	C360.057922,299.936768 360.643829,299.488495 361.000000,299.000000 
M349.338806,172.497742 
	C350.488373,146.696335 325.019867,127.155006 307.411163,126.009102 
	C289.849426,124.866234 276.848877,133.172577 267.718781,147.288437 
	C258.046814,162.242065 256.166870,178.409515 264.800232,194.611481 
	C274.227905,212.304092 294.494141,221.171478 313.943115,216.729111 
	C334.644562,212.000687 348.005463,195.658813 349.338806,172.497742 
z"/>
<path fill="#886550" opacity="1.000000" stroke="none" 
	d="
M0.999999,236.468536 
	C1.609425,233.376038 2.213171,230.750732 2.829216,228.128311 
	C6.473599,212.614777 8.871397,196.672363 14.026486,181.677994 
	C24.850870,150.193619 60.724110,124.328552 94.006477,123.485580 
	C120.161926,122.823128 142.148132,132.933487 157.381287,154.392090 
	C175.311981,179.650635 184.719971,208.214050 185.852554,239.326065 
	C185.894897,240.489075 185.872742,241.665009 185.752838,242.821686 
	C184.712189,252.860733 177.135757,260.473480 168.429337,260.263428 
	C159.719955,260.053314 152.078293,252.155838 151.934265,242.112320 
	C151.645401,221.967987 145.454727,203.428726 136.776901,185.685333 
	C133.698776,179.391556 129.225357,173.410217 124.191597,168.518280 
	C112.996368,157.638474 99.327217,154.705414 84.465027,159.627304 
	C66.606064,165.541672 53.190914,176.524612 45.108200,194.052765 
	C37.534756,210.476501 32.543961,227.250229 32.758438,245.510162 
	C32.925266,259.713531 36.725372,272.729553 43.648521,284.997803 
	C55.061298,305.222015 69.448204,323.095245 87.151024,338.048401 
	C105.462433,353.515625 124.379494,368.264526 142.978226,383.393280 
	C166.505676,402.531158 187.133957,424.057526 198.256073,452.985443 
	C201.289413,460.875031 203.534531,469.115204 205.533752,477.342133 
	C207.735245,486.401398 202.154678,495.385773 193.617584,497.598419 
	C184.251480,500.025940 174.820007,495.111359 172.781631,485.410339 
	C165.705872,451.735687 144.945450,427.861633 118.621979,407.697205 
	C91.774055,387.131104 64.629646,366.844604 42.111320,341.336304 
	C24.184526,321.029175 9.166534,298.986267 4.427516,271.481628 
	C3.591617,266.630188 2.684400,261.791046 1.405061,256.973114 
	C1.000000,250.312363 1.000000,243.624710 0.999999,236.468536 
z"/>
<path fill="#65412A" opacity="1.000000" stroke="none" 
	d="
M361.000000,298.531616 
	C360.643829,299.488495 360.057922,299.936768 359.964478,300.471191 
	C355.587006,325.499176 341.755219,344.943054 323.172211,361.213745 
	C310.023376,372.726471 296.050781,383.295135 282.535461,394.394257 
	C277.907471,398.194885 273.509888,402.281097 269.080109,406.317047 
	C261.422089,413.294250 257.053864,422.034485 254.864899,432.115051 
	C253.889969,436.604614 252.509079,441.210541 250.269958,445.174896 
	C246.583099,451.702454 239.415405,454.125732 232.110504,452.300751 
	C225.515747,450.653198 220.313293,444.654358 220.021545,437.470490 
	C219.875977,433.886383 220.577606,430.186279 221.403381,426.657379 
	C227.384079,401.098572 242.703217,381.955139 262.993622,366.165619 
	C274.954315,356.858063 286.918610,347.526764 298.433258,337.682159 
	C310.847046,327.068878 321.425323,314.978607 325.503387,298.455902 
	C329.361694,282.823547 324.696014,270.034882 312.198395,262.449860 
	C304.276184,257.641724 295.838867,258.709015 287.436462,260.342590 
	C272.526642,263.241302 259.439178,269.663086 248.662811,280.625305 
	C239.734894,289.707184 231.801056,299.462311 225.833817,310.783478 
	C223.986191,314.288818 221.928406,317.860931 219.232620,320.707062 
	C212.202057,328.129730 201.544342,325.755951 197.962982,316.174316 
	C195.260849,308.944916 195.724457,301.473297 198.737793,294.688660 
	C202.284729,286.702576 206.255875,278.679016 211.401596,271.668945 
	C231.126633,244.797272 257.654175,229.283142 290.963043,225.278809 
	C324.474915,221.250031 354.779907,244.359741 360.649872,278.822479 
	C361.000000,285.354401 361.000000,291.708801 361.000000,298.531616 
z"/>
<path fill="#86634D" opacity="1.000000" stroke="none" 
	d="
M113.545891,1.000002 
	C114.358444,1.292089 114.690323,1.797346 115.079140,1.845821 
	C140.358124,4.997383 154.135071,20.872316 160.801239,43.965477 
	C172.314468,83.849915 143.696060,111.278854 111.603661,114.924568 
	C80.667786,118.438896 55.812244,102.719055 47.768250,75.019508 
	C42.060490,55.364792 49.254066,39.137726 62.037041,24.650213 
	C73.159698,12.044408 87.543320,5.246696 103.841690,1.343064 
	C107.030594,1.000000 110.061188,1.000000 113.545891,1.000002 
z"/>
<path fill="#633F26" opacity="1.000000" stroke="none" 
	d="
M349.329834,172.977966 
	C348.005463,195.658813 334.644562,212.000687 313.943115,216.729111 
	C294.494141,221.171478 274.227905,212.304092 264.800232,194.611481 
	C256.166870,178.409515 258.046814,162.242065 267.718781,147.288437 
	C276.848877,133.172577 289.849426,124.866234 307.411163,126.009102 
	C325.019867,127.155006 350.488373,146.696335 349.329834,172.977966 
z"/>
</svg>